<?xml version="1.0" standalone="no"?>
 <!DOCTYPE svg PUBLIC "-//W3C//DTD SVG 1.1//EN" 
 "http://www.w3.org/Graphics/SVG/1.1/DTD/svg11.dtd"> 
<svg xmlns="http://www.w3.org/2000/svg" version="1.1" 
    width="10.5994cm" height="8.27532cm" viewBox="0 0 41730 32580 ">
<title>SVG Picture created as mainButton-F.Cu.svg date 2018/10/12 14:41:56 </title>
  <desc>Picture generated by PCBNEW </desc>
<g style="fill:#000000; fill-opacity:1;stroke:#000000; stroke-opacity:1;
stroke-linecap:round; stroke-linejoin:round; "
 transform="translate(0 0) scale(1 1)">
</g>
<g style="fill:#000000; fill-opacity:0.0; 
stroke:#000000; stroke-width:-0.000393701; stroke-opacity:1; 
stroke-linecap:round; stroke-linejoin:round;">
</g>
<g style="fill:#000000; fill-opacity:0.0; 
stroke:#000000; stroke-width:59.0551; stroke-opacity:1; 
stroke-linecap:round; stroke-linejoin:round;">
<path d="M31525 29
L31131 29
" />
<path d="M31525 23257
L31525 29
" />
<path d="M29 23257
L31525 23257
" />
<path d="M29 29
L29 23257
" />
<path d="M31131 29
L29 29
" />
</g>
<g style="fill:#000000; fill-opacity:0.0; 
stroke:#000000; stroke-width:118.11; stroke-opacity:1; 
stroke-linecap:round; stroke-linejoin:round;">
<path d="M26773 19363
L27223 19363
" />
<path d="M26998 19588
L26998 19138
" />
<path d="M27040 17577
L27040 17127
" />
<path d="M28446 21964
L27855 21964
" />
<path d="M28446 21683
L27855 21683
L28446 21345
L27855 21345
" />
<path d="M28446 21064
L27855 21064
L27855 20839
L27883 20783
L27911 20755
L27968 20726
L28052 20726
L28108 20755
L28136 20783
L28165 20839
L28165 21064
" />
<path d="M27855 20473
L28333 20473
L28390 20445
L28418 20417
L28446 20361
L28446 20248
L28418 20192
L28390 20164
L28333 20136
L27855 20136
" />
<path d="M27855 19939
L27855 19602
" />
<path d="M28446 19770
L27855 19770
" />
<path d="M28136 18758
L28165 18674
L28193 18645
L28249 18617
L28333 18617
L28390 18645
L28418 18674
L28446 18730
L28446 18955
L27855 18955
L27855 18758
L27883 18702
L27911 18674
L27968 18645
L28024 18645
L28080 18674
L28108 18702
L28136 18758
L28136 18955
" />
<path d="M27855 18364
L28333 18364
L28390 18336
L28418 18308
L28446 18252
L28446 18139
L28418 18083
L28390 18055
L28333 18027
L27855 18027
" />
<path d="M27855 17830
L27855 17492
" />
<path d="M28446 17661
L27855 17661
" />
<path d="M27855 17380
L27855 17043
" />
<path d="M28446 17211
L27855 17211
" />
<path d="M27855 16733
L27855 16621
L27883 16564
L27940 16508
L28052 16480
L28249 16480
L28361 16508
L28418 16564
L28446 16621
L28446 16733
L28418 16789
L28361 16846
L28249 16874
L28052 16874
L27940 16846
L27883 16789
L27855 16733
" />
<path d="M28446 16227
L27855 16227
L28446 15890
L27855 15890
" />
<path d="M19869 493
L19981 493
L20037 521
L20094 577
L20122 690
L20122 887
L20094 999
L20037 1055
L19981 1084
L19869 1084
L19812 1055
L19756 999
L19728 887
L19728 690
L19756 577
L19812 521
L19869 493
" />
<path d="M20375 493
L20375 971
L20403 1027
L20431 1055
L20487 1084
L20600 1084
L20656 1055
L20684 1027
L20712 971
L20712 493
" />
<path d="M20909 493
L21247 493
" />
<path d="M21078 1084
L21078 493
" />
<path d="M21444 1084
L21444 493
L21669 493
L21725 521
L21753 549
L21781 606
L21781 690
L21753 746
L21725 774
L21669 802
L21444 802
" />
<path d="M22034 493
L22034 971
L22062 1027
L22090 1055
L22147 1084
L22259 1084
L22315 1055
L22343 1027
L22372 971
L22372 493
" />
<path d="M22568 493
L22906 493
" />
<path d="M22737 1084
L22737 493
" />
<path d="M23553 1084
L23553 493
L23778 493
L23834 521
L23862 549
L23890 606
L23890 690
L23862 746
L23834 774
L23778 802
L23553 802
" />
<path d="M24143 774
L24340 774
" />
<path d="M24424 1084
L24143 1084
L24143 493
L24424 493
" />
<path d="M24678 1084
L24678 493
L24818 493
L24902 521
L24959 577
L24987 634
L25015 746
L25015 830
L24987 943
L24959 999
L24902 1055
L24818 1084
L24678 1084
" />
<path d="M25240 915
L25521 915
" />
<path d="M25184 1084
L25381 493
L25577 1084
" />
<path d="M26055 1084
L25774 1084
L25774 493
" />
<path d="M2265 8662
L1674 8662
" />
<path d="M1955 8662
L1955 8325
" />
<path d="M2265 8325
L1674 8325
" />
<path d="M2265 6539
L2265 6820
L1674 6820
" />
<path d="M1280 9042
L690 9042
" />
<path d="M1280 8761
L690 8761
L1280 8423
L690 8423
" />
<path d="M1280 8142
L690 8142
L690 7917
L718 7861
L746 7833
L802 7805
L887 7805
L943 7833
L971 7861
L999 7917
L999 8142
" />
<path d="M690 7552
L1168 7552
L1224 7523
L1252 7495
L1280 7439
L1280 7327
L1252 7270
L1224 7242
L1168 7214
L690 7214
" />
<path d="M690 7017
L690 6680
" />
<path d="M1280 6848
L690 6848
" />
<path d="M1280 6033
L690 6033
L690 5808
L718 5752
L746 5724
L802 5696
L887 5696
L943 5724
L971 5752
L999 5808
L999 6033
" />
<path d="M971 5442
L971 5246
" />
<path d="M1280 5161
L1280 5442
L690 5442
L690 5161
" />
<path d="M1280 4908
L690 4908
L690 4767
L718 4683
L774 4627
L830 4599
L943 4571
L1027 4571
L1140 4599
L1196 4627
L1252 4683
L1280 4767
L1280 4908
" />
<path d="M1112 4346
L1112 4064
" />
<path d="M1280 4402
L690 4205
L1280 4008
" />
<path d="M1280 3530
L1280 3811
L690 3811
" />
<path d="M2462 12993
L1871 12993
" />
<path d="M2152 12993
L2152 12656
" />
<path d="M2462 12656
L1871 12656
" />
<path d="M2462 10870
L2462 11151
L1871 11151
" />
<path d="M887 12965
L887 12852
L915 12796
L971 12740
L1084 12712
L1280 12712
L1393 12740
L1449 12796
L1477 12852
L1477 12965
L1449 13021
L1393 13077
L1280 13106
L1084 13106
L971 13077
L915 13021
L887 12965
" />
<path d="M1449 12487
L1477 12402
L1477 12262
L1449 12206
L1421 12178
L1365 12149
L1309 12149
L1252 12178
L1224 12206
L1196 12262
L1168 12374
L1140 12431
L1112 12459
L1055 12487
L999 12487
L943 12459
L915 12431
L887 12374
L887 12234
L915 12149
" />
<path d="M1421 11559
L1449 11587
L1477 11671
L1477 11728
L1449 11812
L1393 11868
L1337 11896
L1224 11924
L1140 11924
L1027 11896
L971 11868
L915 11812
L887 11728
L887 11671
L915 11587
L943 11559
" />
<path d="M1421 10968
L1449 10996
L1477 11081
L1477 11137
L1449 11221
L1393 11278
L1337 11306
L1224 11334
L1140 11334
L1027 11306
L971 11278
L915 11221
L887 11137
L887 11081
L915 10996
L943 10968
" />
</g>
<g style="fill:#000000; fill-opacity:0.0; 
stroke:#000000; stroke-width:629.921; stroke-opacity:1; 
stroke-linecap:round; stroke-linejoin:round;">
<path d="M13702 20895
L13427 20895
" />
<path d="M13702 16895
L13427 16895
" />
<path d="M16702 20895
L16427 20895
" />
<path d="M16702 16895
L16427 16895
" />
<path d="M13702 15895
L13427 15895
" />
<path d="M16702 15895
L16427 15895
" />
<path d="M16277 2588
L16553 2588
" />
<path d="M16277 6588
L16553 6588
" />
<path d="M13277 2588
L13553 2588
" />
<path d="M13277 6588
L13553 6588
" />
<path d="M16277 7588
L16553 7588
" />
<path d="M13277 7588
L13553 7588
" />
</g>
<g style="fill:#000000; fill-opacity:0.0; 
stroke:#000000; stroke-width:0; stroke-opacity:1; 
stroke-linecap:round; stroke-linejoin:round;">
</g>
<g style="fill:#000000; fill-opacity:1.0; 
stroke:#000000; stroke-width:0; stroke-opacity:1; 
stroke-linecap:round; stroke-linejoin:round;">
<polyline style="fill-rule:evenodd;"
points="19084,19950
19084,20659
18375,20659
18375,19950
19084,19950
" /> 
<circle cx="17730.3" cy="20305.1" r="354.331" /> 
</g>
<g style="fill:#000000; fill-opacity:1.0; 
stroke:#000000; stroke-width:39.3701; stroke-opacity:1; 
stroke-linecap:round; stroke-linejoin:round;">
</g>
<g style="fill:#000000; fill-opacity:1.0; 
stroke:#000000; stroke-width:629.921; stroke-opacity:1; 
stroke-linecap:round; stroke-linejoin:round;">
</g>
<g style="fill:#000000; fill-opacity:0.0; 
stroke:#000000; stroke-width:629.921; stroke-opacity:1; 
stroke-linecap:round; stroke-linejoin:round;">
<path d="M11356 2588
L11631 2588
" />
<path d="M11356 6588
L11631 6588
" />
<path d="M8356 2588
L8631 2588
" />
<path d="M8356 6588
L8631 6588
" />
<path d="M11356 7588
L11631 7588
" />
<path d="M8356 7588
L8631 7588
" />
</g>
<g style="fill:#000000; fill-opacity:0.0; 
stroke:#000000; stroke-width:0; stroke-opacity:1; 
stroke-linecap:round; stroke-linejoin:round;">
</g>
<g style="fill:#000000; fill-opacity:1.0; 
stroke:#000000; stroke-width:0; stroke-opacity:1; 
stroke-linecap:round; stroke-linejoin:round;">
<polyline style="fill-rule:evenodd;"
points="5974,20659
5974,19950
6683,19950
6683,20659
5974,20659
" /> 
<circle cx="7328.74" cy="20305.1" r="354.331" /> 
</g>
<g style="fill:#000000; fill-opacity:1.0; 
stroke:#000000; stroke-width:39.3701; stroke-opacity:1; 
stroke-linecap:round; stroke-linejoin:round;">
</g>
<g style="fill:#000000; fill-opacity:1.0; 
stroke:#000000; stroke-width:0; stroke-opacity:1; 
stroke-linecap:round; stroke-linejoin:round;">
<polyline style="fill-rule:evenodd;"
points="18887,2627
18887,3336
18179,3336
18179,2627
18887,2627
" /> 
<circle cx="17533.5" cy="2982.28" r="354.331" /> 
</g>
<g style="fill:#000000; fill-opacity:1.0; 
stroke:#000000; stroke-width:39.3701; stroke-opacity:1; 
stroke-linecap:round; stroke-linejoin:round;">
</g>
<g style="fill:#000000; fill-opacity:1.0; 
stroke:#000000; stroke-width:0; stroke-opacity:1; 
stroke-linecap:round; stroke-linejoin:round;">
<polyline style="fill-rule:evenodd;"
points="6171,3336
6171,2627
6879,2627
6879,3336
6171,3336
" /> 
<circle cx="7525.59" cy="2982.28" r="354.331" /> 
</g>
<g style="fill:#000000; fill-opacity:1.0; 
stroke:#000000; stroke-width:39.3701; stroke-opacity:1; 
stroke-linecap:round; stroke-linejoin:round;">
</g>
<g style="fill:#000000; fill-opacity:1.0; 
stroke:#000000; stroke-width:0; stroke-opacity:1; 
stroke-linecap:round; stroke-linejoin:round;">
<polyline style="fill-rule:evenodd;"
points="4694,14655
4694,15324
4025,15324
4025,14655
4694,14655
" /> 
</g>
<g style="fill:#000000; fill-opacity:1.0; 
stroke:#000000; stroke-width:669.291; stroke-opacity:1; 
stroke-linecap:round; stroke-linejoin:round;">
</g>
<g style="fill:#000000; fill-opacity:0.0; 
stroke:#000000; stroke-width:669.291; stroke-opacity:1; 
stroke-linecap:round; stroke-linejoin:round;">
<path d="M4360 15990
L4360 15990
" />
<path d="M4360 16990
L4360 16990
" />
<path d="M4360 17990
L4360 17990
" />
<path d="M4360 18990
L4360 18990
" />
<path d="M4360 19990
L4360 19990
" />
</g>
<g style="fill:#000000; fill-opacity:0.0; 
stroke:#000000; stroke-width:629.921; stroke-opacity:1; 
stroke-linecap:round; stroke-linejoin:round;">
<path d="M8584 20895
L8309 20895
" />
<path d="M8584 16895
L8309 16895
" />
<path d="M11584 20895
L11309 20895
" />
<path d="M11584 16895
L11309 16895
" />
<path d="M8584 15895
L8309 15895
" />
<path d="M11584 15895
L11309 15895
" />
<path d="M18033 14202
L17757 14202
" />
<path d="M18033 10202
L17757 10202
" />
<path d="M21033 14202
L20757 14202
" />
<path d="M21033 10202
L20757 10202
" />
<path d="M18033 9202
L17757 9202
" />
<path d="M21033 9202
L20757 9202
" />
</g>
<g style="fill:#000000; fill-opacity:0.0; 
stroke:#000000; stroke-width:354.331; stroke-opacity:1; 
stroke-linecap:round; stroke-linejoin:round;">
<path d="M13690 11159
L13927 11159
" />
<path d="M13690 11659
L13927 11659
" />
</g>
<g style="fill:#000000; fill-opacity:0.0; 
stroke:#000000; stroke-width:0; stroke-opacity:1; 
stroke-linecap:round; stroke-linejoin:round;">
</g>
<g style="fill:#000000; fill-opacity:1.0; 
stroke:#000000; stroke-width:0; stroke-opacity:1; 
stroke-linecap:round; stroke-linejoin:round;">
<polyline style="fill-rule:evenodd;"
points="14104,10836
13513,10836
13513,10482
14104,10482
14104,10836
" /> 
</g>
<g style="fill:#000000; fill-opacity:1.0; 
stroke:#000000; stroke-width:1377.95; stroke-opacity:1; 
stroke-linecap:round; stroke-linejoin:round;">
</g>
<g style="fill:#000000; fill-opacity:0.0; 
stroke:#000000; stroke-width:1377.95; stroke-opacity:1; 
stroke-linecap:round; stroke-linejoin:round;">
<path d="M28588 2722
L28588 2722
" />
</g>
<g style="fill:#000000; fill-opacity:0.0; 
stroke:#000000; stroke-width:0; stroke-opacity:1; 
stroke-linecap:round; stroke-linejoin:round;">
</g>
<g style="fill:#000000; fill-opacity:1.0; 
stroke:#000000; stroke-width:0; stroke-opacity:1; 
stroke-linecap:round; stroke-linejoin:round;">
<polyline style="fill-rule:evenodd;"
points="27234,9635
27234,8927
27942,8927
27942,9635
27234,9635
" /> 
</g>
<g style="fill:#000000; fill-opacity:1.0; 
stroke:#000000; stroke-width:708.661; stroke-opacity:1; 
stroke-linecap:round; stroke-linejoin:round;">
</g>
<g style="fill:#000000; fill-opacity:0.0; 
stroke:#000000; stroke-width:708.661; stroke-opacity:1; 
stroke-linecap:round; stroke-linejoin:round;">
<path d="M28588 9281
L28588 9281
" />
<path d="M29588 9281
L29588 9281
" />
</g>
<g style="fill:#000000; fill-opacity:0.0; 
stroke:#000000; stroke-width:0; stroke-opacity:1; 
stroke-linecap:round; stroke-linejoin:round;">
</g>
<g style="fill:#000000; fill-opacity:1.0; 
stroke:#000000; stroke-width:0; stroke-opacity:1; 
stroke-linecap:round; stroke-linejoin:round;">
<polyline style="fill-rule:evenodd;"
points="5620,11092
7037,11092
7037,11801
5620,11801
5620,11092
" /> 
</g>
<g style="fill:#000000; fill-opacity:1.0; 
stroke:#000000; stroke-width:708.661; stroke-opacity:1; 
stroke-linecap:round; stroke-linejoin:round;">
</g>
<g style="fill:#000000; fill-opacity:0.0; 
stroke:#000000; stroke-width:708.661; stroke-opacity:1; 
stroke-linecap:round; stroke-linejoin:round;">
<path d="M6683 12824
L5974 12824
" />
</g>
<g style="fill:#000000; fill-opacity:0.0; 
stroke:#000000; stroke-width:0; stroke-opacity:1; 
stroke-linecap:round; stroke-linejoin:round;">
</g>
<g style="fill:#000000; fill-opacity:1.0; 
stroke:#000000; stroke-width:0; stroke-opacity:1; 
stroke-linecap:round; stroke-linejoin:round;">
<polyline style="fill-rule:evenodd;"
points="25187,4045
25187,5462
24478,5462
24478,4045
25187,4045
" /> 
</g>
<g style="fill:#000000; fill-opacity:1.0; 
stroke:#000000; stroke-width:708.661; stroke-opacity:1; 
stroke-linecap:round; stroke-linejoin:round;">
</g>
<g style="fill:#000000; fill-opacity:0.0; 
stroke:#000000; stroke-width:708.661; stroke-opacity:1; 
stroke-linecap:round; stroke-linejoin:round;">
<path d="M23454 5108
L23454 4399
" />
<path d="M22076 5108
L22076 4399
" />
<path d="M20698 5108
L20698 4399
" />
</g>
<g style="fill:#000000; fill-opacity:0.0; 
stroke:#000000; stroke-width:0; stroke-opacity:1; 
stroke-linecap:round; stroke-linejoin:round;">
</g>
<g style="fill:#000000; fill-opacity:1.0; 
stroke:#000000; stroke-width:0; stroke-opacity:1; 
stroke-linecap:round; stroke-linejoin:round;">
<polyline style="fill-rule:evenodd;"
points="5620,6761
7037,6761
7037,7470
5620,7470
5620,6761
" /> 
</g>
<g style="fill:#000000; fill-opacity:1.0; 
stroke:#000000; stroke-width:708.661; stroke-opacity:1; 
stroke-linecap:round; stroke-linejoin:round;">
</g>
<g style="fill:#000000; fill-opacity:0.0; 
stroke:#000000; stroke-width:708.661; stroke-opacity:1; 
stroke-linecap:round; stroke-linejoin:round;">
<path d="M6683 8494
L5974 8494
" />
</g>
<g style="fill:#000000; fill-opacity:0.0; 
stroke:#000000; stroke-width:0; stroke-opacity:1; 
stroke-linecap:round; stroke-linejoin:round;">
</g>
<g style="fill:#000000; fill-opacity:1.0; 
stroke:#000000; stroke-width:0; stroke-opacity:1; 
stroke-linecap:round; stroke-linejoin:round;">
<polyline style="fill-rule:evenodd;"
points="7982,13139
7982,12509
8612,12509
8612,13139
7982,13139
" /> 
</g>
<g style="fill:#000000; fill-opacity:1.0; 
stroke:#000000; stroke-width:629.921; stroke-opacity:1; 
stroke-linecap:round; stroke-linejoin:round;">
</g>
<g style="fill:#000000; fill-opacity:0.0; 
stroke:#000000; stroke-width:629.921; stroke-opacity:1; 
stroke-linecap:round; stroke-linejoin:round;">
<path d="M11297 12824
L11297 12824
" />
</g>
<g style="fill:#000000; fill-opacity:0.0; 
stroke:#000000; stroke-width:0; stroke-opacity:1; 
stroke-linecap:round; stroke-linejoin:round;">
</g>
<g style="fill:#000000; fill-opacity:1.0; 
stroke:#000000; stroke-width:0; stroke-opacity:1; 
stroke-linecap:round; stroke-linejoin:round;">
<polyline style="fill-rule:evenodd;"
points="7982,14320
7982,13690
8612,13690
8612,14320
7982,14320
" /> 
</g>
<g style="fill:#000000; fill-opacity:1.0; 
stroke:#000000; stroke-width:629.921; stroke-opacity:1; 
stroke-linecap:round; stroke-linejoin:round;">
</g>
<g style="fill:#000000; fill-opacity:0.0; 
stroke:#000000; stroke-width:629.921; stroke-opacity:1; 
stroke-linecap:round; stroke-linejoin:round;">
<path d="M11297 14005
L11297 14005
" />
</g>
<g style="fill:#000000; fill-opacity:0.0; 
stroke:#000000; stroke-width:0; stroke-opacity:1; 
stroke-linecap:round; stroke-linejoin:round;">
</g>
<g style="fill:#000000; fill-opacity:1.0; 
stroke:#000000; stroke-width:0; stroke-opacity:1; 
stroke-linecap:round; stroke-linejoin:round;">
<polyline style="fill-rule:evenodd;"
points="7982,11958
7982,11328
8612,11328
8612,11958
7982,11958
" /> 
</g>
<g style="fill:#000000; fill-opacity:1.0; 
stroke:#000000; stroke-width:629.921; stroke-opacity:1; 
stroke-linecap:round; stroke-linejoin:round;">
</g>
<g style="fill:#000000; fill-opacity:0.0; 
stroke:#000000; stroke-width:629.921; stroke-opacity:1; 
stroke-linecap:round; stroke-linejoin:round;">
<path d="M11297 11643
L11297 11643
" />
</g>
<g style="fill:#000000; fill-opacity:0.0; 
stroke:#000000; stroke-width:0; stroke-opacity:1; 
stroke-linecap:round; stroke-linejoin:round;">
</g>
<g style="fill:#000000; fill-opacity:1.0; 
stroke:#000000; stroke-width:0; stroke-opacity:1; 
stroke-linecap:round; stroke-linejoin:round;">
<polyline style="fill-rule:evenodd;"
points="7982,10777
7982,10147
8612,10147
8612,10777
7982,10777
" /> 
</g>
<g style="fill:#000000; fill-opacity:1.0; 
stroke:#000000; stroke-width:629.921; stroke-opacity:1; 
stroke-linecap:round; stroke-linejoin:round;">
</g>
<g style="fill:#000000; fill-opacity:0.0; 
stroke:#000000; stroke-width:629.921; stroke-opacity:1; 
stroke-linecap:round; stroke-linejoin:round;">
<path d="M11297 10462
L11297 10462
" />
</g>
<g style="fill:#000000; fill-opacity:0.0; 
stroke:#000000; stroke-width:0; stroke-opacity:1; 
stroke-linecap:round; stroke-linejoin:round;">
</g>
<g style="fill:#000000; fill-opacity:1.0; 
stroke:#000000; stroke-width:0; stroke-opacity:1; 
stroke-linecap:round; stroke-linejoin:round;">
<polyline style="fill-rule:evenodd;"
points="23966,19478
22549,19478
22549,18769
23966,18769
23966,19478
" /> 
</g>
<g style="fill:#000000; fill-opacity:1.0; 
stroke:#000000; stroke-width:708.661; stroke-opacity:1; 
stroke-linecap:round; stroke-linejoin:round;">
</g>
<g style="fill:#000000; fill-opacity:0.0; 
stroke:#000000; stroke-width:708.661; stroke-opacity:1; 
stroke-linecap:round; stroke-linejoin:round;">
<path d="M22903 17746
L23612 17746
" />
</g>
<g style="fill:#000000; fill-opacity:0.0; 
stroke:#000000; stroke-width:0; stroke-opacity:1; 
stroke-linecap:round; stroke-linejoin:round;">
</g>
<g style="fill:#000000; fill-opacity:1.0; 
stroke:#000000; stroke-width:0; stroke-opacity:1; 
stroke-linecap:round; stroke-linejoin:round;">
<polyline style="fill-rule:evenodd;"
points="24379,7962
24379,8631
23710,8631
23710,7962
24379,7962
" /> 
</g>
<g style="fill:#000000; fill-opacity:1.0; 
stroke:#000000; stroke-width:669.291; stroke-opacity:1; 
stroke-linecap:round; stroke-linejoin:round;">
</g>
<g style="fill:#000000; fill-opacity:0.0; 
stroke:#000000; stroke-width:669.291; stroke-opacity:1; 
stroke-linecap:round; stroke-linejoin:round;">
<path d="M24045 9297
L24045 9297
" />
<path d="M24045 10297
L24045 10297
" />
<path d="M24045 11297
L24045 11297
" />
</g>
<g style="fill:#000000; fill-opacity:0.0; 
stroke:#000000; stroke-width:0; stroke-opacity:1; 
stroke-linecap:round; stroke-linejoin:round;">
</g>
<g style="fill:#000000; fill-opacity:1.0; 
stroke:#000000; stroke-width:0; stroke-opacity:1; 
stroke-linecap:round; stroke-linejoin:round;">
<polyline style="fill-rule:evenodd;"
points="27234,12391
27234,11683
27942,11683
27942,12391
27234,12391
" /> 
<circle cx="28588.6" cy="12037.4" r="354.331" /> 
</g>
<g style="fill:#000000; fill-opacity:1.0; 
stroke:#000000; stroke-width:39.3701; stroke-opacity:1; 
stroke-linecap:round; stroke-linejoin:round;">
</g>
<g style="fill:#000000; fill-opacity:1.0; 
stroke:#000000; stroke-width:0; stroke-opacity:1; 
stroke-linecap:round; stroke-linejoin:round;">
<circle cx="14990.2" cy="4557.09" r="354.331" /> 
</g>
<g style="fill:#000000; fill-opacity:1.0; 
stroke:#000000; stroke-width:39.3701; stroke-opacity:1; 
stroke-linecap:round; stroke-linejoin:round;">
</g>
<g style="fill:#000000; fill-opacity:1.0; 
stroke:#000000; stroke-width:0; stroke-opacity:1; 
stroke-linecap:round; stroke-linejoin:round;">
<circle cx="22667.3" cy="9281.5" r="354.331" /> 
</g>
<g style="fill:#000000; fill-opacity:1.0; 
stroke:#000000; stroke-width:39.3701; stroke-opacity:1; 
stroke-linecap:round; stroke-linejoin:round;">
</g>
<g style="fill:#000000; fill-opacity:1.0; 
stroke:#000000; stroke-width:0; stroke-opacity:1; 
stroke-linecap:round; stroke-linejoin:round;">
<circle cx="12431.1" cy="19320.9" r="354.331" /> 
</g>
<g style="fill:#000000; fill-opacity:1.0; 
stroke:#000000; stroke-width:39.3701; stroke-opacity:1; 
stroke-linecap:round; stroke-linejoin:round;">
</g>
<g style="fill:#000000; fill-opacity:1.0; 
stroke:#000000; stroke-width:0; stroke-opacity:1; 
stroke-linecap:round; stroke-linejoin:round;">
<circle cx="21879.9" cy="15580.7" r="354.331" /> 
</g>
<g style="fill:#000000; fill-opacity:1.0; 
stroke:#000000; stroke-width:39.3701; stroke-opacity:1; 
stroke-linecap:round; stroke-linejoin:round;">
</g>
<g style="fill:#000000; fill-opacity:1.0; 
stroke:#000000; stroke-width:0; stroke-opacity:1; 
stroke-linecap:round; stroke-linejoin:round;">
<circle cx="16761.8" cy="10462.6" r="354.331" /> 
</g>
<g style="fill:#000000; fill-opacity:1.0; 
stroke:#000000; stroke-width:39.3701; stroke-opacity:1; 
stroke-linecap:round; stroke-linejoin:round;">
</g>
<g style="fill:#000000; fill-opacity:1.0; 
stroke:#000000; stroke-width:0; stroke-opacity:1; 
stroke-linecap:round; stroke-linejoin:round;">
<circle cx="22667.3" cy="11446.9" r="354.331" /> 
</g>
<g style="fill:#000000; fill-opacity:1.0; 
stroke:#000000; stroke-width:39.3701; stroke-opacity:1; 
stroke-linecap:round; stroke-linejoin:round;">
</g>
<g style="fill:#000000; fill-opacity:1.0; 
stroke:#000000; stroke-width:0; stroke-opacity:1; 
stroke-linecap:round; stroke-linejoin:round;">
<circle cx="12431.1" cy="14399.6" r="354.331" /> 
</g>
<g style="fill:#000000; fill-opacity:1.0; 
stroke:#000000; stroke-width:39.3701; stroke-opacity:1; 
stroke-linecap:round; stroke-linejoin:round;">
</g>
<g style="fill:#000000; fill-opacity:1.0; 
stroke:#000000; stroke-width:0; stroke-opacity:1; 
stroke-linecap:round; stroke-linejoin:round;">
<circle cx="12431.1" cy="11643.7" r="354.331" /> 
</g>
<g style="fill:#000000; fill-opacity:1.0; 
stroke:#000000; stroke-width:39.3701; stroke-opacity:1; 
stroke-linecap:round; stroke-linejoin:round;">
</g>
<g style="fill:#000000; fill-opacity:1.0; 
stroke:#000000; stroke-width:0; stroke-opacity:1; 
stroke-linecap:round; stroke-linejoin:round;">
<circle cx="12431.1" cy="8690.95" r="354.331" /> 
</g>
<g style="fill:#000000; fill-opacity:1.0; 
stroke:#000000; stroke-width:39.3701; stroke-opacity:1; 
stroke-linecap:round; stroke-linejoin:round;">
</g>
<g style="fill:#000000; fill-opacity:1.0; 
stroke:#000000; stroke-width:0; stroke-opacity:1; 
stroke-linecap:round; stroke-linejoin:round;">
<circle cx="12431.1" cy="5738.19" r="354.331" /> 
</g>
<g style="fill:#000000; fill-opacity:1.0; 
stroke:#000000; stroke-width:39.3701; stroke-opacity:1; 
stroke-linecap:round; stroke-linejoin:round;">
</g>
<g style="fill:#000000; fill-opacity:1.0; 
stroke:#000000; stroke-width:0; stroke-opacity:1; 
stroke-linecap:round; stroke-linejoin:round;">
<circle cx="14990.2" cy="2785.43" r="354.331" /> 
</g>
<g style="fill:#000000; fill-opacity:1.0; 
stroke:#000000; stroke-width:39.3701; stroke-opacity:1; 
stroke-linecap:round; stroke-linejoin:round;">
</g>
<g style="fill:#000000; fill-opacity:1.0; 
stroke:#000000; stroke-width:0; stroke-opacity:1; 
stroke-linecap:round; stroke-linejoin:round;">
<circle cx="14990.2" cy="18139.8" r="354.331" /> 
</g>
<g style="fill:#000000; fill-opacity:1.0; 
stroke:#000000; stroke-width:39.3701; stroke-opacity:1; 
stroke-linecap:round; stroke-linejoin:round;">
</g>
<g style="fill:#000000; fill-opacity:1.0; 
stroke:#000000; stroke-width:0; stroke-opacity:1; 
stroke-linecap:round; stroke-linejoin:round;">
<circle cx="30344.5" cy="14596.5" r="354.331" /> 
</g>
<g style="fill:#000000; fill-opacity:1.0; 
stroke:#000000; stroke-width:39.3701; stroke-opacity:1; 
stroke-linecap:round; stroke-linejoin:round;">
</g>
<g style="fill:#000000; fill-opacity:1.0; 
stroke:#000000; stroke-width:196.85; stroke-opacity:1; 
stroke-linecap:round; stroke-linejoin:round;">
</g>
<g style="fill:#000000; fill-opacity:0.0; 
stroke:#000000; stroke-width:196.85; stroke-opacity:1; 
stroke-linecap:round; stroke-linejoin:round;">
<path d="M15974 5541
L14990 4557
" />
<path d="M18927 5541
L15974 5541
" />
<path d="M22667 9281
L18927 5541
" />
<path d="M12431 21289
L12431 19320
" />
<path d="M13415 22273
L12431 21289
" />
<path d="M19517 22273
L13415 22273
" />
<path d="M19911 21879
L19517 22273
" />
<path d="M19911 16171
L19911 21879
" />
<path d="M20501 15580
L19911 16171
" />
<path d="M21879 15580
L20501 15580
" />
<path d="M16761 10856
L16761 10462
" />
<path d="M17155 11250
L16761 10856
" />
<path d="M22470 11250
L17155 11250
" />
<path d="M22667 11446
L22470 11250
" />
<path d="M12431 14399
L12431 11643
" />
<path d="M12431 8690
L12431 11643
" />
<path d="M14990 3179
L12431 5738
" />
<path d="M14990 3179
L14990 2785
" />
<path d="M14990 18139
L15383 17746
" />
<path d="M15383 17746
L18139 17746
" />
<path d="M18139 17746
L19320 16564
" />
<path d="M19320 16564
L19320 14399
" />
<path d="M19320 14399
L20305 13415
" />
<path d="M20305 13415
L26210 13415
" />
<path d="M26210 13415
L27391 14596
" />
<path d="M27391 14596
L30344 14596
" />
</g>
<g style="fill:#000000; fill-opacity:1.0; 
stroke:#000000; stroke-width:100; stroke-opacity:1; 
stroke-linecap:round; stroke-linejoin:round;">
<polyline style="fill-rule:evenodd;"
points="19366,1598
26362,1598
26362,309
31246,309
31246,22978
309,22978
309,15990
3764,15990
3808,16213
3935,16403
4064,16490
3935,16576
3808,16766
3764,16990
3808,17213
3935,17403
4064,17490
3935,17576
3808,17766
3764,17990
3808,18213
3935,18403
4064,18490
3935,18576
3808,18766
3764,18990
3808,19213
3935,19403
4064,19490
3935,19576
3808,19766
3764,19990
3808,20213
3935,20403
4125,20530
4348,20574
4371,20574
4595,20530
4764,20417
5724,20417
5724,20709
5762,20801
5832,20871
5924,20909
6216,20909
6278,20846
6278,20355
5786,20355
5724,20417
4764,20417
4785,20403
4911,20213
4956,19990
4938,19901
5724,19901
5724,20192
5786,20255
6278,20255
6278,19763
6378,19763
6378,20255
6386,20255
6386,20355
6378,20355
6378,20846
6441,20909
6732,20909
6824,20871
6895,20801
6916,20748
6985,20817
7208,20909
7448,20909
7670,20817
7764,20724
7730,20895
7773,21111
7895,21295
8079,21417
8295,21460
8598,21460
8814,21417
8997,21295
9120,21111
9163,20895
10730,20895
10773,21111
10895,21295
11079,21417
11295,21460
11598,21460
11814,21417
11997,21295
12082,21168
12082,21289
12082,21289
12104,21400
12109,21422
12134,21460
12184,21535
13168,22519
13168,22519
13282,22595
13304,22599
13415,22622
13415,22622
19517,22622
19517,22622
19628,22599
19651,22595
19764,22519
20157,22126
20157,22126
20223,22027
20233,22013
20259,21879
20259,21879
20259,18769
22294,18769
22294,19478
22311,19570
22366,19656
22450,19713
22549,19733
23966,19733
24059,19715
24144,19661
24201,19577
24221,19478
24221,18769
24204,18677
24149,18591
24065,18534
23966,18514
22549,18514
22456,18532
22371,18586
22314,18670
22294,18769
20259,18769
20259,17889
22316,17889
22326,17931
22440,18138
22626,18285
22853,18350
23207,18350
23207,17796
23307,17796
23307,18350
23662,18350
23889,18285
24074,18138
24189,17931
24199,17889
24151,17796
23307,17796
23207,17796
22364,17796
22316,17889
20259,17889
20259,17602
22316,17602
22364,17696
23207,17696
23207,17141
23307,17141
23307,17696
24151,17696
24199,17602
24189,17560
24074,17354
23889,17206
23662,17141
23307,17141
23207,17141
22853,17141
22626,17206
22440,17354
22326,17560
22316,17602
20259,17602
20259,16736
26275,16736
26275,17967
27456,17967
27456,18598
26382,18598
26382,20102
27456,20102
27456,22354
28960,22354
28960,15499
27456,15499
27456,16736
26275,16736
20259,16736
20259,16315
20646,15929
21373,15929
21537,16092
21759,16184
21999,16185
22221,16093
22391,15923
22484,15701
22484,15461
22392,15238
22222,15068
22000,14976
21760,14976
21538,15068
21373,15232
20501,15232
20368,15258
20255,15334
20255,15334
19669,15920
19669,14543
20221,13992
20179,14202
20222,14418
20344,14602
20527,14724
20744,14767
21047,14767
21263,14724
21446,14602
21569,14418
21612,14202
21569,13986
21446,13803
21387,13763
26066,13763
27145,14842
27145,14842
27258,14918
27280,14922
27391,14944
27391,14944
29838,14944
30001,15108
30223,15200
30464,15200
30686,15109
30856,14939
30948,14717
30948,14476
30857,14254
30687,14084
30465,13992
30224,13992
30002,14083
29838,14248
27536,14248
26457,13168
26413,13139
26343,13093
26321,13089
26210,13066
26210,13066
20305,13066
20305,13066
20193,13089
20171,13093
20058,13168
20058,13168
19074,14153
18998,14266
18996,14278
18972,14399
18972,14399
18972,16420
17995,17397
16962,17397
17116,17295
17238,17111
17281,16895
17238,16679
17116,16496
16965,16395
17116,16295
17238,16111
17281,15895
17238,15679
17116,15496
16932,15373
16716,15330
16413,15330
16197,15373
16013,15496
15891,15679
15848,15895
15891,16111
16013,16295
16164,16395
16013,16496
15891,16679
15848,16895
15891,17111
16013,17295
16167,17397
15383,17397
15383,17397
15250,17424
15250,17424
15250,17424
15137,17499
15137,17499
15101,17535
14870,17535
14648,17627
14478,17796
14385,18019
14385,18259
14477,18481
14647,18651
14869,18743
15109,18744
15332,18652
15502,18482
15594,18260
15594,18094
18139,18094
18139,18094
18250,18072
18273,18067
18386,17992
18386,17992
19562,16815
19562,21735
19373,21925
13559,21925
12779,21145
12779,20895
12848,20895
12891,21111
13013,21295
13197,21417
13413,21460
13716,21460
13932,21417
14116,21295
14238,21111
14281,20895
15848,20895
15891,21111
16013,21295
16197,21417
16413,21460
16716,21460
16932,21417
17116,21295
17238,21111
17281,20895
17238,20679
17116,20496
17009,20424
17125,20424
17217,20646
17387,20817
17609,20909
17849,20909
18072,20817
18142,20747
18164,20801
18234,20871
18326,20909
18617,20909
18680,20846
18680,20355
18780,20355
18780,20846
18842,20909
19134,20909
19226,20871
19296,20801
19334,20709
19334,20417
19272,20355
18780,20355
18680,20355
18672,20355
18672,20255
18680,20255
18680,19763
18780,19763
18780,20255
19272,20255
19334,20192
19334,19901
19296,19809
19226,19738
19134,19700
18842,19700
18780,19763
18680,19763
18617,19700
18326,19700
18234,19738
18164,19809
18142,19862
18073,19793
17851,19700
17610,19700
17388,19792
17218,19962
17126,20184
17125,20424
17009,20424
16932,20373
16716,20330
16413,20330
16197,20373
16013,20496
15891,20679
15848,20895
14281,20895
14238,20679
14116,20496
13932,20373
13716,20330
13413,20330
13197,20373
13013,20496
12891,20679
12848,20895
12779,20895
12779,19826
12943,19663
13035,19441
13035,19201
12943,18978
12773,18808
12551,18716
12311,18716
12089,18808
11919,18978
11826,19200
11826,19440
11918,19662
12082,19827
12082,20623
11997,20496
11814,20373
11598,20330
11295,20330
11079,20373
10895,20496
10773,20679
10730,20895
9163,20895
9120,20679
8997,20496
8814,20373
8598,20330
8295,20330
8079,20373
7906,20488
7932,20425
7933,20185
7841,19963
7671,19793
7449,19700
7209,19700
6986,19792
6916,19862
6895,19809
6824,19738
6732,19700
6441,19700
6378,19763
6278,19763
6216,19700
5924,19700
5832,19738
5762,19809
5724,19901
4938,19901
4911,19766
4785,19576
4655,19490
4785,19403
4911,19213
4956,18990
4911,18766
4785,18576
4655,18490
4785,18403
4911,18213
4956,17990
4911,17766
4785,17576
4655,17490
4785,17403
4911,17213
4956,16990
4911,16766
4785,16576
4655,16490
4785,16403
4911,16213
4956,15990
4937,15895
7730,15895
7773,16111
7895,16295
8046,16395
7895,16496
7773,16679
7730,16895
7773,17111
7895,17295
8079,17417
8295,17460
8598,17460
8814,17417
8997,17295
9120,17111
9163,16895
9120,16679
8997,16496
8847,16395
8997,16295
9120,16111
9163,15895
10730,15895
10773,16111
10895,16295
11046,16395
10895,16496
10773,16679
10730,16895
10773,17111
10895,17295
11079,17417
11295,17460
11598,17460
11814,17417
11997,17295
12120,17111
12163,16895
12120,16679
11997,16496
11847,16395
11997,16295
12120,16111
12163,15895
12848,15895
12891,16111
13013,16295
13164,16395
13013,16496
12891,16679
12848,16895
12891,17111
13013,17295
13197,17417
13413,17460
13716,17460
13932,17417
14116,17295
14238,17111
14281,16895
14238,16679
14116,16496
13965,16395
14116,16295
14238,16111
14281,15895
14238,15679
14116,15496
13932,15373
13716,15330
13413,15330
13197,15373
13013,15496
12891,15679
12848,15895
12163,15895
12120,15679
11997,15496
11814,15373
11598,15330
11295,15330
11079,15373
10895,15496
10773,15679
10730,15895
9163,15895
9120,15679
8997,15496
8814,15373
8598,15330
8295,15330
8079,15373
7895,15496
7773,15679
7730,15895
4937,15895
4911,15766
4785,15576
4768,15565
4787,15562
4872,15507
4929,15423
4949,15324
4949,14655
4932,14562
4877,14477
4794,14420
4694,14400
4025,14400
3932,14418
3847,14472
3790,14556
3770,14655
3770,15324
3788,15417
3842,15502
3926,15559
3952,15564
3935,15576
3808,15766
3764,15990
309,15990
309,13690
7727,13690
7727,14320
7744,14413
7799,14498
7883,14555
7982,14575
8612,14575
8704,14558
8789,14503
8847,14420
8867,14320
8867,14005
10721,14005
10764,14222
10886,14405
11069,14527
11286,14570
11308,14570
11524,14527
11707,14405
11830,14222
11873,14005
11830,13789
11707,13606
11524,13483
11308,13440
11286,13440
11069,13483
10886,13606
10764,13789
10721,14005
8867,14005
8867,13690
8849,13598
8794,13513
8711,13456
8612,13436
7982,13436
7889,13453
7804,13508
7747,13591
7727,13690
309,13690
309,10606
488,10606
488,13468
1992,13468
1992,13384
2976,13384
2976,12824
5351,12824
5397,13056
5528,13252
5724,13383
5955,13429
6701,13429
6933,13383
7129,13252
7260,13056
7306,12824
7260,12593
7204,12509
7727,12509
7727,13139
7744,13232
7799,13317
7883,13374
7982,13394
8612,13394
8704,13377
8789,13322
8847,13238
8867,13139
8867,12824
10721,12824
10764,13041
10886,13224
11069,13346
11286,13389
11308,13389
11524,13346
11707,13224
11830,13041
11873,12824
11830,12608
11707,12425
11524,12302
11308,12259
11286,12259
11069,12302
10886,12425
10764,12608
10721,12824
8867,12824
8867,12509
8849,12417
8794,12332
8711,12275
8612,12254
7982,12254
7889,12272
7804,12327
7747,12410
7727,12509
7204,12509
7129,12397
6933,12266
6701,12220
5955,12220
5724,12266
5528,12397
5397,12593
5351,12824
2976,12824
2976,12265
1992,12265
1992,11542
2976,11542
2976,11092
5365,11092
5365,11801
5382,11893
5437,11978
5520,12035
5620,12056
7037,12056
7130,12038
7215,11983
7272,11900
7292,11801
7292,11328
7727,11328
7727,11958
7744,12051
7799,12136
7883,12193
7982,12213
8612,12213
8704,12196
8789,12141
8847,12057
8867,11958
8867,11643
10721,11643
10764,11859
10886,12043
11069,12165
11286,12208
11308,12208
11524,12165
11707,12043
11830,11859
11842,11800
11918,11985
12082,12150
12082,13893
11919,14056
11826,14278
11826,14519
11918,14741
12088,14911
12310,15003
12550,15004
12772,14912
12943,14742
13035,14520
13035,14279
13003,14202
17179,14202
17222,14418
17344,14602
17527,14724
17744,14767
18047,14767
18263,14724
18446,14602
18569,14418
18612,14202
18569,13986
18446,13803
18263,13680
18047,13637
17744,13637
17527,13680
17344,13803
17222,13986
17179,14202
13003,14202
12943,14057
12779,13893
12779,12149
26984,12149
26984,12441
27022,12533
27092,12603
27184,12641
27476,12641
27538,12579
27538,12087
27046,12087
26984,12149
12779,12149
12779,12149
12943,11986
13035,11764
13035,11524
12943,11301
12801,11159
13253,11159
13285,11322
13343,11409
13285,11495
13253,11659
13285,11822
13378,11961
13516,12054
13680,12086
13937,12086
14101,12054
14239,11961
14332,11822
14365,11659
14332,11495
14274,11409
14332,11322
14365,11159
14332,10995
14317,10974
14354,10886
14354,10771
14291,10709
13859,10709
13859,10717
13759,10717
13759,10709
13326,10709
13263,10771
13263,10886
13300,10974
13285,10995
13253,11159
12801,11159
12779,11137
12779,10432
13263,10432
13263,10546
13326,10609
13759,10609
13759,10294
13859,10294
13859,10609
14291,10609
14319,10582
16157,10582
16249,10804
16419,10974
16438,10982
16439,10989
16515,11102
16909,11496
16909,11496
16976,11541
17022,11571
17155,11598
17155,11598
22076,11598
22154,11788
22324,11958
22546,12051
22787,12051
23009,11959
23179,11789
23271,11567
23271,11327
23179,11104
23010,10934
22788,10842
22547,10842
22404,10901
17299,10901
17238,10840
17273,10805
17355,10609
17527,10724
17744,10767
18047,10767
18263,10724
18446,10602
18569,10418
18612,10202
18569,9986
18446,9803
18296,9702
18446,9602
18569,9418
18612,9202
20179,9202
20222,9418
20344,9602
20495,9702
20344,9803
20222,9986
20179,10202
20222,10418
20344,10602
20527,10724
20744,10767
21047,10767
21263,10724
21446,10602
21569,10418
21612,10202
21569,9986
21446,9803
21296,9702
21446,9602
21569,9418
21612,9202
21569,8986
21446,8803
21263,8680
21047,8637
20744,8637
20527,8680
20344,8803
20222,8986
20179,9202
18612,9202
18569,8986
18446,8803
18263,8680
18047,8637
17744,8637
17527,8680
17344,8803
17222,8986
17179,9202
17222,9418
17344,9602
17495,9702
17344,9803
17222,9986
17208,10054
17104,9950
16882,9858
16642,9858
16419,9949
16249,10119
16157,10341
16157,10582
14319,10582
14354,10546
14354,10432
14316,10340
14245,10270
14154,10232
13921,10232
13859,10294
13759,10294
13696,10232
13464,10232
13372,10270
13301,10340
13263,10432
12779,10432
12779,9197
12943,9033
13035,8811
13035,8571
12943,8349
12773,8178
12551,8086
12311,8086
12089,8178
11919,8348
11826,8570
11826,8810
11918,9032
12082,9197
12082,11137
11919,11300
11842,11486
11830,11427
11707,11244
11524,11121
11308,11078
11286,11078
11069,11121
10886,11244
10764,11427
10721,11643
8867,11643
8867,11328
8849,11236
8794,11151
8711,11093
8612,11073
7982,11073
7889,11091
7804,11146
7747,11229
7727,11328
7292,11328
7292,11092
7274,10999
7220,10914
7136,10857
7037,10837
5620,10837
5527,10855
5442,10909
5385,10993
5365,11092
2976,11092
2976,10564
1472,10564
1472,10606
488,10606
309,10606
309,10147
7727,10147
7727,10777
7744,10870
7799,10955
7883,11012
7982,11032
8612,11032
8704,11015
8789,10960
8847,10876
8867,10777
8867,10462
10721,10462
10764,10678
10886,10862
11069,10984
11286,11027
11308,11027
11524,10984
11707,10862
11830,10678
11873,10462
11830,10246
11707,10063
11524,9940
11308,9897
11286,9897
11069,9940
10886,10063
10764,10246
10721,10462
8867,10462
8867,10147
8849,10054
8794,9969
8711,9912
8612,9892
7982,9892
7889,9910
7804,9964
7747,10048
7727,10147
309,10147
309,9433
1795,9433
1795,9053
2779,9053
2779,8494
5351,8494
5397,8725
5528,8921
5724,9052
5955,9098
6701,9098
6933,9052
7129,8921
7260,8725
7306,8494
7260,8262
7129,8066
6933,7935
6701,7889
5955,7889
5724,7935
5528,8066
5397,8262
5351,8494
2779,8494
2779,7934
1795,7934
1795,7211
2779,7211
2779,6761
5365,6761
5365,7470
5382,7563
5437,7648
5520,7705
5620,7725
7037,7725
7130,7707
7215,7653
7272,7569
7292,7470
7292,6761
7274,6669
7223,6588
7777,6588
7820,6804
7943,6988
8093,7088
7943,7189
7820,7372
7777,7588
7820,7804
7943,7988
8126,8110
8342,8153
8645,8153
8861,8110
9045,7988
9167,7804
9210,7588
9167,7372
9045,7189
8894,7088
9045,6988
9167,6804
9210,6588
10777,6588
10820,6804
10943,6988
11093,7088
10943,7189
10820,7372
10777,7588
10820,7804
10943,7988
11126,8110
11342,8153
11645,8153
11861,8110
12045,7988
12167,7804
12210,7588
12167,7372
12045,7189
11894,7088
12045,6988
12167,6804
12210,6588
12698,6588
12741,6804
12864,6988
13014,7088
12864,7189
12741,7372
12698,7588
12741,7804
12864,7988
13047,8110
13263,8153
13566,8153
13783,8110
13966,7988
14088,7804
14131,7588
14088,7372
13966,7189
13815,7088
13966,6988
14088,6804
14131,6588
15698,6588
15741,6804
15864,6988
16014,7088
15864,7189
15741,7372
15698,7588
15741,7804
15864,7988
16047,8110
16263,8153
16566,8153
16783,8110
16966,7988
17088,7804
17131,7588
17088,7372
16966,7189
16815,7088
16966,6988
17088,6804
17131,6588
17088,6372
16966,6189
16783,6066
16566,6023
16263,6023
16047,6066
15864,6189
15741,6372
15698,6588
14131,6588
14088,6372
13966,6189
13783,6066
13566,6023
13263,6023
13047,6066
12864,6189
12741,6372
12698,6588
12210,6588
12167,6372
12081,6243
12088,6250
12310,6342
12550,6342
12772,6250
12943,6080
13035,5858
13035,5626
13985,4676
14385,4676
14477,4898
14647,5069
14869,5161
15101,5161
15728,5787
15728,5787
15841,5863
15863,5867
15974,5889
15974,5889
18782,5889
22063,9170
22062,9401
22154,9623
22324,9793
22546,9885
22787,9885
23009,9794
23179,9624
23271,9402
23271,9297
23449,9297
23493,9520
23620,9710
23750,9797
23620,9883
23493,10073
23449,10297
23493,10520
23620,10710
23750,10797
23620,10883
23493,11073
23449,11297
23493,11520
23620,11710
23810,11837
24033,11881
24056,11881
24280,11837
24470,11710
24521,11633
26984,11633
26984,11924
27046,11987
27538,11987
27538,11495
27638,11495
27638,11987
27646,11987
27646,12087
27638,12087
27638,12579
27701,12641
27992,12641
28084,12603
28154,12533
28176,12480
28245,12549
28467,12641
28708,12641
28930,12550
29100,12380
29192,12158
29193,11917
29101,11695
28931,11525
28709,11433
28468,11432
28246,11524
28176,11594
28154,11541
28084,11471
27992,11433
27701,11433
27638,11495
27538,11495
27476,11433
27184,11433
27092,11471
27022,11541
26984,11633
24521,11633
24596,11520
24641,11297
24596,11073
24470,10883
24340,10797
24470,10710
24596,10520
24641,10297
24596,10073
24470,9883
24340,9797
24470,9710
24596,9520
24641,9297
24596,9073
24499,8927
26979,8927
26979,9635
26996,9728
27051,9813
27135,9870
27234,9890
27942,9890
28035,9873
28120,9818
28177,9734
28181,9714
28231,9768
28444,9868
28538,9821
28538,9331
28530,9331
28530,9231
28538,9231
28538,8741
28638,8741
28638,9231
28646,9231
28646,9331
28638,9331
28638,9821
28732,9868
28945,9768
29086,9615
29149,9708
29345,9839
29576,9885
29600,9885
29831,9839
30027,9708
30158,9512
30204,9281
30158,9050
30027,8854
29831,8723
29600,8677
29576,8677
29345,8723
29149,8854
29086,8947
28945,8794
28732,8694
28638,8741
28538,8741
28444,8694
28231,8794
28182,8847
28180,8834
28125,8749
28042,8692
27942,8672
27234,8672
27141,8689
27056,8744
26999,8827
26979,8927
24499,8927
24470,8883
24453,8872
24472,8869
24557,8814
24614,8731
24634,8631
24634,7962
24617,7869
24562,7784
24479,7727
24379,7707
23710,7707
23617,7725
23532,7779
23475,7863
23455,7962
23455,8631
23473,8724
23527,8809
23611,8866
23638,8872
23620,8883
23493,9073
23449,9297
23271,9297
23271,9161
23179,8939
23010,8769
22788,8677
22555,8677
19173,5294
19060,5219
19038,5215
18927,5192
18927,5192
16118,5192
15594,4668
15594,4437
15571,4380
20094,4380
20094,5127
20140,5358
20271,5554
20467,5685
20698,5731
20930,5685
21126,5554
21257,5358
21303,5127
21303,4380
21472,4380
21472,5127
21518,5358
21649,5554
21845,5685
22076,5731
22308,5685
22504,5554
22635,5358
22681,5127
22681,4380
22850,4380
22850,5127
22896,5358
23027,5554
23223,5685
23454,5731
23685,5685
23882,5554
24013,5358
24059,5127
24059,4380
24013,4149
23943,4045
24223,4045
24223,5462
24240,5555
24295,5640
24379,5697
24478,5717
25187,5717
25279,5700
25364,5645
25421,5561
25441,5462
25441,4045
25424,3952
25369,3867
25286,3810
25187,3790
24478,3790
24385,3807
24300,3862
24243,3946
24223,4045
23943,4045
23882,3953
23685,3822
23454,3776
23223,3822
23027,3953
22896,4149
22850,4380
22681,4380
22635,4149
22504,3953
22308,3822
22076,3776
21845,3822
21649,3953
21518,4149
21472,4380
21303,4380
21257,4149
21126,3953
20930,3822
20698,3776
20467,3822
20271,3953
20140,4149
20094,4380
15571,4380
15502,4215
15332,4045
15110,3952
14870,3952
14648,4044
14478,4214
14385,4436
14385,4676
13985,4676
15236,3425
15236,3425
15312,3312
15313,3305
15332,3298
15502,3128
15594,2906
15594,2665
15562,2588
15698,2588
15741,2804
15864,2988
16047,3110
16263,3153
16566,3153
16783,3110
16929,3012
16929,3101
17020,3324
17190,3494
17412,3586
17653,3586
17875,3494
17945,3425
17967,3478
18037,3548
18129,3586
18420,3586
18483,3524
18483,3032
18583,3032
18583,3524
18645,3586
18937,3586
19029,3548
19099,3478
19137,3386
19137,3094
19075,3032
18583,3032
18483,3032
18475,3032
18475,2932
18483,2932
18483,2440
18583,2440
18583,2932
19075,2932
19137,2869
19137,2722
27631,2722
27702,3081
27906,3386
28210,3589
28570,3661
28606,3661
28966,3589
29270,3386
29474,3081
29545,2722
29474,2363
29270,2058
28966,1854
28606,1783
28570,1783
28210,1854
27906,2058
27702,2363
27631,2722
19137,2722
19137,2578
19099,2486
19029,2416
18937,2377
18645,2377
18583,2440
18483,2440
18420,2377
18129,2377
18037,2416
17967,2486
17945,2539
17876,2470
17654,2378
17413,2377
17191,2469
17122,2539
17088,2372
16966,2189
16783,2066
16566,2023
16263,2023
16047,2066
15864,2189
15741,2372
15698,2588
15562,2588
15502,2443
15332,2273
15110,2181
14870,2180
14648,2272
14478,2442
14385,2664
14385,2905
14477,3127
14513,3163
12542,5133
12311,5133
12089,5225
11919,5395
11826,5617
11826,5857
11918,6080
11991,6153
11861,6066
11645,6023
11342,6023
11126,6066
10943,6189
10820,6372
10777,6588
9210,6588
9167,6372
9045,6189
8861,6066
8645,6023
8342,6023
8126,6066
7943,6189
7820,6372
7777,6588
7223,6588
7220,6584
7136,6526
7037,6506
5620,6506
5527,6524
5442,6579
5385,6662
5365,6761
2779,6761
2779,6233
1795,6233
1795,3224
309,3224
309,3094
5921,3094
5921,3386
5959,3478
6029,3548
6121,3586
6413,3586
6475,3524
6475,3032
5983,3032
5921,3094
309,3094
309,2578
5921,2578
5921,2869
5983,2932
6475,2932
6475,2440
6575,2440
6575,2932
6583,2932
6583,3032
6575,3032
6575,3524
6638,3586
6929,3586
7021,3548
7091,3478
7113,3425
7182,3494
7404,3586
7645,3586
7867,3494
8037,3325
8126,3110
8342,3153
8645,3153
8861,3110
9045,2988
9167,2804
9210,2588
10777,2588
10820,2804
10943,2988
11126,3110
11342,3153
11645,3153
11861,3110
12045,2988
12167,2804
12210,2588
12698,2588
12741,2804
12864,2988
13047,3110
13263,3153
13566,3153
13783,3110
13966,2988
14088,2804
14131,2588
14088,2372
13966,2189
13783,2066
13566,2023
13263,2023
13047,2066
12864,2189
12741,2372
12698,2588
12210,2588
12167,2372
12045,2189
11861,2066
11645,2023
11342,2023
11126,2066
10943,2189
10820,2372
10777,2588
9210,2588
9167,2372
9045,2189
8861,2066
8645,2023
8342,2023
8126,2066
7943,2189
7820,2372
7806,2444
7646,2378
7405,2377
7183,2469
7113,2539
7091,2486
7021,2416
6929,2377
6638,2377
6575,2440
6475,2440
6413,2377
6121,2377
6029,2416
5959,2486
5921,2578
309,2578
309,309
19366,309
19366,1598
" /> 
</g>
<g style="fill:#FFFFFF; fill-opacity:1.0; 
stroke:#FFFFFF; stroke-width:100; stroke-opacity:1; 
stroke-linecap:round; stroke-linejoin:round;">
</g>
<g style="fill:#FFFFFF; fill-opacity:1.0; 
stroke:#FFFFFF; stroke-width:0; stroke-opacity:1; 
stroke-linecap:round; stroke-linejoin:round;">
<circle cx="14990.2" cy="4557.09" r="196.85" /> 
</g>
<g style="fill:#FFFFFF; fill-opacity:1.0; 
stroke:#FFFFFF; stroke-width:39.3701; stroke-opacity:1; 
stroke-linecap:round; stroke-linejoin:round;">
</g>
<g style="fill:#FFFFFF; fill-opacity:1.0; 
stroke:#FFFFFF; stroke-width:0; stroke-opacity:1; 
stroke-linecap:round; stroke-linejoin:round;">
<circle cx="22667.3" cy="9281.5" r="196.85" /> 
</g>
<g style="fill:#FFFFFF; fill-opacity:1.0; 
stroke:#FFFFFF; stroke-width:39.3701; stroke-opacity:1; 
stroke-linecap:round; stroke-linejoin:round;">
</g>
<g style="fill:#FFFFFF; fill-opacity:1.0; 
stroke:#FFFFFF; stroke-width:0; stroke-opacity:1; 
stroke-linecap:round; stroke-linejoin:round;">
<circle cx="12431.1" cy="19320.9" r="196.85" /> 
</g>
<g style="fill:#FFFFFF; fill-opacity:1.0; 
stroke:#FFFFFF; stroke-width:39.3701; stroke-opacity:1; 
stroke-linecap:round; stroke-linejoin:round;">
</g>
<g style="fill:#FFFFFF; fill-opacity:1.0; 
stroke:#FFFFFF; stroke-width:0; stroke-opacity:1; 
stroke-linecap:round; stroke-linejoin:round;">
<circle cx="21879.9" cy="15580.7" r="196.85" /> 
</g>
<g style="fill:#FFFFFF; fill-opacity:1.0; 
stroke:#FFFFFF; stroke-width:39.3701; stroke-opacity:1; 
stroke-linecap:round; stroke-linejoin:round;">
</g>
<g style="fill:#FFFFFF; fill-opacity:1.0; 
stroke:#FFFFFF; stroke-width:0; stroke-opacity:1; 
stroke-linecap:round; stroke-linejoin:round;">
<circle cx="16761.8" cy="10462.6" r="196.85" /> 
</g>
<g style="fill:#FFFFFF; fill-opacity:1.0; 
stroke:#FFFFFF; stroke-width:39.3701; stroke-opacity:1; 
stroke-linecap:round; stroke-linejoin:round;">
</g>
<g style="fill:#FFFFFF; fill-opacity:1.0; 
stroke:#FFFFFF; stroke-width:0; stroke-opacity:1; 
stroke-linecap:round; stroke-linejoin:round;">
<circle cx="22667.3" cy="11446.9" r="196.85" /> 
</g>
<g style="fill:#FFFFFF; fill-opacity:1.0; 
stroke:#FFFFFF; stroke-width:39.3701; stroke-opacity:1; 
stroke-linecap:round; stroke-linejoin:round;">
</g>
<g style="fill:#FFFFFF; fill-opacity:1.0; 
stroke:#FFFFFF; stroke-width:0; stroke-opacity:1; 
stroke-linecap:round; stroke-linejoin:round;">
<circle cx="12431.1" cy="14399.6" r="196.85" /> 
</g>
<g style="fill:#FFFFFF; fill-opacity:1.0; 
stroke:#FFFFFF; stroke-width:39.3701; stroke-opacity:1; 
stroke-linecap:round; stroke-linejoin:round;">
</g>
<g style="fill:#FFFFFF; fill-opacity:1.0; 
stroke:#FFFFFF; stroke-width:0; stroke-opacity:1; 
stroke-linecap:round; stroke-linejoin:round;">
<circle cx="12431.1" cy="11643.7" r="196.85" /> 
</g>
<g style="fill:#FFFFFF; fill-opacity:1.0; 
stroke:#FFFFFF; stroke-width:39.3701; stroke-opacity:1; 
stroke-linecap:round; stroke-linejoin:round;">
</g>
<g style="fill:#FFFFFF; fill-opacity:1.0; 
stroke:#FFFFFF; stroke-width:0; stroke-opacity:1; 
stroke-linecap:round; stroke-linejoin:round;">
<circle cx="12431.1" cy="8690.95" r="196.85" /> 
</g>
<g style="fill:#FFFFFF; fill-opacity:1.0; 
stroke:#FFFFFF; stroke-width:39.3701; stroke-opacity:1; 
stroke-linecap:round; stroke-linejoin:round;">
</g>
<g style="fill:#FFFFFF; fill-opacity:1.0; 
stroke:#FFFFFF; stroke-width:0; stroke-opacity:1; 
stroke-linecap:round; stroke-linejoin:round;">
<circle cx="12431.1" cy="5738.19" r="196.85" /> 
</g>
<g style="fill:#FFFFFF; fill-opacity:1.0; 
stroke:#FFFFFF; stroke-width:39.3701; stroke-opacity:1; 
stroke-linecap:round; stroke-linejoin:round;">
</g>
<g style="fill:#FFFFFF; fill-opacity:1.0; 
stroke:#FFFFFF; stroke-width:0; stroke-opacity:1; 
stroke-linecap:round; stroke-linejoin:round;">
<circle cx="14990.2" cy="2785.43" r="196.85" /> 
</g>
<g style="fill:#FFFFFF; fill-opacity:1.0; 
stroke:#FFFFFF; stroke-width:39.3701; stroke-opacity:1; 
stroke-linecap:round; stroke-linejoin:round;">
</g>
<g style="fill:#FFFFFF; fill-opacity:1.0; 
stroke:#FFFFFF; stroke-width:0; stroke-opacity:1; 
stroke-linecap:round; stroke-linejoin:round;">
<circle cx="14990.2" cy="18139.8" r="196.85" /> 
</g>
<g style="fill:#FFFFFF; fill-opacity:1.0; 
stroke:#FFFFFF; stroke-width:39.3701; stroke-opacity:1; 
stroke-linecap:round; stroke-linejoin:round;">
</g>
<g style="fill:#FFFFFF; fill-opacity:1.0; 
stroke:#FFFFFF; stroke-width:0; stroke-opacity:1; 
stroke-linecap:round; stroke-linejoin:round;">
<circle cx="30344.5" cy="14596.5" r="196.85" /> 
</g>
<g style="fill:#FFFFFF; fill-opacity:1.0; 
stroke:#FFFFFF; stroke-width:39.3701; stroke-opacity:1; 
stroke-linecap:round; stroke-linejoin:round;">
</g>
<g style="fill:#FFFFFF; fill-opacity:1.0; 
stroke:#FFFFFF; stroke-width:0; stroke-opacity:1; 
stroke-linecap:round; stroke-linejoin:round;">
<circle cx="13565" cy="20895.7" r="196.85" /> 
</g>
<g style="fill:#FFFFFF; fill-opacity:1.0; 
stroke:#FFFFFF; stroke-width:39.3701; stroke-opacity:1; 
stroke-linecap:round; stroke-linejoin:round;">
</g>
<g style="fill:#FFFFFF; fill-opacity:1.0; 
stroke:#FFFFFF; stroke-width:0; stroke-opacity:1; 
stroke-linecap:round; stroke-linejoin:round;">
<circle cx="13565" cy="16895.7" r="196.85" /> 
</g>
<g style="fill:#FFFFFF; fill-opacity:1.0; 
stroke:#FFFFFF; stroke-width:39.3701; stroke-opacity:1; 
stroke-linecap:round; stroke-linejoin:round;">
</g>
<g style="fill:#FFFFFF; fill-opacity:1.0; 
stroke:#FFFFFF; stroke-width:0; stroke-opacity:1; 
stroke-linecap:round; stroke-linejoin:round;">
<circle cx="16565" cy="20895.7" r="196.85" /> 
</g>
<g style="fill:#FFFFFF; fill-opacity:1.0; 
stroke:#FFFFFF; stroke-width:39.3701; stroke-opacity:1; 
stroke-linecap:round; stroke-linejoin:round;">
</g>
<g style="fill:#FFFFFF; fill-opacity:1.0; 
stroke:#FFFFFF; stroke-width:0; stroke-opacity:1; 
stroke-linecap:round; stroke-linejoin:round;">
<circle cx="16565" cy="16895.7" r="196.85" /> 
</g>
<g style="fill:#FFFFFF; fill-opacity:1.0; 
stroke:#FFFFFF; stroke-width:39.3701; stroke-opacity:1; 
stroke-linecap:round; stroke-linejoin:round;">
</g>
<g style="fill:#FFFFFF; fill-opacity:1.0; 
stroke:#FFFFFF; stroke-width:0; stroke-opacity:1; 
stroke-linecap:round; stroke-linejoin:round;">
<circle cx="13565" cy="15895.7" r="196.85" /> 
</g>
<g style="fill:#FFFFFF; fill-opacity:1.0; 
stroke:#FFFFFF; stroke-width:39.3701; stroke-opacity:1; 
stroke-linecap:round; stroke-linejoin:round;">
</g>
<g style="fill:#FFFFFF; fill-opacity:1.0; 
stroke:#FFFFFF; stroke-width:0; stroke-opacity:1; 
stroke-linecap:round; stroke-linejoin:round;">
<circle cx="16565" cy="15895.7" r="196.85" /> 
</g>
<g style="fill:#FFFFFF; fill-opacity:1.0; 
stroke:#FFFFFF; stroke-width:39.3701; stroke-opacity:1; 
stroke-linecap:round; stroke-linejoin:round;">
</g>
<g style="fill:#FFFFFF; fill-opacity:1.0; 
stroke:#FFFFFF; stroke-width:0; stroke-opacity:1; 
stroke-linecap:round; stroke-linejoin:round;">
<circle cx="16415.4" cy="2588.58" r="196.85" /> 
</g>
<g style="fill:#FFFFFF; fill-opacity:1.0; 
stroke:#FFFFFF; stroke-width:39.3701; stroke-opacity:1; 
stroke-linecap:round; stroke-linejoin:round;">
</g>
<g style="fill:#FFFFFF; fill-opacity:1.0; 
stroke:#FFFFFF; stroke-width:0; stroke-opacity:1; 
stroke-linecap:round; stroke-linejoin:round;">
<circle cx="16415.4" cy="6588.58" r="196.85" /> 
</g>
<g style="fill:#FFFFFF; fill-opacity:1.0; 
stroke:#FFFFFF; stroke-width:39.3701; stroke-opacity:1; 
stroke-linecap:round; stroke-linejoin:round;">
</g>
<g style="fill:#FFFFFF; fill-opacity:1.0; 
stroke:#FFFFFF; stroke-width:0; stroke-opacity:1; 
stroke-linecap:round; stroke-linejoin:round;">
<circle cx="13415.4" cy="2588.58" r="196.85" /> 
</g>
<g style="fill:#FFFFFF; fill-opacity:1.0; 
stroke:#FFFFFF; stroke-width:39.3701; stroke-opacity:1; 
stroke-linecap:round; stroke-linejoin:round;">
</g>
<g style="fill:#FFFFFF; fill-opacity:1.0; 
stroke:#FFFFFF; stroke-width:0; stroke-opacity:1; 
stroke-linecap:round; stroke-linejoin:round;">
<circle cx="13415.4" cy="6588.58" r="196.85" /> 
</g>
<g style="fill:#FFFFFF; fill-opacity:1.0; 
stroke:#FFFFFF; stroke-width:39.3701; stroke-opacity:1; 
stroke-linecap:round; stroke-linejoin:round;">
</g>
<g style="fill:#FFFFFF; fill-opacity:1.0; 
stroke:#FFFFFF; stroke-width:0; stroke-opacity:1; 
stroke-linecap:round; stroke-linejoin:round;">
<circle cx="16415.4" cy="7588.58" r="196.85" /> 
</g>
<g style="fill:#FFFFFF; fill-opacity:1.0; 
stroke:#FFFFFF; stroke-width:39.3701; stroke-opacity:1; 
stroke-linecap:round; stroke-linejoin:round;">
</g>
<g style="fill:#FFFFFF; fill-opacity:1.0; 
stroke:#FFFFFF; stroke-width:0; stroke-opacity:1; 
stroke-linecap:round; stroke-linejoin:round;">
<circle cx="13415.4" cy="7588.58" r="196.85" /> 
</g>
<g style="fill:#FFFFFF; fill-opacity:1.0; 
stroke:#FFFFFF; stroke-width:39.3701; stroke-opacity:1; 
stroke-linecap:round; stroke-linejoin:round;">
</g>
<g style="fill:#FFFFFF; fill-opacity:1.0; 
stroke:#FFFFFF; stroke-width:0; stroke-opacity:1; 
stroke-linecap:round; stroke-linejoin:round;">
<circle cx="18730.3" cy="20305.1" r="177.165" /> 
</g>
<g style="fill:#FFFFFF; fill-opacity:1.0; 
stroke:#FFFFFF; stroke-width:39.3701; stroke-opacity:1; 
stroke-linecap:round; stroke-linejoin:round;">
</g>
<g style="fill:#FFFFFF; fill-opacity:1.0; 
stroke:#FFFFFF; stroke-width:0; stroke-opacity:1; 
stroke-linecap:round; stroke-linejoin:round;">
<circle cx="17730.3" cy="20305.1" r="177.165" /> 
</g>
<g style="fill:#FFFFFF; fill-opacity:1.0; 
stroke:#FFFFFF; stroke-width:39.3701; stroke-opacity:1; 
stroke-linecap:round; stroke-linejoin:round;">
</g>
<g style="fill:#FFFFFF; fill-opacity:1.0; 
stroke:#FFFFFF; stroke-width:0; stroke-opacity:1; 
stroke-linecap:round; stroke-linejoin:round;">
<circle cx="11494.1" cy="2588.58" r="196.85" /> 
</g>
<g style="fill:#FFFFFF; fill-opacity:1.0; 
stroke:#FFFFFF; stroke-width:39.3701; stroke-opacity:1; 
stroke-linecap:round; stroke-linejoin:round;">
</g>
<g style="fill:#FFFFFF; fill-opacity:1.0; 
stroke:#FFFFFF; stroke-width:0; stroke-opacity:1; 
stroke-linecap:round; stroke-linejoin:round;">
<circle cx="11494.1" cy="6588.58" r="196.85" /> 
</g>
<g style="fill:#FFFFFF; fill-opacity:1.0; 
stroke:#FFFFFF; stroke-width:39.3701; stroke-opacity:1; 
stroke-linecap:round; stroke-linejoin:round;">
</g>
<g style="fill:#FFFFFF; fill-opacity:1.0; 
stroke:#FFFFFF; stroke-width:0; stroke-opacity:1; 
stroke-linecap:round; stroke-linejoin:round;">
<circle cx="8494.09" cy="2588.58" r="196.85" /> 
</g>
<g style="fill:#FFFFFF; fill-opacity:1.0; 
stroke:#FFFFFF; stroke-width:39.3701; stroke-opacity:1; 
stroke-linecap:round; stroke-linejoin:round;">
</g>
<g style="fill:#FFFFFF; fill-opacity:1.0; 
stroke:#FFFFFF; stroke-width:0; stroke-opacity:1; 
stroke-linecap:round; stroke-linejoin:round;">
<circle cx="8494.09" cy="6588.58" r="196.85" /> 
</g>
<g style="fill:#FFFFFF; fill-opacity:1.0; 
stroke:#FFFFFF; stroke-width:39.3701; stroke-opacity:1; 
stroke-linecap:round; stroke-linejoin:round;">
</g>
<g style="fill:#FFFFFF; fill-opacity:1.0; 
stroke:#FFFFFF; stroke-width:0; stroke-opacity:1; 
stroke-linecap:round; stroke-linejoin:round;">
<circle cx="11494.1" cy="7588.58" r="196.85" /> 
</g>
<g style="fill:#FFFFFF; fill-opacity:1.0; 
stroke:#FFFFFF; stroke-width:39.3701; stroke-opacity:1; 
stroke-linecap:round; stroke-linejoin:round;">
</g>
<g style="fill:#FFFFFF; fill-opacity:1.0; 
stroke:#FFFFFF; stroke-width:0; stroke-opacity:1; 
stroke-linecap:round; stroke-linejoin:round;">
<circle cx="8494.09" cy="7588.58" r="196.85" /> 
</g>
<g style="fill:#FFFFFF; fill-opacity:1.0; 
stroke:#FFFFFF; stroke-width:39.3701; stroke-opacity:1; 
stroke-linecap:round; stroke-linejoin:round;">
</g>
<g style="fill:#FFFFFF; fill-opacity:1.0; 
stroke:#FFFFFF; stroke-width:0; stroke-opacity:1; 
stroke-linecap:round; stroke-linejoin:round;">
<circle cx="6328.74" cy="20305.1" r="177.165" /> 
</g>
<g style="fill:#FFFFFF; fill-opacity:1.0; 
stroke:#FFFFFF; stroke-width:39.3701; stroke-opacity:1; 
stroke-linecap:round; stroke-linejoin:round;">
</g>
<g style="fill:#FFFFFF; fill-opacity:1.0; 
stroke:#FFFFFF; stroke-width:0; stroke-opacity:1; 
stroke-linecap:round; stroke-linejoin:round;">
<circle cx="7328.74" cy="20305.1" r="177.165" /> 
</g>
<g style="fill:#FFFFFF; fill-opacity:1.0; 
stroke:#FFFFFF; stroke-width:39.3701; stroke-opacity:1; 
stroke-linecap:round; stroke-linejoin:round;">
</g>
<g style="fill:#FFFFFF; fill-opacity:1.0; 
stroke:#FFFFFF; stroke-width:0; stroke-opacity:1; 
stroke-linecap:round; stroke-linejoin:round;">
<circle cx="18533.5" cy="2982.28" r="177.165" /> 
</g>
<g style="fill:#FFFFFF; fill-opacity:1.0; 
stroke:#FFFFFF; stroke-width:39.3701; stroke-opacity:1; 
stroke-linecap:round; stroke-linejoin:round;">
</g>
<g style="fill:#FFFFFF; fill-opacity:1.0; 
stroke:#FFFFFF; stroke-width:0; stroke-opacity:1; 
stroke-linecap:round; stroke-linejoin:round;">
<circle cx="17533.5" cy="2982.28" r="177.165" /> 
</g>
<g style="fill:#FFFFFF; fill-opacity:1.0; 
stroke:#FFFFFF; stroke-width:39.3701; stroke-opacity:1; 
stroke-linecap:round; stroke-linejoin:round;">
</g>
<g style="fill:#FFFFFF; fill-opacity:1.0; 
stroke:#FFFFFF; stroke-width:0; stroke-opacity:1; 
stroke-linecap:round; stroke-linejoin:round;">
<circle cx="6525.59" cy="2982.28" r="177.165" /> 
</g>
<g style="fill:#FFFFFF; fill-opacity:1.0; 
stroke:#FFFFFF; stroke-width:39.3701; stroke-opacity:1; 
stroke-linecap:round; stroke-linejoin:round;">
</g>
<g style="fill:#FFFFFF; fill-opacity:1.0; 
stroke:#FFFFFF; stroke-width:0; stroke-opacity:1; 
stroke-linecap:round; stroke-linejoin:round;">
<circle cx="7525.59" cy="2982.28" r="177.165" /> 
</g>
<g style="fill:#FFFFFF; fill-opacity:1.0; 
stroke:#FFFFFF; stroke-width:39.3701; stroke-opacity:1; 
stroke-linecap:round; stroke-linejoin:round;">
</g>
<g style="fill:#FFFFFF; fill-opacity:1.0; 
stroke:#FFFFFF; stroke-width:0; stroke-opacity:1; 
stroke-linecap:round; stroke-linejoin:round;">
<circle cx="4360.24" cy="14990.2" r="196.85" /> 
</g>
<g style="fill:#FFFFFF; fill-opacity:1.0; 
stroke:#FFFFFF; stroke-width:39.3701; stroke-opacity:1; 
stroke-linecap:round; stroke-linejoin:round;">
</g>
<g style="fill:#FFFFFF; fill-opacity:1.0; 
stroke:#FFFFFF; stroke-width:0; stroke-opacity:1; 
stroke-linecap:round; stroke-linejoin:round;">
<circle cx="4360.24" cy="15990.2" r="196.85" /> 
</g>
<g style="fill:#FFFFFF; fill-opacity:1.0; 
stroke:#FFFFFF; stroke-width:39.3701; stroke-opacity:1; 
stroke-linecap:round; stroke-linejoin:round;">
</g>
<g style="fill:#FFFFFF; fill-opacity:1.0; 
stroke:#FFFFFF; stroke-width:0; stroke-opacity:1; 
stroke-linecap:round; stroke-linejoin:round;">
<circle cx="4360.24" cy="16990.2" r="196.85" /> 
</g>
<g style="fill:#FFFFFF; fill-opacity:1.0; 
stroke:#FFFFFF; stroke-width:39.3701; stroke-opacity:1; 
stroke-linecap:round; stroke-linejoin:round;">
</g>
<g style="fill:#FFFFFF; fill-opacity:1.0; 
stroke:#FFFFFF; stroke-width:0; stroke-opacity:1; 
stroke-linecap:round; stroke-linejoin:round;">
<circle cx="4360.24" cy="17990.2" r="196.85" /> 
</g>
<g style="fill:#FFFFFF; fill-opacity:1.0; 
stroke:#FFFFFF; stroke-width:39.3701; stroke-opacity:1; 
stroke-linecap:round; stroke-linejoin:round;">
</g>
<g style="fill:#FFFFFF; fill-opacity:1.0; 
stroke:#FFFFFF; stroke-width:0; stroke-opacity:1; 
stroke-linecap:round; stroke-linejoin:round;">
<circle cx="4360.24" cy="18990.2" r="196.85" /> 
</g>
<g style="fill:#FFFFFF; fill-opacity:1.0; 
stroke:#FFFFFF; stroke-width:39.3701; stroke-opacity:1; 
stroke-linecap:round; stroke-linejoin:round;">
</g>
<g style="fill:#FFFFFF; fill-opacity:1.0; 
stroke:#FFFFFF; stroke-width:0; stroke-opacity:1; 
stroke-linecap:round; stroke-linejoin:round;">
<circle cx="4360.24" cy="19990.2" r="196.85" /> 
</g>
<g style="fill:#FFFFFF; fill-opacity:1.0; 
stroke:#FFFFFF; stroke-width:39.3701; stroke-opacity:1; 
stroke-linecap:round; stroke-linejoin:round;">
</g>
<g style="fill:#FFFFFF; fill-opacity:1.0; 
stroke:#FFFFFF; stroke-width:0; stroke-opacity:1; 
stroke-linecap:round; stroke-linejoin:round;">
<circle cx="8446.85" cy="20895.7" r="196.85" /> 
</g>
<g style="fill:#FFFFFF; fill-opacity:1.0; 
stroke:#FFFFFF; stroke-width:39.3701; stroke-opacity:1; 
stroke-linecap:round; stroke-linejoin:round;">
</g>
<g style="fill:#FFFFFF; fill-opacity:1.0; 
stroke:#FFFFFF; stroke-width:0; stroke-opacity:1; 
stroke-linecap:round; stroke-linejoin:round;">
<circle cx="8446.85" cy="16895.7" r="196.85" /> 
</g>
<g style="fill:#FFFFFF; fill-opacity:1.0; 
stroke:#FFFFFF; stroke-width:39.3701; stroke-opacity:1; 
stroke-linecap:round; stroke-linejoin:round;">
</g>
<g style="fill:#FFFFFF; fill-opacity:1.0; 
stroke:#FFFFFF; stroke-width:0; stroke-opacity:1; 
stroke-linecap:round; stroke-linejoin:round;">
<circle cx="11446.9" cy="20895.7" r="196.85" /> 
</g>
<g style="fill:#FFFFFF; fill-opacity:1.0; 
stroke:#FFFFFF; stroke-width:39.3701; stroke-opacity:1; 
stroke-linecap:round; stroke-linejoin:round;">
</g>
<g style="fill:#FFFFFF; fill-opacity:1.0; 
stroke:#FFFFFF; stroke-width:0; stroke-opacity:1; 
stroke-linecap:round; stroke-linejoin:round;">
<circle cx="11446.9" cy="16895.7" r="196.85" /> 
</g>
<g style="fill:#FFFFFF; fill-opacity:1.0; 
stroke:#FFFFFF; stroke-width:39.3701; stroke-opacity:1; 
stroke-linecap:round; stroke-linejoin:round;">
</g>
<g style="fill:#FFFFFF; fill-opacity:1.0; 
stroke:#FFFFFF; stroke-width:0; stroke-opacity:1; 
stroke-linecap:round; stroke-linejoin:round;">
<circle cx="8446.85" cy="15895.7" r="196.85" /> 
</g>
<g style="fill:#FFFFFF; fill-opacity:1.0; 
stroke:#FFFFFF; stroke-width:39.3701; stroke-opacity:1; 
stroke-linecap:round; stroke-linejoin:round;">
</g>
<g style="fill:#FFFFFF; fill-opacity:1.0; 
stroke:#FFFFFF; stroke-width:0; stroke-opacity:1; 
stroke-linecap:round; stroke-linejoin:round;">
<circle cx="11446.9" cy="15895.7" r="196.85" /> 
</g>
<g style="fill:#FFFFFF; fill-opacity:1.0; 
stroke:#FFFFFF; stroke-width:39.3701; stroke-opacity:1; 
stroke-linecap:round; stroke-linejoin:round;">
</g>
<g style="fill:#FFFFFF; fill-opacity:1.0; 
stroke:#FFFFFF; stroke-width:0; stroke-opacity:1; 
stroke-linecap:round; stroke-linejoin:round;">
<circle cx="17895.7" cy="14202.8" r="196.85" /> 
</g>
<g style="fill:#FFFFFF; fill-opacity:1.0; 
stroke:#FFFFFF; stroke-width:39.3701; stroke-opacity:1; 
stroke-linecap:round; stroke-linejoin:round;">
</g>
<g style="fill:#FFFFFF; fill-opacity:1.0; 
stroke:#FFFFFF; stroke-width:0; stroke-opacity:1; 
stroke-linecap:round; stroke-linejoin:round;">
<circle cx="17895.7" cy="10202.8" r="196.85" /> 
</g>
<g style="fill:#FFFFFF; fill-opacity:1.0; 
stroke:#FFFFFF; stroke-width:39.3701; stroke-opacity:1; 
stroke-linecap:round; stroke-linejoin:round;">
</g>
<g style="fill:#FFFFFF; fill-opacity:1.0; 
stroke:#FFFFFF; stroke-width:0; stroke-opacity:1; 
stroke-linecap:round; stroke-linejoin:round;">
<circle cx="20895.7" cy="14202.8" r="196.85" /> 
</g>
<g style="fill:#FFFFFF; fill-opacity:1.0; 
stroke:#FFFFFF; stroke-width:39.3701; stroke-opacity:1; 
stroke-linecap:round; stroke-linejoin:round;">
</g>
<g style="fill:#FFFFFF; fill-opacity:1.0; 
stroke:#FFFFFF; stroke-width:0; stroke-opacity:1; 
stroke-linecap:round; stroke-linejoin:round;">
<circle cx="20895.7" cy="10202.8" r="196.85" /> 
</g>
<g style="fill:#FFFFFF; fill-opacity:1.0; 
stroke:#FFFFFF; stroke-width:39.3701; stroke-opacity:1; 
stroke-linecap:round; stroke-linejoin:round;">
</g>
<g style="fill:#FFFFFF; fill-opacity:1.0; 
stroke:#FFFFFF; stroke-width:0; stroke-opacity:1; 
stroke-linecap:round; stroke-linejoin:round;">
<circle cx="17895.7" cy="9202.76" r="196.85" /> 
</g>
<g style="fill:#FFFFFF; fill-opacity:1.0; 
stroke:#FFFFFF; stroke-width:39.3701; stroke-opacity:1; 
stroke-linecap:round; stroke-linejoin:round;">
</g>
<g style="fill:#FFFFFF; fill-opacity:1.0; 
stroke:#FFFFFF; stroke-width:0; stroke-opacity:1; 
stroke-linecap:round; stroke-linejoin:round;">
<circle cx="20895.7" cy="9202.76" r="196.85" /> 
</g>
<g style="fill:#FFFFFF; fill-opacity:1.0; 
stroke:#FFFFFF; stroke-width:39.3701; stroke-opacity:1; 
stroke-linecap:round; stroke-linejoin:round;">
</g>
<g style="fill:#FFFFFF; fill-opacity:1.0; 
stroke:#FFFFFF; stroke-width:0; stroke-opacity:1; 
stroke-linecap:round; stroke-linejoin:round;">
<circle cx="13809.1" cy="11159.4" r="118.11" /> 
</g>
<g style="fill:#FFFFFF; fill-opacity:1.0; 
stroke:#FFFFFF; stroke-width:39.3701; stroke-opacity:1; 
stroke-linecap:round; stroke-linejoin:round;">
</g>
<g style="fill:#FFFFFF; fill-opacity:1.0; 
stroke:#FFFFFF; stroke-width:0; stroke-opacity:1; 
stroke-linecap:round; stroke-linejoin:round;">
<circle cx="13809.1" cy="11659.4" r="118.11" /> 
</g>
<g style="fill:#FFFFFF; fill-opacity:1.0; 
stroke:#FFFFFF; stroke-width:39.3701; stroke-opacity:1; 
stroke-linecap:round; stroke-linejoin:round;">
</g>
<g style="fill:#FFFFFF; fill-opacity:1.0; 
stroke:#FFFFFF; stroke-width:0; stroke-opacity:1; 
stroke-linecap:round; stroke-linejoin:round;">
<circle cx="13809.1" cy="10659.4" r="118.11" /> 
</g>
<g style="fill:#FFFFFF; fill-opacity:1.0; 
stroke:#FFFFFF; stroke-width:39.3701; stroke-opacity:1; 
stroke-linecap:round; stroke-linejoin:round;">
</g>
<g style="fill:#FFFFFF; fill-opacity:1.0; 
stroke:#FFFFFF; stroke-width:0; stroke-opacity:1; 
stroke-linecap:round; stroke-linejoin:round;">
<circle cx="28588.6" cy="2722.44" r="688.976" /> 
</g>
<g style="fill:#FFFFFF; fill-opacity:1.0; 
stroke:#FFFFFF; stroke-width:39.3701; stroke-opacity:1; 
stroke-linecap:round; stroke-linejoin:round;">
</g>
<g style="fill:#FFFFFF; fill-opacity:1.0; 
stroke:#FFFFFF; stroke-width:0; stroke-opacity:1; 
stroke-linecap:round; stroke-linejoin:round;">
<circle cx="27588.6" cy="9281.5" r="196.85" /> 
</g>
<g style="fill:#FFFFFF; fill-opacity:1.0; 
stroke:#FFFFFF; stroke-width:39.3701; stroke-opacity:1; 
stroke-linecap:round; stroke-linejoin:round;">
</g>
<g style="fill:#FFFFFF; fill-opacity:1.0; 
stroke:#FFFFFF; stroke-width:0; stroke-opacity:1; 
stroke-linecap:round; stroke-linejoin:round;">
<circle cx="28588.6" cy="9281.5" r="196.85" /> 
</g>
<g style="fill:#FFFFFF; fill-opacity:1.0; 
stroke:#FFFFFF; stroke-width:39.3701; stroke-opacity:1; 
stroke-linecap:round; stroke-linejoin:round;">
</g>
<g style="fill:#FFFFFF; fill-opacity:1.0; 
stroke:#FFFFFF; stroke-width:0; stroke-opacity:1; 
stroke-linecap:round; stroke-linejoin:round;">
<circle cx="29588.6" cy="9281.5" r="196.85" /> 
</g>
<g style="fill:#FFFFFF; fill-opacity:1.0; 
stroke:#FFFFFF; stroke-width:39.3701; stroke-opacity:1; 
stroke-linecap:round; stroke-linejoin:round;">
</g>
<g style="fill:#FFFFFF; fill-opacity:1.0; 
stroke:#FFFFFF; stroke-width:0; stroke-opacity:1; 
stroke-linecap:round; stroke-linejoin:round;">
<circle cx="6328.74" cy="11446.9" r="236.22" /> 
</g>
<g style="fill:#FFFFFF; fill-opacity:1.0; 
stroke:#FFFFFF; stroke-width:39.3701; stroke-opacity:1; 
stroke-linecap:round; stroke-linejoin:round;">
</g>
<g style="fill:#FFFFFF; fill-opacity:1.0; 
stroke:#FFFFFF; stroke-width:0; stroke-opacity:1; 
stroke-linecap:round; stroke-linejoin:round;">
<circle cx="6328.74" cy="12824.8" r="236.22" /> 
</g>
<g style="fill:#FFFFFF; fill-opacity:1.0; 
stroke:#FFFFFF; stroke-width:39.3701; stroke-opacity:1; 
stroke-linecap:round; stroke-linejoin:round;">
</g>
<g style="fill:#FFFFFF; fill-opacity:1.0; 
stroke:#FFFFFF; stroke-width:0; stroke-opacity:1; 
stroke-linecap:round; stroke-linejoin:round;">
<circle cx="24832.7" cy="4753.94" r="236.22" /> 
</g>
<g style="fill:#FFFFFF; fill-opacity:1.0; 
stroke:#FFFFFF; stroke-width:39.3701; stroke-opacity:1; 
stroke-linecap:round; stroke-linejoin:round;">
</g>
<g style="fill:#FFFFFF; fill-opacity:1.0; 
stroke:#FFFFFF; stroke-width:0; stroke-opacity:1; 
stroke-linecap:round; stroke-linejoin:round;">
<circle cx="23454.7" cy="4753.94" r="236.22" /> 
</g>
<g style="fill:#FFFFFF; fill-opacity:1.0; 
stroke:#FFFFFF; stroke-width:39.3701; stroke-opacity:1; 
stroke-linecap:round; stroke-linejoin:round;">
</g>
<g style="fill:#FFFFFF; fill-opacity:1.0; 
stroke:#FFFFFF; stroke-width:0; stroke-opacity:1; 
stroke-linecap:round; stroke-linejoin:round;">
<circle cx="22076.8" cy="4753.94" r="236.22" /> 
</g>
<g style="fill:#FFFFFF; fill-opacity:1.0; 
stroke:#FFFFFF; stroke-width:39.3701; stroke-opacity:1; 
stroke-linecap:round; stroke-linejoin:round;">
</g>
<g style="fill:#FFFFFF; fill-opacity:1.0; 
stroke:#FFFFFF; stroke-width:0; stroke-opacity:1; 
stroke-linecap:round; stroke-linejoin:round;">
<circle cx="20698.8" cy="4753.94" r="236.22" /> 
</g>
<g style="fill:#FFFFFF; fill-opacity:1.0; 
stroke:#FFFFFF; stroke-width:39.3701; stroke-opacity:1; 
stroke-linecap:round; stroke-linejoin:round;">
</g>
<g style="fill:#FFFFFF; fill-opacity:1.0; 
stroke:#FFFFFF; stroke-width:0; stroke-opacity:1; 
stroke-linecap:round; stroke-linejoin:round;">
<circle cx="6328.74" cy="7116.14" r="236.22" /> 
</g>
<g style="fill:#FFFFFF; fill-opacity:1.0; 
stroke:#FFFFFF; stroke-width:39.3701; stroke-opacity:1; 
stroke-linecap:round; stroke-linejoin:round;">
</g>
<g style="fill:#FFFFFF; fill-opacity:1.0; 
stroke:#FFFFFF; stroke-width:0; stroke-opacity:1; 
stroke-linecap:round; stroke-linejoin:round;">
<circle cx="6328.74" cy="8494.09" r="236.22" /> 
</g>
<g style="fill:#FFFFFF; fill-opacity:1.0; 
stroke:#FFFFFF; stroke-width:39.3701; stroke-opacity:1; 
stroke-linecap:round; stroke-linejoin:round;">
</g>
<g style="fill:#FFFFFF; fill-opacity:1.0; 
stroke:#FFFFFF; stroke-width:0; stroke-opacity:1; 
stroke-linecap:round; stroke-linejoin:round;">
<circle cx="8297.24" cy="12824.8" r="157.48" /> 
</g>
<g style="fill:#FFFFFF; fill-opacity:1.0; 
stroke:#FFFFFF; stroke-width:39.3701; stroke-opacity:1; 
stroke-linecap:round; stroke-linejoin:round;">
</g>
<g style="fill:#FFFFFF; fill-opacity:1.0; 
stroke:#FFFFFF; stroke-width:0; stroke-opacity:1; 
stroke-linecap:round; stroke-linejoin:round;">
<circle cx="11297.2" cy="12824.8" r="157.48" /> 
</g>
<g style="fill:#FFFFFF; fill-opacity:1.0; 
stroke:#FFFFFF; stroke-width:39.3701; stroke-opacity:1; 
stroke-linecap:round; stroke-linejoin:round;">
</g>
<g style="fill:#FFFFFF; fill-opacity:1.0; 
stroke:#FFFFFF; stroke-width:0; stroke-opacity:1; 
stroke-linecap:round; stroke-linejoin:round;">
<circle cx="8297.24" cy="14005.9" r="157.48" /> 
</g>
<g style="fill:#FFFFFF; fill-opacity:1.0; 
stroke:#FFFFFF; stroke-width:39.3701; stroke-opacity:1; 
stroke-linecap:round; stroke-linejoin:round;">
</g>
<g style="fill:#FFFFFF; fill-opacity:1.0; 
stroke:#FFFFFF; stroke-width:0; stroke-opacity:1; 
stroke-linecap:round; stroke-linejoin:round;">
<circle cx="11297.2" cy="14005.9" r="157.48" /> 
</g>
<g style="fill:#FFFFFF; fill-opacity:1.0; 
stroke:#FFFFFF; stroke-width:39.3701; stroke-opacity:1; 
stroke-linecap:round; stroke-linejoin:round;">
</g>
<g style="fill:#FFFFFF; fill-opacity:1.0; 
stroke:#FFFFFF; stroke-width:0; stroke-opacity:1; 
stroke-linecap:round; stroke-linejoin:round;">
<circle cx="8297.24" cy="11643.7" r="157.48" /> 
</g>
<g style="fill:#FFFFFF; fill-opacity:1.0; 
stroke:#FFFFFF; stroke-width:39.3701; stroke-opacity:1; 
stroke-linecap:round; stroke-linejoin:round;">
</g>
<g style="fill:#FFFFFF; fill-opacity:1.0; 
stroke:#FFFFFF; stroke-width:0; stroke-opacity:1; 
stroke-linecap:round; stroke-linejoin:round;">
<circle cx="11297.2" cy="11643.7" r="157.48" /> 
</g>
<g style="fill:#FFFFFF; fill-opacity:1.0; 
stroke:#FFFFFF; stroke-width:39.3701; stroke-opacity:1; 
stroke-linecap:round; stroke-linejoin:round;">
</g>
<g style="fill:#FFFFFF; fill-opacity:1.0; 
stroke:#FFFFFF; stroke-width:0; stroke-opacity:1; 
stroke-linecap:round; stroke-linejoin:round;">
<circle cx="8297.24" cy="10462.6" r="157.48" /> 
</g>
<g style="fill:#FFFFFF; fill-opacity:1.0; 
stroke:#FFFFFF; stroke-width:39.3701; stroke-opacity:1; 
stroke-linecap:round; stroke-linejoin:round;">
</g>
<g style="fill:#FFFFFF; fill-opacity:1.0; 
stroke:#FFFFFF; stroke-width:0; stroke-opacity:1; 
stroke-linecap:round; stroke-linejoin:round;">
<circle cx="11297.2" cy="10462.6" r="157.48" /> 
</g>
<g style="fill:#FFFFFF; fill-opacity:1.0; 
stroke:#FFFFFF; stroke-width:39.3701; stroke-opacity:1; 
stroke-linecap:round; stroke-linejoin:round;">
</g>
<g style="fill:#FFFFFF; fill-opacity:1.0; 
stroke:#FFFFFF; stroke-width:0; stroke-opacity:1; 
stroke-linecap:round; stroke-linejoin:round;">
<circle cx="23257.9" cy="19124" r="236.22" /> 
</g>
<g style="fill:#FFFFFF; fill-opacity:1.0; 
stroke:#FFFFFF; stroke-width:39.3701; stroke-opacity:1; 
stroke-linecap:round; stroke-linejoin:round;">
</g>
<g style="fill:#FFFFFF; fill-opacity:1.0; 
stroke:#FFFFFF; stroke-width:0; stroke-opacity:1; 
stroke-linecap:round; stroke-linejoin:round;">
<circle cx="23257.9" cy="17746.1" r="236.22" /> 
</g>
<g style="fill:#FFFFFF; fill-opacity:1.0; 
stroke:#FFFFFF; stroke-width:39.3701; stroke-opacity:1; 
stroke-linecap:round; stroke-linejoin:round;">
</g>
<g style="fill:#FFFFFF; fill-opacity:1.0; 
stroke:#FFFFFF; stroke-width:0; stroke-opacity:1; 
stroke-linecap:round; stroke-linejoin:round;">
<circle cx="24045.3" cy="8297.24" r="196.85" /> 
</g>
<g style="fill:#FFFFFF; fill-opacity:1.0; 
stroke:#FFFFFF; stroke-width:39.3701; stroke-opacity:1; 
stroke-linecap:round; stroke-linejoin:round;">
</g>
<g style="fill:#FFFFFF; fill-opacity:1.0; 
stroke:#FFFFFF; stroke-width:0; stroke-opacity:1; 
stroke-linecap:round; stroke-linejoin:round;">
<circle cx="24045.3" cy="9297.24" r="196.85" /> 
</g>
<g style="fill:#FFFFFF; fill-opacity:1.0; 
stroke:#FFFFFF; stroke-width:39.3701; stroke-opacity:1; 
stroke-linecap:round; stroke-linejoin:round;">
</g>
<g style="fill:#FFFFFF; fill-opacity:1.0; 
stroke:#FFFFFF; stroke-width:0; stroke-opacity:1; 
stroke-linecap:round; stroke-linejoin:round;">
<circle cx="24045.3" cy="10297.2" r="196.85" /> 
</g>
<g style="fill:#FFFFFF; fill-opacity:1.0; 
stroke:#FFFFFF; stroke-width:39.3701; stroke-opacity:1; 
stroke-linecap:round; stroke-linejoin:round;">
</g>
<g style="fill:#FFFFFF; fill-opacity:1.0; 
stroke:#FFFFFF; stroke-width:0; stroke-opacity:1; 
stroke-linecap:round; stroke-linejoin:round;">
<circle cx="24045.3" cy="11297.2" r="196.85" /> 
</g>
<g style="fill:#FFFFFF; fill-opacity:1.0; 
stroke:#FFFFFF; stroke-width:39.3701; stroke-opacity:1; 
stroke-linecap:round; stroke-linejoin:round;">
</g>
<g style="fill:#FFFFFF; fill-opacity:1.0; 
stroke:#FFFFFF; stroke-width:0; stroke-opacity:1; 
stroke-linecap:round; stroke-linejoin:round;">
<circle cx="27588.6" cy="12037.4" r="177.165" /> 
</g>
<g style="fill:#FFFFFF; fill-opacity:1.0; 
stroke:#FFFFFF; stroke-width:39.3701; stroke-opacity:1; 
stroke-linecap:round; stroke-linejoin:round;">
</g>
<g style="fill:#FFFFFF; fill-opacity:1.0; 
stroke:#FFFFFF; stroke-width:0; stroke-opacity:1; 
stroke-linecap:round; stroke-linejoin:round;">
<circle cx="28588.6" cy="12037.4" r="177.165" /> 
</g>
<g style="fill:#FFFFFF; fill-opacity:1.0; 
stroke:#FFFFFF; stroke-width:39.3701; stroke-opacity:1; 
stroke-linecap:round; stroke-linejoin:round;">
</g>
<g style="fill:#000000; fill-opacity:1.0; 
stroke:#000000; stroke-width:39.3701; stroke-opacity:1; 
stroke-linecap:round; stroke-linejoin:round;">
</g> 
</svg>
