<?xml version="1.0" standalone="no"?>
 <!DOCTYPE svg PUBLIC "-//W3C//DTD SVG 1.1//EN" 
 "http://www.w3.org/Graphics/SVG/1.1/DTD/svg11.dtd"> 
<svg xmlns="http://www.w3.org/2000/svg" version="1.1" 
    width="29.7002cm" height="21.0007cm" viewBox="0 0 116930 82680 ">
<title>SVG Picture created as main-F.SilkS.svg date 2018/10/14 17:19:56 </title>
  <desc>Picture generated by PCBNEW </desc>
<g style="fill:#000000; fill-opacity:1;stroke:#000000; stroke-opacity:1;
stroke-linecap:round; stroke-linejoin:round; "
 transform="translate(0 0) scale(1 1)">
</g>
<g style="fill:#000000; fill-opacity:0.0; 
stroke:#000000; stroke-width:-0.000393701; stroke-opacity:1; 
stroke-linecap:round; stroke-linejoin:round;">
</g>
<g style="fill:#000000; fill-opacity:0.0; 
stroke:#000000; stroke-width:47.2441; stroke-opacity:1; 
stroke-linecap:round; stroke-linejoin:round;">
<path d="M55692 32996
L55692 29996
" />
<path d="M61692 32996
L61692 29996
" />
<path d="M55692 32496
L61692 32496
" />
<path d="M55692 29996
L61692 29996
" />
<path d="M55692 32996
L61692 32996
" />
<path d="M55960 35755
L55960 34291
" />
<path d="M56637 35755
L56637 34291
" />
<path d="M56637 37275
L56637 38740
" />
<path d="M55960 37275
L55960 38740
" />
<path d="M59771 38921
L58307 38921
" />
<path d="M59771 38244
L58307 38244
" />
<path d="M59106.3 33476.4 A393.701 393.701 0.0 0 0 59893.7 33476.4 " />
<path d="M59106 33476
L58456 33476
" />
<path d="M58456 33476
L58456 37523
" />
<path d="M58456 37523
L60543 37523
" />
<path d="M60543 37523
L60543 33476
" />
<path d="M60543 33476
L59893 33476
" />
<path d="M61287 39106
L62334 39106
" />
<path d="M61287 39082
L61287 39106
" />
<path d="M62334 39082
L62334 39106
" />
<path d="M61287 39082
L62334 39082
" />
<path d="M61287 38582
L61287 38059
" />
<path d="M61287 38059
L61811 38059
" />
</g>
<g style="fill:#000000; fill-opacity:0.0; 
stroke:#000000; stroke-width:59.0551; stroke-opacity:1; 
stroke-linecap:round; stroke-linejoin:round;">
<path d="M58549 29449
L58549 29730
L58531 29787
L58493 29824
L58437 29843
L58399 29843
" />
<path d="M58943 29843
L58718 29843
" />
<path d="M58831 29843
L58831 29449
L58793 29505
L58756 29543
L58718 29562
" />
<path d="M55745 35323
L55745 35548
" />
<path d="M55745 35436
L55351 35436
L55407 35473
L55445 35511
L55463 35548
" />
<path d="M55745 35154
L55351 35154
L55632 35023
L55351 34892
L55745 34892
" />
<path d="M55745 34498
L55745 34723
" />
<path d="M55745 34611
L55351 34611
L55407 34648
L55445 34686
L55463 34723
" />
<path d="M57209 38429
L57209 38654
" />
<path d="M57209 38542
L56815 38542
L56872 38579
L56909 38617
L56928 38654
" />
<path d="M56815 38185
L56815 38148
L56834 38110
L56853 38092
L56890 38073
L56965 38054
L57059 38054
L57134 38073
L57172 38092
L57190 38110
L57209 38148
L57209 38185
L57190 38223
L57172 38242
L57134 38260
L57059 38279
L56965 38279
L56890 38260
L56853 38242
L56834 38223
L56815 38185
" />
<path d="M57209 37886
L56815 37886
" />
<path d="M57059 37848
L57209 37736
" />
<path d="M56947 37736
L57097 37886
" />
<path d="M57209 37361
L57209 37586
" />
<path d="M57209 37473
L56815 37473
L56872 37511
L56909 37548
L56928 37586
" />
<path d="M58617 39493
L58392 39493
" />
<path d="M58505 39493
L58505 39099
L58467 39155
L58430 39193
L58392 39211
" />
<path d="M58861 39099
L58898 39099
L58936 39118
L58955 39136
L58973 39174
L58992 39249
L58992 39343
L58973 39418
L58955 39455
L58936 39474
L58898 39493
L58861 39493
L58823 39474
L58805 39455
L58786 39418
L58767 39343
L58767 39249
L58786 39174
L58805 39136
L58823 39118
L58861 39099
" />
<path d="M59161 39493
L59161 39099
" />
<path d="M59198 39343
L59311 39493
" />
<path d="M59311 39230
L59161 39380
" />
<path d="M59461 39136
L59479 39118
L59517 39099
L59611 39099
L59648 39118
L59667 39136
L59686 39174
L59686 39211
L59667 39268
L59442 39493
L59686 39493
" />
<path d="M59200 32867
L59200 33185
L59218 33223
L59237 33242
L59275 33260
L59350 33260
L59387 33242
L59406 33223
L59425 33185
L59425 32867
" />
<path d="M59818 33260
L59593 33260
" />
<path d="M59706 33260
L59706 32867
L59668 32923
L59631 32960
L59593 32979
" />
<path d="M61679 37449
L61679 37730
L61661 37787
L61623 37824
L61567 37843
L61529 37843
" />
<path d="M61848 37487
L61867 37468
L61904 37449
L61998 37449
L62035 37468
L62054 37487
L62073 37524
L62073 37562
L62054 37618
L61829 37843
L62073 37843
" />
</g> 
</svg>
