<?xml version="1.0" standalone="no"?>
 <!DOCTYPE svg PUBLIC "-//W3C//DTD SVG 1.1//EN" 
 "http://www.w3.org/Graphics/SVG/1.1/DTD/svg11.dtd"> 
<svg xmlns="http://www.w3.org/2000/svg" version="1.1" 
    width="29.7002cm" height="21.0007cm" viewBox="0 0 116930 82680 ">
<title>SVG Picture created as main-B.Cu.svg date 2018/10/14 17:19:56 </title>
  <desc>Picture generated by PCBNEW </desc>
<g style="fill:#000000; fill-opacity:1;stroke:#000000; stroke-opacity:1;
stroke-linecap:round; stroke-linejoin:round; "
 transform="translate(0 0) scale(1 1)">
</g>
<g style="fill:#000000; fill-opacity:0.0; 
stroke:#000000; stroke-width:-0.000393701; stroke-opacity:1; 
stroke-linecap:round; stroke-linejoin:round;">
</g>
<g style="fill:#000000; fill-opacity:0.0; 
stroke:#000000; stroke-width:0; stroke-opacity:1; 
stroke-linecap:round; stroke-linejoin:round;">
</g>
<g style="fill:#000000; fill-opacity:1.0; 
stroke:#000000; stroke-width:0; stroke-opacity:1; 
stroke-linecap:round; stroke-linejoin:round;">
<polyline style="fill-rule:evenodd;"
points="56102,32086
56102,30905
57283,30905
57283,32086
56102,32086
" /> 
<circle cx="58692.9" cy="31496.1" r="590.551" /> 
</g>
<g style="fill:#000000; fill-opacity:1.0; 
stroke:#000000; stroke-width:39.3701; stroke-opacity:1; 
stroke-linecap:round; stroke-linejoin:round;">
</g>
<g style="fill:#000000; fill-opacity:1.0; 
stroke:#000000; stroke-width:0; stroke-opacity:1; 
stroke-linecap:round; stroke-linejoin:round;">
<circle cx="60692.9" cy="31496.1" r="590.551" /> 
</g>
<g style="fill:#000000; fill-opacity:1.0; 
stroke:#000000; stroke-width:39.3701; stroke-opacity:1; 
stroke-linecap:round; stroke-linejoin:round;">
</g>
<g style="fill:#000000; fill-opacity:1.0; 
stroke:#000000; stroke-width:0; stroke-opacity:1; 
stroke-linecap:round; stroke-linejoin:round;">
<circle cx="56299.2" cy="36023.6" r="275.591" /> 
</g>
<g style="fill:#000000; fill-opacity:1.0; 
stroke:#000000; stroke-width:39.3701; stroke-opacity:1; 
stroke-linecap:round; stroke-linejoin:round;">
</g>
<g style="fill:#000000; fill-opacity:1.0; 
stroke:#000000; stroke-width:551.181; stroke-opacity:1; 
stroke-linecap:round; stroke-linejoin:round;">
</g>
<g style="fill:#000000; fill-opacity:0.0; 
stroke:#000000; stroke-width:551.181; stroke-opacity:1; 
stroke-linecap:round; stroke-linejoin:round;">
<path d="M56299 34023
L56299 34023
" />
</g>
<g style="fill:#000000; fill-opacity:1.0; 
stroke:#000000; stroke-width:0; stroke-opacity:1; 
stroke-linecap:round; stroke-linejoin:round;">
<circle cx="56299.2" cy="37007.9" r="275.591" /> 
</g>
<g style="fill:#000000; fill-opacity:1.0; 
stroke:#000000; stroke-width:39.3701; stroke-opacity:1; 
stroke-linecap:round; stroke-linejoin:round;">
</g>
<g style="fill:#000000; fill-opacity:1.0; 
stroke:#000000; stroke-width:551.181; stroke-opacity:1; 
stroke-linecap:round; stroke-linejoin:round;">
</g>
<g style="fill:#000000; fill-opacity:0.0; 
stroke:#000000; stroke-width:551.181; stroke-opacity:1; 
stroke-linecap:round; stroke-linejoin:round;">
<path d="M56299 39007
L56299 39007
" />
</g>
<g style="fill:#000000; fill-opacity:1.0; 
stroke:#000000; stroke-width:0; stroke-opacity:1; 
stroke-linecap:round; stroke-linejoin:round;">
<circle cx="60039.4" cy="38582.7" r="275.591" /> 
</g>
<g style="fill:#000000; fill-opacity:1.0; 
stroke:#000000; stroke-width:39.3701; stroke-opacity:1; 
stroke-linecap:round; stroke-linejoin:round;">
</g>
<g style="fill:#000000; fill-opacity:1.0; 
stroke:#000000; stroke-width:551.181; stroke-opacity:1; 
stroke-linecap:round; stroke-linejoin:round;">
</g>
<g style="fill:#000000; fill-opacity:0.0; 
stroke:#000000; stroke-width:551.181; stroke-opacity:1; 
stroke-linecap:round; stroke-linejoin:round;">
<path d="M58039 38582
L58039 38582
" />
</g>
<g style="fill:#000000; fill-opacity:0.0; 
stroke:#000000; stroke-width:0; stroke-opacity:1; 
stroke-linecap:round; stroke-linejoin:round;">
</g>
<g style="fill:#000000; fill-opacity:1.0; 
stroke:#000000; stroke-width:0; stroke-opacity:1; 
stroke-linecap:round; stroke-linejoin:round;">
<polyline style="fill-rule:evenodd;"
points="57685,34314
57685,33685
58314,33685
58314,34314
57685,34314
" /> 
</g>
<g style="fill:#000000; fill-opacity:1.0; 
stroke:#000000; stroke-width:629.921; stroke-opacity:1; 
stroke-linecap:round; stroke-linejoin:round;">
</g>
<g style="fill:#000000; fill-opacity:0.0; 
stroke:#000000; stroke-width:629.921; stroke-opacity:1; 
stroke-linecap:round; stroke-linejoin:round;">
<path d="M61000 37000
L61000 37000
" />
<path d="M58000 35000
L58000 35000
" />
<path d="M61000 36000
L61000 36000
" />
<path d="M58000 36000
L58000 36000
" />
<path d="M61000 35000
L61000 35000
" />
<path d="M58000 37000
L58000 37000
" />
<path d="M61000 34000
L61000 34000
" />
</g>
<g style="fill:#000000; fill-opacity:0.0; 
stroke:#000000; stroke-width:0; stroke-opacity:1; 
stroke-linecap:round; stroke-linejoin:round;">
</g>
<g style="fill:#000000; fill-opacity:1.0; 
stroke:#000000; stroke-width:0; stroke-opacity:1; 
stroke-linecap:round; stroke-linejoin:round;">
<polyline style="fill-rule:evenodd;"
points="61476,38917
61476,38248
62145,38248
62145,38917
61476,38917
" /> 
</g>
<g style="fill:#000000; fill-opacity:1.0; 
stroke:#000000; stroke-width:275.591; stroke-opacity:1; 
stroke-linecap:round; stroke-linejoin:round;">
</g>
<g style="fill:#000000; fill-opacity:0.0; 
stroke:#000000; stroke-width:275.591; stroke-opacity:1; 
stroke-linecap:round; stroke-linejoin:round;">
<path d="M58000 35000
L58000 35110
" />
<path d="M58000 35110
L56692 36417
" />
<path d="M56692 36417
L56299 36417
" />
<path d="M56299 36023
L56299 36417
" />
<path d="M56299 36417
L56299 37007
" />
<path d="M56299 34023
L56299 31889
" />
<path d="M56299 31889
L56692 31496
" />
<path d="M58000 34000
L56322 34000
" />
<path d="M56322 34000
L56299 33976
" />
<path d="M60039 38582
L61811 38582
" />
<path d="M58000 36000
L58440 36000
" />
<path d="M59055 37566
L58039 38582
" />
<path d="M59055 36614
L59055 37566
" />
<path d="M58440 36000
L59055 36614
" />
<path d="M61000 34000
L61000 31803
" />
<path d="M61000 31803
L60692 31496
" />
</g>
<g style="fill:#000000; fill-opacity:1.0; 
stroke:#000000; stroke-width:100; stroke-opacity:1; 
stroke-linecap:round; stroke-linejoin:round;">
<polyline style="fill-rule:evenodd;"
points="63082,28633
62808,29043
62712,29527
62808,30011
63082,30421
63492,30695
63976,30791
64460,30695
64870,30421
65074,30114
65074,38782
64870,38476
64460,38202
63976,38106
63492,38202
63082,38476
62808,38886
62712,39370
62808,39853
63082,40263
63492,40537
63976,40633
64460,40537
64870,40263
65074,39957
65074,40665
53035,40665
53035,39957
53240,40263
53650,40537
54133,40633
54617,40537
55027,40263
55301,39853
55397,39370
55351,39139
55790,39139
55879,39323
56032,39460
56167,39516
56249,39468
56249,39057
56349,39057
56349,39468
56430,39516
56566,39460
56719,39323
56808,39139
56759,39057
56349,39057
56249,39057
55838,39057
55790,39139
55351,39139
55301,38886
55294,38876
55790,38876
55838,38957
56249,38957
56249,38547
56349,38547
56349,38957
56759,38957
56808,38876
56719,38691
56566,38555
56430,38498
56349,38547
56249,38547
56167,38498
56032,38555
55879,38691
55790,38876
55294,38876
55027,38476
54617,38202
54133,38106
53650,38202
53240,38476
53035,38782
53035,36127
55773,36127
55853,36320
55911,36379
55911,36652
55853,36709
55773,36902
55773,37111
55853,37305
56001,37453
56194,37533
56403,37533
56596,37453
56744,37305
56814,37137
57452,37137
57515,37290
57663,37453
57862,37547
57950,37500
57950,37050
58050,37050
58050,37500
58137,37547
58336,37453
58484,37290
58547,37137
58499,37050
58050,37050
57950,37050
57500,37050
57452,37137
56814,37137
56824,37112
56824,36903
56777,36788
56841,36775
56967,36691
57462,36195
57466,36216
57589,36399
57748,36505
57663,36546
57515,36709
57452,36862
57500,36950
57950,36950
57950,36942
58050,36942
58050,36950
58499,36950
58547,36862
58484,36709
58336,36546
58251,36505
58339,36446
58667,36774
58667,37406
58013,38060
57827,38097
57657,38211
57543,38381
57503,38582
57543,38783
57657,38954
57827,39068
58029,39108
58049,39108
58250,39068
58421,38954
58535,38783
58554,38686
59513,38686
59593,38880
59741,39027
59934,39108
60143,39108
60336,39028
60394,38970
61231,38970
61238,39009
61293,39095
61377,39152
61476,39172
62145,39172
62238,39154
62323,39100
62380,39016
62400,38917
62400,38248
62383,38155
62328,38070
62244,38013
62145,37993
61476,37993
61383,38010
61298,38065
61241,38148
61232,38194
60394,38194
60337,38137
60144,38057
59935,38056
59742,38136
59594,38284
59513,38477
59513,38686
58554,38686
58572,38598
59329,37841
59413,37715
59442,37566
59442,36614
59413,36465
59329,36339
58715,35725
58589,35641
58440,35612
58418,35612
58410,35600
58260,35500
58410,35399
58533,35216
58576,35000
58533,34783
58410,34600
58353,34562
58407,34552
58492,34497
58549,34414
58569,34314
58569,33685
58552,33592
58497,33507
58414,33450
58314,33430
57685,33430
57592,33447
57507,33502
57450,33585
57444,33612
56687,33612
56687,32341
57283,32341
57376,32324
57461,32269
57518,32185
57537,32092
58167,32092
58230,32217
58541,32339
58876,32333
59155,32217
59218,32092
58692,31566
58167,32092
57537,32092
57538,32086
57538,31344
57849,31344
57855,31679
57971,31958
58096,32021
58622,31496
58763,31496
59288,32021
59414,31958
59530,31662
59852,31662
59979,31971
60216,32208
60524,32336
60612,32336
60612,33585
60589,33600
60466,33783
60423,34000
60466,34216
60589,34399
60739,34500
60589,34600
60466,34783
60423,35000
60466,35216
60589,35399
60739,35500
60589,35600
60466,35783
60423,36000
60466,36216
60589,36399
60739,36500
60589,36600
60466,36783
60423,37000
60466,37216
60589,37399
60772,37521
60988,37564
61011,37564
61227,37521
61410,37399
61533,37216
61576,37000
61533,36783
61410,36600
61260,36500
61410,36399
61533,36216
61576,36000
61533,35783
61410,35600
61260,35500
61410,35399
61533,35216
61576,35000
61533,34783
61410,34600
61260,34500
61410,34399
61533,34216
61576,34000
61533,33783
61410,33600
61387,33585
61387,31990
61405,31972
61533,31663
61533,31329
61405,31020
61169,30783
60860,30655
60526,30655
60217,30783
59980,31019
59852,31328
59852,31662
59530,31662
59536,31647
59530,31312
59414,31033
59288,30970
58763,31496
58622,31496
58096,30970
57971,31033
57849,31344
57538,31344
57538,30905
57537,30900
58167,30900
58692,31425
59218,30900
59155,30774
58844,30652
58509,30658
58230,30774
58167,30900
57537,30900
57520,30812
57466,30727
57382,30670
57283,30650
56102,30650
56009,30668
55924,30722
55867,30806
55847,30905
55847,32086
55864,32179
55911,32251
55911,33665
55813,33812
55773,34013
55773,34033
55813,34235
55927,34405
56098,34519
56299,34559
56500,34519
56670,34405
56682,34387
57443,34387
57447,34407
57502,34492
57585,34549
57646,34562
57589,34600
57466,34783
57423,35000
57446,35114
56771,35790
56745,35726
56597,35578
56404,35498
56195,35497
56001,35577
55853,35725
55773,35918
55773,36127
53035,36127
53035,30114
53240,30421
53650,30695
54133,30791
54617,30695
55027,30421
55301,30011
55397,29527
55301,29043
55027,28633
55015,28625
63094,28625
63082,28633
" /> 
</g>
<g style="fill:#FFFFFF; fill-opacity:1.0; 
stroke:#FFFFFF; stroke-width:100; stroke-opacity:1; 
stroke-linecap:round; stroke-linejoin:round;">
</g>
<g style="fill:#FFFFFF; fill-opacity:1.0; 
stroke:#FFFFFF; stroke-width:0; stroke-opacity:1; 
stroke-linecap:round; stroke-linejoin:round;">
<circle cx="56692.9" cy="31496.1" r="299.213" /> 
</g>
<g style="fill:#FFFFFF; fill-opacity:1.0; 
stroke:#FFFFFF; stroke-width:39.3701; stroke-opacity:1; 
stroke-linecap:round; stroke-linejoin:round;">
</g>
<g style="fill:#FFFFFF; fill-opacity:1.0; 
stroke:#FFFFFF; stroke-width:0; stroke-opacity:1; 
stroke-linecap:round; stroke-linejoin:round;">
<circle cx="58692.9" cy="31496.1" r="299.213" /> 
</g>
<g style="fill:#FFFFFF; fill-opacity:1.0; 
stroke:#FFFFFF; stroke-width:39.3701; stroke-opacity:1; 
stroke-linecap:round; stroke-linejoin:round;">
</g>
<g style="fill:#FFFFFF; fill-opacity:1.0; 
stroke:#FFFFFF; stroke-width:0; stroke-opacity:1; 
stroke-linecap:round; stroke-linejoin:round;">
<circle cx="60692.9" cy="31496.1" r="299.213" /> 
</g>
<g style="fill:#FFFFFF; fill-opacity:1.0; 
stroke:#FFFFFF; stroke-width:39.3701; stroke-opacity:1; 
stroke-linecap:round; stroke-linejoin:round;">
</g>
<g style="fill:#FFFFFF; fill-opacity:1.0; 
stroke:#FFFFFF; stroke-width:0; stroke-opacity:1; 
stroke-linecap:round; stroke-linejoin:round;">
<circle cx="56299.2" cy="36023.6" r="137.795" /> 
</g>
<g style="fill:#FFFFFF; fill-opacity:1.0; 
stroke:#FFFFFF; stroke-width:39.3701; stroke-opacity:1; 
stroke-linecap:round; stroke-linejoin:round;">
</g>
<g style="fill:#FFFFFF; fill-opacity:1.0; 
stroke:#FFFFFF; stroke-width:0; stroke-opacity:1; 
stroke-linecap:round; stroke-linejoin:round;">
<circle cx="56299.2" cy="34023.6" r="137.795" /> 
</g>
<g style="fill:#FFFFFF; fill-opacity:1.0; 
stroke:#FFFFFF; stroke-width:39.3701; stroke-opacity:1; 
stroke-linecap:round; stroke-linejoin:round;">
</g>
<g style="fill:#FFFFFF; fill-opacity:1.0; 
stroke:#FFFFFF; stroke-width:0; stroke-opacity:1; 
stroke-linecap:round; stroke-linejoin:round;">
<circle cx="56299.2" cy="37007.9" r="137.795" /> 
</g>
<g style="fill:#FFFFFF; fill-opacity:1.0; 
stroke:#FFFFFF; stroke-width:39.3701; stroke-opacity:1; 
stroke-linecap:round; stroke-linejoin:round;">
</g>
<g style="fill:#FFFFFF; fill-opacity:1.0; 
stroke:#FFFFFF; stroke-width:0; stroke-opacity:1; 
stroke-linecap:round; stroke-linejoin:round;">
<circle cx="56299.2" cy="39007.9" r="137.795" /> 
</g>
<g style="fill:#FFFFFF; fill-opacity:1.0; 
stroke:#FFFFFF; stroke-width:39.3701; stroke-opacity:1; 
stroke-linecap:round; stroke-linejoin:round;">
</g>
<g style="fill:#FFFFFF; fill-opacity:1.0; 
stroke:#FFFFFF; stroke-width:0; stroke-opacity:1; 
stroke-linecap:round; stroke-linejoin:round;">
<circle cx="60039.4" cy="38582.7" r="137.795" /> 
</g>
<g style="fill:#FFFFFF; fill-opacity:1.0; 
stroke:#FFFFFF; stroke-width:39.3701; stroke-opacity:1; 
stroke-linecap:round; stroke-linejoin:round;">
</g>
<g style="fill:#FFFFFF; fill-opacity:1.0; 
stroke:#FFFFFF; stroke-width:0; stroke-opacity:1; 
stroke-linecap:round; stroke-linejoin:round;">
<circle cx="58039.4" cy="38582.7" r="137.795" /> 
</g>
<g style="fill:#FFFFFF; fill-opacity:1.0; 
stroke:#FFFFFF; stroke-width:39.3701; stroke-opacity:1; 
stroke-linecap:round; stroke-linejoin:round;">
</g>
<g style="fill:#FFFFFF; fill-opacity:1.0; 
stroke:#FFFFFF; stroke-width:0; stroke-opacity:1; 
stroke-linecap:round; stroke-linejoin:round;">
<circle cx="58000" cy="34000" r="157.48" /> 
</g>
<g style="fill:#FFFFFF; fill-opacity:1.0; 
stroke:#FFFFFF; stroke-width:39.3701; stroke-opacity:1; 
stroke-linecap:round; stroke-linejoin:round;">
</g>
<g style="fill:#FFFFFF; fill-opacity:1.0; 
stroke:#FFFFFF; stroke-width:0; stroke-opacity:1; 
stroke-linecap:round; stroke-linejoin:round;">
<circle cx="61000" cy="37000" r="157.48" /> 
</g>
<g style="fill:#FFFFFF; fill-opacity:1.0; 
stroke:#FFFFFF; stroke-width:39.3701; stroke-opacity:1; 
stroke-linecap:round; stroke-linejoin:round;">
</g>
<g style="fill:#FFFFFF; fill-opacity:1.0; 
stroke:#FFFFFF; stroke-width:0; stroke-opacity:1; 
stroke-linecap:round; stroke-linejoin:round;">
<circle cx="58000" cy="35000" r="157.48" /> 
</g>
<g style="fill:#FFFFFF; fill-opacity:1.0; 
stroke:#FFFFFF; stroke-width:39.3701; stroke-opacity:1; 
stroke-linecap:round; stroke-linejoin:round;">
</g>
<g style="fill:#FFFFFF; fill-opacity:1.0; 
stroke:#FFFFFF; stroke-width:0; stroke-opacity:1; 
stroke-linecap:round; stroke-linejoin:round;">
<circle cx="61000" cy="36000" r="157.48" /> 
</g>
<g style="fill:#FFFFFF; fill-opacity:1.0; 
stroke:#FFFFFF; stroke-width:39.3701; stroke-opacity:1; 
stroke-linecap:round; stroke-linejoin:round;">
</g>
<g style="fill:#FFFFFF; fill-opacity:1.0; 
stroke:#FFFFFF; stroke-width:0; stroke-opacity:1; 
stroke-linecap:round; stroke-linejoin:round;">
<circle cx="58000" cy="36000" r="157.48" /> 
</g>
<g style="fill:#FFFFFF; fill-opacity:1.0; 
stroke:#FFFFFF; stroke-width:39.3701; stroke-opacity:1; 
stroke-linecap:round; stroke-linejoin:round;">
</g>
<g style="fill:#FFFFFF; fill-opacity:1.0; 
stroke:#FFFFFF; stroke-width:0; stroke-opacity:1; 
stroke-linecap:round; stroke-linejoin:round;">
<circle cx="61000" cy="35000" r="157.48" /> 
</g>
<g style="fill:#FFFFFF; fill-opacity:1.0; 
stroke:#FFFFFF; stroke-width:39.3701; stroke-opacity:1; 
stroke-linecap:round; stroke-linejoin:round;">
</g>
<g style="fill:#FFFFFF; fill-opacity:1.0; 
stroke:#FFFFFF; stroke-width:0; stroke-opacity:1; 
stroke-linecap:round; stroke-linejoin:round;">
<circle cx="58000" cy="37000" r="157.48" /> 
</g>
<g style="fill:#FFFFFF; fill-opacity:1.0; 
stroke:#FFFFFF; stroke-width:39.3701; stroke-opacity:1; 
stroke-linecap:round; stroke-linejoin:round;">
</g>
<g style="fill:#FFFFFF; fill-opacity:1.0; 
stroke:#FFFFFF; stroke-width:0; stroke-opacity:1; 
stroke-linecap:round; stroke-linejoin:round;">
<circle cx="61000" cy="34000" r="157.48" /> 
</g>
<g style="fill:#FFFFFF; fill-opacity:1.0; 
stroke:#FFFFFF; stroke-width:39.3701; stroke-opacity:1; 
stroke-linecap:round; stroke-linejoin:round;">
</g>
<g style="fill:#FFFFFF; fill-opacity:1.0; 
stroke:#FFFFFF; stroke-width:0; stroke-opacity:1; 
stroke-linecap:round; stroke-linejoin:round;">
<circle cx="61811" cy="38582.7" r="196.85" /> 
</g>
<g style="fill:#FFFFFF; fill-opacity:1.0; 
stroke:#FFFFFF; stroke-width:39.3701; stroke-opacity:1; 
stroke-linecap:round; stroke-linejoin:round;">
</g>
<g style="fill:#000000; fill-opacity:1.0; 
stroke:#000000; stroke-width:39.3701; stroke-opacity:1; 
stroke-linecap:round; stroke-linejoin:round;">
</g> 
</svg>
