<?xml version="1.0" standalone="no"?>
 <!DOCTYPE svg PUBLIC "-//W3C//DTD SVG 1.1//EN" 
 "http://www.w3.org/Graphics/SVG/1.1/DTD/svg11.dtd"> 
<svg xmlns="http://www.w3.org/2000/svg" version="1.1" 
    width="29.7002cm" height="21.0007cm" viewBox="0 0 116930 82680 ">
<title>SVG Picture created as mainButton-B.Cu.svg date 2018/10/18 13:37:45 </title>
  <desc>Picture generated by PCBNEW </desc>
<g style="fill:#000000; fill-opacity:1;stroke:#000000; stroke-opacity:1;
stroke-linecap:round; stroke-linejoin:round; "
 transform="translate(0 0) scale(1 1)">
</g>
<g style="fill:#000000; fill-opacity:0.0; 
stroke:#000000; stroke-width:-0.000393701; stroke-opacity:1; 
stroke-linecap:round; stroke-linejoin:round;">
</g>
<g style="fill:#000000; fill-opacity:0.0; 
stroke:#000000; stroke-width:0; stroke-opacity:1; 
stroke-linecap:round; stroke-linejoin:round;">
</g>
<g style="fill:#000000; fill-opacity:1.0; 
stroke:#000000; stroke-width:0; stroke-opacity:1; 
stroke-linecap:round; stroke-linejoin:round;">
<polyline style="fill-rule:evenodd;"
points="97283,31653
97283,30944
97992,30944
97992,31653
97283,31653
" /> 
</g>
<g style="fill:#000000; fill-opacity:1.0; 
stroke:#000000; stroke-width:708.661; stroke-opacity:1; 
stroke-linecap:round; stroke-linejoin:round;">
</g>
<g style="fill:#000000; fill-opacity:0.0; 
stroke:#000000; stroke-width:708.661; stroke-opacity:1; 
stroke-linecap:round; stroke-linejoin:round;">
<path d="M98637 31299
L98637 31299
" />
<path d="M99637 31299
L99637 31299
" />
</g>
<g style="fill:#000000; fill-opacity:0.0; 
stroke:#000000; stroke-width:0; stroke-opacity:1; 
stroke-linecap:round; stroke-linejoin:round;">
</g>
<g style="fill:#000000; fill-opacity:1.0; 
stroke:#000000; stroke-width:0; stroke-opacity:1; 
stroke-linecap:round; stroke-linejoin:round;">
<polyline style="fill-rule:evenodd;"
points="76850,45984
76850,45354
77480,45354
77480,45984
76850,45984
" /> 
</g>
<g style="fill:#000000; fill-opacity:1.0; 
stroke:#000000; stroke-width:629.921; stroke-opacity:1; 
stroke-linecap:round; stroke-linejoin:round;">
</g>
<g style="fill:#000000; fill-opacity:0.0; 
stroke:#000000; stroke-width:629.921; stroke-opacity:1; 
stroke-linecap:round; stroke-linejoin:round;">
<path d="M80165 45669
L80165 45669
" />
</g>
<g style="fill:#000000; fill-opacity:0.0; 
stroke:#000000; stroke-width:0; stroke-opacity:1; 
stroke-linecap:round; stroke-linejoin:round;">
</g>
<g style="fill:#000000; fill-opacity:1.0; 
stroke:#000000; stroke-width:0; stroke-opacity:1; 
stroke-linecap:round; stroke-linejoin:round;">
<polyline style="fill-rule:evenodd;"
points="88228,49645
88937,49645
88937,50354
88228,50354
88228,49645
" /> 
<circle cx="88582.7" cy="51000" r="354.331" /> 
</g>
<g style="fill:#000000; fill-opacity:1.0; 
stroke:#000000; stroke-width:39.3701; stroke-opacity:1; 
stroke-linecap:round; stroke-linejoin:round;">
</g>
<g style="fill:#000000; fill-opacity:1.0; 
stroke:#000000; stroke-width:0; stroke-opacity:1; 
stroke-linecap:round; stroke-linejoin:round;">
<polyline style="fill-rule:evenodd;"
points="81535,49566
81535,48858
82244,48858
82244,49566
81535,49566
" /> 
<circle cx="82889.8" cy="49212.6" r="354.331" /> 
</g>
<g style="fill:#000000; fill-opacity:1.0; 
stroke:#000000; stroke-width:39.3701; stroke-opacity:1; 
stroke-linecap:round; stroke-linejoin:round;">
</g>
<g style="fill:#000000; fill-opacity:1.0; 
stroke:#000000; stroke-width:0; stroke-opacity:1; 
stroke-linecap:round; stroke-linejoin:round;">
<polyline style="fill-rule:evenodd;"
points="77204,37362
77204,36653
77913,36653
77913,37362
77204,37362
" /> 
<circle cx="78559.1" cy="37007.9" r="354.331" /> 
</g>
<g style="fill:#000000; fill-opacity:1.0; 
stroke:#000000; stroke-width:39.3701; stroke-opacity:1; 
stroke-linecap:round; stroke-linejoin:round;">
</g>
<g style="fill:#000000; fill-opacity:1.0; 
stroke:#000000; stroke-width:0; stroke-opacity:1; 
stroke-linecap:round; stroke-linejoin:round;">
<polyline style="fill-rule:evenodd;"
points="80748,37362
80748,36653
81456,36653
81456,37362
80748,37362
" /> 
<circle cx="82102.4" cy="37007.9" r="354.331" /> 
</g>
<g style="fill:#000000; fill-opacity:1.0; 
stroke:#000000; stroke-width:39.3701; stroke-opacity:1; 
stroke-linecap:round; stroke-linejoin:round;">
</g>
<g style="fill:#000000; fill-opacity:1.0; 
stroke:#000000; stroke-width:0; stroke-opacity:1; 
stroke-linecap:round; stroke-linejoin:round;">
<polyline style="fill-rule:evenodd;"
points="96889,33622
96889,32913
97598,32913
97598,33622
96889,33622
" /> 
<circle cx="98244.1" cy="33267.7" r="354.331" /> 
</g>
<g style="fill:#000000; fill-opacity:1.0; 
stroke:#000000; stroke-width:39.3701; stroke-opacity:1; 
stroke-linecap:round; stroke-linejoin:round;">
</g>
<g style="fill:#000000; fill-opacity:1.0; 
stroke:#000000; stroke-width:0; stroke-opacity:1; 
stroke-linecap:round; stroke-linejoin:round;">
<polyline style="fill-rule:evenodd;"
points="82755,52283
82755,51653
83385,51653
83385,52283
82755,52283
" /> 
</g>
<g style="fill:#000000; fill-opacity:1.0; 
stroke:#000000; stroke-width:629.921; stroke-opacity:1; 
stroke-linecap:round; stroke-linejoin:round;">
</g>
<g style="fill:#000000; fill-opacity:0.0; 
stroke:#000000; stroke-width:629.921; stroke-opacity:1; 
stroke-linecap:round; stroke-linejoin:round;">
<path d="M86070 51968
L86070 51968
" />
</g>
<g style="fill:#000000; fill-opacity:0.0; 
stroke:#000000; stroke-width:0; stroke-opacity:1; 
stroke-linecap:round; stroke-linejoin:round;">
</g>
<g style="fill:#000000; fill-opacity:1.0; 
stroke:#000000; stroke-width:0; stroke-opacity:1; 
stroke-linecap:round; stroke-linejoin:round;">
<polyline style="fill-rule:evenodd;"
points="82755,51102
82755,50472
83385,50472
83385,51102
82755,51102
" /> 
</g>
<g style="fill:#000000; fill-opacity:1.0; 
stroke:#000000; stroke-width:629.921; stroke-opacity:1; 
stroke-linecap:round; stroke-linejoin:round;">
</g>
<g style="fill:#000000; fill-opacity:0.0; 
stroke:#000000; stroke-width:629.921; stroke-opacity:1; 
stroke-linecap:round; stroke-linejoin:round;">
<path d="M86070 50787
L86070 50787
" />
</g>
<g style="fill:#000000; fill-opacity:0.0; 
stroke:#000000; stroke-width:0; stroke-opacity:1; 
stroke-linecap:round; stroke-linejoin:round;">
</g>
<g style="fill:#000000; fill-opacity:1.0; 
stroke:#000000; stroke-width:0; stroke-opacity:1; 
stroke-linecap:round; stroke-linejoin:round;">
<polyline style="fill-rule:evenodd;"
points="76850,47559
76850,46929
77480,46929
77480,47559
76850,47559
" /> 
</g>
<g style="fill:#000000; fill-opacity:1.0; 
stroke:#000000; stroke-width:629.921; stroke-opacity:1; 
stroke-linecap:round; stroke-linejoin:round;">
</g>
<g style="fill:#000000; fill-opacity:0.0; 
stroke:#000000; stroke-width:629.921; stroke-opacity:1; 
stroke-linecap:round; stroke-linejoin:round;">
<path d="M80165 47244
L80165 47244
" />
</g>
<g style="fill:#000000; fill-opacity:0.0; 
stroke:#000000; stroke-width:0; stroke-opacity:1; 
stroke-linecap:round; stroke-linejoin:round;">
</g>
<g style="fill:#000000; fill-opacity:1.0; 
stroke:#000000; stroke-width:0; stroke-opacity:1; 
stroke-linecap:round; stroke-linejoin:round;">
<polyline style="fill-rule:evenodd;"
points="89527,25866
89527,27283
88818,27283
88818,25866
89527,25866
" /> 
</g>
<g style="fill:#000000; fill-opacity:1.0; 
stroke:#000000; stroke-width:708.661; stroke-opacity:1; 
stroke-linecap:round; stroke-linejoin:round;">
</g>
<g style="fill:#000000; fill-opacity:0.0; 
stroke:#000000; stroke-width:708.661; stroke-opacity:1; 
stroke-linecap:round; stroke-linejoin:round;">
<path d="M87795 26929
L87795 26220
" />
<path d="M86417 26929
L86417 26220
" />
<path d="M85039 26929
L85039 26220
" />
</g>
<g style="fill:#000000; fill-opacity:0.0; 
stroke:#000000; stroke-width:0; stroke-opacity:1; 
stroke-linecap:round; stroke-linejoin:round;">
</g>
<g style="fill:#000000; fill-opacity:1.0; 
stroke:#000000; stroke-width:0; stroke-opacity:1; 
stroke-linecap:round; stroke-linejoin:round;">
<polyline style="fill-rule:evenodd;"
points="75255,36948
75255,36279
75925,36279
75925,36948
75255,36948
" /> 
</g>
<g style="fill:#000000; fill-opacity:1.0; 
stroke:#000000; stroke-width:669.291; stroke-opacity:1; 
stroke-linecap:round; stroke-linejoin:round;">
</g>
<g style="fill:#000000; fill-opacity:0.0; 
stroke:#000000; stroke-width:669.291; stroke-opacity:1; 
stroke-linecap:round; stroke-linejoin:round;">
<path d="M75590 37614
L75590 37614
" />
<path d="M75590 38614
L75590 38614
" />
<path d="M75590 39614
L75590 39614
" />
<path d="M75590 40614
L75590 40614
" />
<path d="M75590 41614
L75590 41614
" />
<path d="M75590 42614
L75590 42614
" />
<path d="M75590 43614
L75590 43614
" />
</g>
<g style="fill:#000000; fill-opacity:0.0; 
stroke:#000000; stroke-width:0; stroke-opacity:1; 
stroke-linecap:round; stroke-linejoin:round;">
</g>
<g style="fill:#000000; fill-opacity:1.0; 
stroke:#000000; stroke-width:0; stroke-opacity:1; 
stroke-linecap:round; stroke-linejoin:round;">
<polyline style="fill-rule:evenodd;"
points="75255,46003
75255,45334
75925,45334
75925,46003
75255,46003
" /> 
</g>
<g style="fill:#000000; fill-opacity:1.0; 
stroke:#000000; stroke-width:669.291; stroke-opacity:1; 
stroke-linecap:round; stroke-linejoin:round;">
</g>
<g style="fill:#000000; fill-opacity:0.0; 
stroke:#000000; stroke-width:669.291; stroke-opacity:1; 
stroke-linecap:round; stroke-linejoin:round;">
<path d="M75590 46669
L75590 46669
" />
<path d="M75590 47669
L75590 47669
" />
<path d="M75590 48669
L75590 48669
" />
<path d="M75590 49669
L75590 49669
" />
<path d="M75590 50669
L75590 50669
" />
</g>
<g style="fill:#000000; fill-opacity:0.0; 
stroke:#000000; stroke-width:0; stroke-opacity:1; 
stroke-linecap:round; stroke-linejoin:round;">
</g>
<g style="fill:#000000; fill-opacity:1.0; 
stroke:#000000; stroke-width:0; stroke-opacity:1; 
stroke-linecap:round; stroke-linejoin:round;">
<polyline style="fill-rule:evenodd;"
points="93759,44035
93759,43366
94429,43366
94429,44035
93759,44035
" /> 
</g>
<g style="fill:#000000; fill-opacity:1.0; 
stroke:#000000; stroke-width:669.291; stroke-opacity:1; 
stroke-linecap:round; stroke-linejoin:round;">
</g>
<g style="fill:#000000; fill-opacity:0.0; 
stroke:#000000; stroke-width:669.291; stroke-opacity:1; 
stroke-linecap:round; stroke-linejoin:round;">
<path d="M94094 44700
L94094 44700
" />
<path d="M94094 45700
L94094 45700
" />
<path d="M94094 46700
L94094 46700
" />
<path d="M94094 47700
L94094 47700
" />
<path d="M94094 48700
L94094 48700
" />
<path d="M94094 49700
L94094 49700
" />
<path d="M94094 50700
L94094 50700
" />
</g>
<g style="fill:#000000; fill-opacity:0.0; 
stroke:#000000; stroke-width:0; stroke-opacity:1; 
stroke-linecap:round; stroke-linejoin:round;">
</g>
<g style="fill:#000000; fill-opacity:1.0; 
stroke:#000000; stroke-width:0; stroke-opacity:1; 
stroke-linecap:round; stroke-linejoin:round;">
<polyline style="fill-rule:evenodd;"
points="77992,49921
77992,48503
78700,48503
78700,49921
77992,49921
" /> 
</g>
<g style="fill:#000000; fill-opacity:1.0; 
stroke:#000000; stroke-width:708.661; stroke-opacity:1; 
stroke-linecap:round; stroke-linejoin:round;">
</g>
<g style="fill:#000000; fill-opacity:0.0; 
stroke:#000000; stroke-width:708.661; stroke-opacity:1; 
stroke-linecap:round; stroke-linejoin:round;">
<path d="M79724 48858
L79724 49566
" />
</g>
<g style="fill:#000000; fill-opacity:0.0; 
stroke:#000000; stroke-width:0; stroke-opacity:1; 
stroke-linecap:round; stroke-linejoin:round;">
</g>
<g style="fill:#000000; fill-opacity:1.0; 
stroke:#000000; stroke-width:0; stroke-opacity:1; 
stroke-linecap:round; stroke-linejoin:round;">
<polyline style="fill-rule:evenodd;"
points="81456,25866
81456,27283
80748,27283
80748,25866
81456,25866
" /> 
</g>
<g style="fill:#000000; fill-opacity:1.0; 
stroke:#000000; stroke-width:708.661; stroke-opacity:1; 
stroke-linecap:round; stroke-linejoin:round;">
</g>
<g style="fill:#000000; fill-opacity:0.0; 
stroke:#000000; stroke-width:708.661; stroke-opacity:1; 
stroke-linecap:round; stroke-linejoin:round;">
<path d="M79724 26929
L79724 26220
" />
<path d="M78346 26929
L78346 26220
" />
<path d="M76968 26929
L76968 26220
" />
</g>
<g style="fill:#000000; fill-opacity:0.0; 
stroke:#000000; stroke-width:0; stroke-opacity:1; 
stroke-linecap:round; stroke-linejoin:round;">
</g>
<g style="fill:#000000; fill-opacity:1.0; 
stroke:#000000; stroke-width:0; stroke-opacity:1; 
stroke-linecap:round; stroke-linejoin:round;">
<polyline style="fill-rule:evenodd;"
points="95236,26062
95236,27480
94527,27480
94527,26062
95236,26062
" /> 
</g>
<g style="fill:#000000; fill-opacity:1.0; 
stroke:#000000; stroke-width:708.661; stroke-opacity:1; 
stroke-linecap:round; stroke-linejoin:round;">
</g>
<g style="fill:#000000; fill-opacity:0.0; 
stroke:#000000; stroke-width:708.661; stroke-opacity:1; 
stroke-linecap:round; stroke-linejoin:round;">
<path d="M93503 27125
L93503 26417
" />
</g>
<g style="fill:#000000; fill-opacity:0.0; 
stroke:#000000; stroke-width:0; stroke-opacity:1; 
stroke-linecap:round; stroke-linejoin:round;">
</g>
<g style="fill:#000000; fill-opacity:1.0; 
stroke:#000000; stroke-width:0; stroke-opacity:1; 
stroke-linecap:round; stroke-linejoin:round;">
<polyline style="fill-rule:evenodd;"
points="90196,49921
90196,48503
90905,48503
90905,49921
90196,49921
" /> 
</g>
<g style="fill:#000000; fill-opacity:1.0; 
stroke:#000000; stroke-width:708.661; stroke-opacity:1; 
stroke-linecap:round; stroke-linejoin:round;">
</g>
<g style="fill:#000000; fill-opacity:0.0; 
stroke:#000000; stroke-width:708.661; stroke-opacity:1; 
stroke-linecap:round; stroke-linejoin:round;">
<path d="M91929 48858
L91929 49566
" />
</g>
<g style="fill:#000000; fill-opacity:0.0; 
stroke:#000000; stroke-width:0; stroke-opacity:1; 
stroke-linecap:round; stroke-linejoin:round;">
</g>
<g style="fill:#000000; fill-opacity:1.0; 
stroke:#000000; stroke-width:0; stroke-opacity:1; 
stroke-linecap:round; stroke-linejoin:round;">
<polyline style="fill-rule:evenodd;"
points="93759,33011
93759,32342
94429,32342
94429,33011
93759,33011
" /> 
</g>
<g style="fill:#000000; fill-opacity:1.0; 
stroke:#000000; stroke-width:669.291; stroke-opacity:1; 
stroke-linecap:round; stroke-linejoin:round;">
</g>
<g style="fill:#000000; fill-opacity:0.0; 
stroke:#000000; stroke-width:669.291; stroke-opacity:1; 
stroke-linecap:round; stroke-linejoin:round;">
<path d="M94094 33677
L94094 33677
" />
<path d="M94094 34677
L94094 34677
" />
<path d="M94094 35677
L94094 35677
" />
<path d="M94094 36677
L94094 36677
" />
<path d="M94094 37677
L94094 37677
" />
<path d="M94094 38677
L94094 38677
" />
<path d="M94094 39677
L94094 39677
" />
<path d="M94094 40677
L94094 40677
" />
<path d="M94094 41677
L94094 41677
" />
</g>
<g style="fill:#000000; fill-opacity:0.0; 
stroke:#000000; stroke-width:354.331; stroke-opacity:1; 
stroke-linecap:round; stroke-linejoin:round;">
<path d="M86102 37901
L86338 37901
" />
<path d="M86102 38401
L86338 38401
" />
</g>
<g style="fill:#000000; fill-opacity:0.0; 
stroke:#000000; stroke-width:0; stroke-opacity:1; 
stroke-linecap:round; stroke-linejoin:round;">
</g>
<g style="fill:#000000; fill-opacity:1.0; 
stroke:#000000; stroke-width:0; stroke-opacity:1; 
stroke-linecap:round; stroke-linejoin:round;">
<polyline style="fill-rule:evenodd;"
points="86515,37578
85925,37578
85925,37224
86515,37224
86515,37578
" /> 
<polyline style="fill-rule:evenodd;"
points="86845,52368
86845,51568
87445,51568
87445,52368
86845,52368
" /> 
<polyline style="fill-rule:evenodd;"
points="88145,52368
88145,51568
88745,51568
88745,52368
88145,52368
" /> 
<polyline style="fill-rule:evenodd;"
points="84258,50162
83458,50162
83458,49562
84258,49562
84258,50162
" /> 
<polyline style="fill-rule:evenodd;"
points="84258,48862
83458,48862
83458,48262
84258,48262
84258,48862
" /> 
<polyline style="fill-rule:evenodd;"
points="79127,36057
79927,36057
79927,36657
79127,36657
79127,36057
" /> 
<polyline style="fill-rule:evenodd;"
points="79127,37357
79927,37357
79927,37957
79127,37957
79127,37357
" /> 
<polyline style="fill-rule:evenodd;"
points="83864,37957
83064,37957
83064,37357
83864,37357
83864,37957
" /> 
<polyline style="fill-rule:evenodd;"
points="83864,36657
83064,36657
83064,36057
83864,36057
83864,36657
" /> 
<polyline style="fill-rule:evenodd;"
points="90320,37395
90320,38195
89720,38195
89720,37395
90320,37395
" /> 
<polyline style="fill-rule:evenodd;"
points="89020,37395
89020,38195
88420,38195
88420,37395
89020,37395
" /> 
<polyline style="fill-rule:evenodd;"
points="98784,34836
98784,35636
98184,35636
98184,34836
98784,34836
" /> 
<polyline style="fill-rule:evenodd;"
points="97484,34836
97484,35636
96884,35636
96884,34836
97484,34836
" /> 
</g>
<g style="fill:#000000; fill-opacity:1.0; 
stroke:#000000; stroke-width:629.921; stroke-opacity:1; 
stroke-linecap:round; stroke-linejoin:round;">
</g>
<g style="fill:#000000; fill-opacity:0.0; 
stroke:#000000; stroke-width:629.921; stroke-opacity:1; 
stroke-linecap:round; stroke-linejoin:round;">
<path d="M88279 33858
L88003 33858
" />
<path d="M88279 29858
L88003 29858
" />
<path d="M91279 33858
L91003 33858
" />
<path d="M91279 29858
L91003 29858
" />
<path d="M88279 28858
L88003 28858
" />
<path d="M91279 28858
L91003 28858
" />
<path d="M82374 33858
L82098 33858
" />
<path d="M82374 29858
L82098 29858
" />
<path d="M85374 33858
L85098 33858
" />
<path d="M85374 29858
L85098 29858
" />
<path d="M82374 28858
L82098 28858
" />
<path d="M85374 28858
L85098 28858
" />
<path d="M75681 32874
L75405 32874
" />
<path d="M75681 28874
L75405 28874
" />
<path d="M78681 32874
L78405 32874
" />
<path d="M78681 28874
L78405 28874
" />
<path d="M75681 27874
L75405 27874
" />
<path d="M78681 27874
L78405 27874
" />
</g>
<g style="fill:#000000; fill-opacity:1.0; 
stroke:#000000; stroke-width:0; stroke-opacity:1; 
stroke-linecap:round; stroke-linejoin:round;">
<circle cx="83858.3" cy="32086.6" r="354.331" /> 
</g>
<g style="fill:#000000; fill-opacity:1.0; 
stroke:#000000; stroke-width:39.3701; stroke-opacity:1; 
stroke-linecap:round; stroke-linejoin:round;">
</g>
<g style="fill:#000000; fill-opacity:1.0; 
stroke:#000000; stroke-width:0; stroke-opacity:1; 
stroke-linecap:round; stroke-linejoin:round;">
<circle cx="76968.5" cy="30315" r="354.331" /> 
</g>
<g style="fill:#000000; fill-opacity:1.0; 
stroke:#000000; stroke-width:39.3701; stroke-opacity:1; 
stroke-linecap:round; stroke-linejoin:round;">
</g>
<g style="fill:#000000; fill-opacity:1.0; 
stroke:#000000; stroke-width:0; stroke-opacity:1; 
stroke-linecap:round; stroke-linejoin:round;">
<circle cx="90157.5" cy="35433.1" r="354.331" /> 
</g>
<g style="fill:#000000; fill-opacity:1.0; 
stroke:#000000; stroke-width:39.3701; stroke-opacity:1; 
stroke-linecap:round; stroke-linejoin:round;">
</g>
<g style="fill:#000000; fill-opacity:1.0; 
stroke:#000000; stroke-width:0; stroke-opacity:1; 
stroke-linecap:round; stroke-linejoin:round;">
<circle cx="84645.7" cy="44881.9" r="354.331" /> 
</g>
<g style="fill:#000000; fill-opacity:1.0; 
stroke:#000000; stroke-width:39.3701; stroke-opacity:1; 
stroke-linecap:round; stroke-linejoin:round;">
</g>
<g style="fill:#000000; fill-opacity:1.0; 
stroke:#000000; stroke-width:0; stroke-opacity:1; 
stroke-linecap:round; stroke-linejoin:round;">
<circle cx="77165.4" cy="41732.3" r="354.331" /> 
</g>
<g style="fill:#000000; fill-opacity:1.0; 
stroke:#000000; stroke-width:39.3701; stroke-opacity:1; 
stroke-linecap:round; stroke-linejoin:round;">
</g>
<g style="fill:#000000; fill-opacity:1.0; 
stroke:#000000; stroke-width:0; stroke-opacity:1; 
stroke-linecap:round; stroke-linejoin:round;">
<circle cx="82874" cy="26574.8" r="354.331" /> 
</g>
<g style="fill:#000000; fill-opacity:1.0; 
stroke:#000000; stroke-width:39.3701; stroke-opacity:1; 
stroke-linecap:round; stroke-linejoin:round;">
</g>
<g style="fill:#000000; fill-opacity:1.0; 
stroke:#000000; stroke-width:0; stroke-opacity:1; 
stroke-linecap:round; stroke-linejoin:round;">
<circle cx="89763.8" cy="27952.8" r="354.331" /> 
</g>
<g style="fill:#000000; fill-opacity:1.0; 
stroke:#000000; stroke-width:39.3701; stroke-opacity:1; 
stroke-linecap:round; stroke-linejoin:round;">
</g>
<g style="fill:#000000; fill-opacity:1.0; 
stroke:#000000; stroke-width:0; stroke-opacity:1; 
stroke-linecap:round; stroke-linejoin:round;">
<circle cx="89173.2" cy="30905.5" r="354.331" /> 
</g>
<g style="fill:#000000; fill-opacity:1.0; 
stroke:#000000; stroke-width:39.3701; stroke-opacity:1; 
stroke-linecap:round; stroke-linejoin:round;">
</g>
<g style="fill:#000000; fill-opacity:1.0; 
stroke:#000000; stroke-width:0; stroke-opacity:1; 
stroke-linecap:round; stroke-linejoin:round;">
<circle cx="83858.3" cy="30905.5" r="354.331" /> 
</g>
<g style="fill:#000000; fill-opacity:1.0; 
stroke:#000000; stroke-width:39.3701; stroke-opacity:1; 
stroke-linecap:round; stroke-linejoin:round;">
</g>
<g style="fill:#000000; fill-opacity:1.0; 
stroke:#000000; stroke-width:0; stroke-opacity:1; 
stroke-linecap:round; stroke-linejoin:round;">
<circle cx="83070.9" cy="45275.6" r="354.331" /> 
</g>
<g style="fill:#000000; fill-opacity:1.0; 
stroke:#000000; stroke-width:39.3701; stroke-opacity:1; 
stroke-linecap:round; stroke-linejoin:round;">
</g>
<g style="fill:#000000; fill-opacity:1.0; 
stroke:#000000; stroke-width:0; stroke-opacity:1; 
stroke-linecap:round; stroke-linejoin:round;">
<circle cx="89763.8" cy="46850.4" r="354.331" /> 
</g>
<g style="fill:#000000; fill-opacity:1.0; 
stroke:#000000; stroke-width:39.3701; stroke-opacity:1; 
stroke-linecap:round; stroke-linejoin:round;">
</g>
<g style="fill:#000000; fill-opacity:1.0; 
stroke:#000000; stroke-width:0; stroke-opacity:1; 
stroke-linecap:round; stroke-linejoin:round;">
<circle cx="84645.7" cy="40551.2" r="354.331" /> 
</g>
<g style="fill:#000000; fill-opacity:1.0; 
stroke:#000000; stroke-width:39.3701; stroke-opacity:1; 
stroke-linecap:round; stroke-linejoin:round;">
</g>
<g style="fill:#000000; fill-opacity:1.0; 
stroke:#000000; stroke-width:0; stroke-opacity:1; 
stroke-linecap:round; stroke-linejoin:round;">
<circle cx="92519.7" cy="39763.8" r="354.331" /> 
</g>
<g style="fill:#000000; fill-opacity:1.0; 
stroke:#000000; stroke-width:39.3701; stroke-opacity:1; 
stroke-linecap:round; stroke-linejoin:round;">
</g>
<g style="fill:#000000; fill-opacity:1.0; 
stroke:#000000; stroke-width:0; stroke-opacity:1; 
stroke-linecap:round; stroke-linejoin:round;">
<circle cx="85433.1" cy="39763.8" r="354.331" /> 
</g>
<g style="fill:#000000; fill-opacity:1.0; 
stroke:#000000; stroke-width:39.3701; stroke-opacity:1; 
stroke-linecap:round; stroke-linejoin:round;">
</g>
<g style="fill:#000000; fill-opacity:1.0; 
stroke:#000000; stroke-width:196.85; stroke-opacity:1; 
stroke-linecap:round; stroke-linejoin:round;">
</g>
<g style="fill:#000000; fill-opacity:0.0; 
stroke:#000000; stroke-width:196.85; stroke-opacity:1; 
stroke-linecap:round; stroke-linejoin:round;">
<path d="M88582 51000
L88582 51831
" />
<path d="M88582 51831
L88445 51968
" />
<path d="M82889 49212
L83208 49212
" />
<path d="M83208 49212
L83858 48562
" />
<path d="M78559 37007
L78559 37614
" />
<path d="M78602 37657
L79527 37657
" />
<path d="M78559 37614
L78602 37657
" />
<path d="M82102 37007
L82814 37007
" />
<path d="M82814 37007
L83464 36357
" />
<path d="M85236 29858
L85236 31889
" />
<path d="M85039 32086
L83858 32086
" />
<path d="M85236 31889
L85039 32086
" />
<path d="M78543 28874
L78015 28874
" />
<path d="M76968 29921
L76968 30314
" />
<path d="M78015 28874
L76968 29921
" />
<path d="M85236 29858
L85236 29921
" />
<path d="M91141 29858
L90417 29858
" />
<path d="M90417 29858
L90157 30118
" />
<path d="M90157 30118
L90157 35433
" />
<path d="M81496 41732
L77165 41732
" />
<path d="M84645 44881
L81496 41732
" />
<path d="M76047 40614
L75590 40614
" />
<path d="M77165 41732
L76047 40614
" />
<path d="M75653 40551
L75590 40614
" />
<path d="M88141 28858
L88858 28858
" />
<path d="M82874 26574
L81102 26574
" />
<path d="M88858 28858
L89763 27952
" />
<path d="M78346 26574
L78346 27677
" />
<path d="M78346 27677
L78543 27874
" />
<path d="M78543 27874
L78543 27559
" />
<path d="M78543 27559
L78346 27755
" />
<path d="M86220 37901
L88613 37901
" />
<path d="M88613 37901
L88720 37795
" />
<path d="M81496 31692
L83070 31692
" />
<path d="M88141 31937
L88141 32133
" />
<path d="M89173 30905
L88141 31937
" />
<path d="M83070 31692
L83858 30905
" />
<path d="M88141 29858
L88141 32133
" />
<path d="M85645 38401
L86220 38401
" />
<path d="M88141 32133
L86220 34055
" />
<path d="M86220 34055
L86220 35629
" />
<path d="M86220 35629
L85236 36614
" />
<path d="M85236 36614
L85236 37992
" />
<path d="M85236 37992
L85645 38401
" />
<path d="M75543 28874
L75543 30858
" />
<path d="M82236 30952
L82236 29858
" />
<path d="M81496 31692
L82236 30952
" />
<path d="M76377 31692
L81496 31692
" />
<path d="M75543 30858
L76377 31692
" />
<path d="M98244 33267
L98244 34176
" />
<path d="M98244 34176
L97184 35236
" />
<path d="M98381 33130
L98244 33267
" />
<path d="M89763 48425
L90551 49212
" />
<path d="M89370 48031
L89763 48425
" />
<path d="M85826 48031
L89370 48031
" />
<path d="M83070 45275
L85826 48031
" />
<path d="M90944 47637
L91929 48622
" />
<path d="M90551 47637
L90944 47637
" />
<path d="M89763 46850
L90551 47637
" />
<path d="M91929 48622
L91929 49212
" />
<path d="M91732 49015
L91929 49212
" />
<path d="M83070 50787
L79921 50787
" />
<path d="M79724 50590
L79724 49212
" />
<path d="M79921 50787
L79724 50590
" />
<path d="M83070 51968
L83070 50787
" />
<path d="M86070 51968
L87145 51968
" />
<path d="M83858 49862
L85689 49862
" />
<path d="M86070 50244
L86070 50787
" />
<path d="M85689 49862
L86070 50244
" />
<path d="M77165 47244
L77165 48031
" />
<path d="M77165 48031
L78346 49212
" />
<path d="M77165 45669
L77165 47244
" />
<path d="M80165 47244
L80165 46700
" />
<path d="M79527 35629
L79527 36357
" />
<path d="M79133 35236
L79527 35629
" />
<path d="M75196 35236
L79133 35236
" />
<path d="M74409 36023
L75196 35236
" />
<path d="M74409 44291
L74409 36023
" />
<path d="M74803 44685
L74409 44291
" />
<path d="M78149 44685
L74803 44685
" />
<path d="M80165 46700
L78149 44685
" />
<path d="M83464 37657
L84114 37657
" />
<path d="M84645 38188
L84645 40551
" />
<path d="M84114 37657
L84645 38188
" />
<path d="M94094 39677
L92606 39677
" />
<path d="M92606 39677
L92519 39763
" />
<path d="M91858 40677
L94094 40677
" />
<path d="M90944 39763
L91858 40677
" />
<path d="M85433 39763
L90944 39763
" />
<path d="M94094 41677
L95330 41677
" />
<path d="M91732 37795
L90020 37795
" />
<path d="M92519 37007
L91732 37795
" />
<path d="M92519 32283
L92519 37007
" />
<path d="M93307 31496
L92519 32283
" />
<path d="M94881 31496
L93307 31496
" />
<path d="M95669 32283
L94881 31496
" />
<path d="M95669 41338
L95669 32283
" />
<path d="M95330 41677
L95669 41338
" />
<path d="M89173 26574
L90944 26574
" />
<path d="M92125 32874
L91141 33858
" />
<path d="M92125 27755
L92125 32874
" />
<path d="M90944 26574
L92125 27755
" />
<path d="M87795 26574
L87795 27559
" />
<path d="M86811 32283
L85236 33858
" />
<path d="M86811 28543
L86811 32283
" />
<path d="M87795 27559
L86811 28543
" />
<path d="M80118 32874
L78543 32874
" />
<path d="M85236 32874
L80118 32874
" />
<path d="M86417 31692
L85236 32874
" />
<path d="M86417 26574
L86417 31692
" />
<path d="M76968 26574
L76968 25787
" />
<path d="M85039 25590
L85039 26574
" />
<path d="M84645 25196
L85039 25590
" />
<path d="M77559 25196
L84645 25196
" />
<path d="M76968 25787
L77559 25196
" />
<path d="M98484 35236
L99637 35236
" />
<path d="M99637 34055
L99637 35236
" />
<path d="M99637 31299
L99637 34055
" />
<path d="M99637 35236
L99637 50165
" />
<path d="M99637 50165
L96259 53543
" />
<path d="M96259 53543
L75000 53543
" />
<path d="M75000 53543
L74409 52952
" />
<path d="M74409 52952
L74409 46456
" />
<path d="M74409 46456
L75196 45669
" />
<path d="M75196 45669
L75590 45669
" />
<path d="M98650 35070
L98484 35236
" />
<path d="M99637 31299
L99637 31133
" />
<path d="M98516 35204
L98484 35236
" />
<path d="M79724 26574
L79724 27952
" />
<path d="M80629 28858
L82236 28858
" />
<path d="M79724 27952
L80629 28858
" />
<path d="M93503 26771
L93503 29527
" />
<path d="M95275 31299
L97637 31299
" />
<path d="M93503 29527
L95275 31299
" />
<path d="M93503 26771
L93503 26181
" />
</g>
<g style="fill:#000000; fill-opacity:1.0; 
stroke:#000000; stroke-width:100; stroke-opacity:1; 
stroke-linecap:round; stroke-linejoin:round;">
<polyline style="fill-rule:evenodd;"
points="100901,53657
96638,53657
99884,50411
99884,50411
99959,50298
99986,50165
99986,31787
100076,31726
100207,31530
100253,31299
100207,31067
100076,30871
99880,30740
99649,30694
99625,30694
99394,30740
99198,30871
99136,30965
98995,30811
98781,30712
98687,30759
98687,31249
98695,31249
98695,31349
98687,31349
98687,31838
98781,31886
98995,31786
99136,31632
99198,31726
99289,31787
99289,34887
99039,34887
99039,34836
99022,34743
98967,34658
98883,34601
98784,34581
98332,34581
98490,34423
98490,34423
98565,34310
98584,34217
98592,34176
98592,34176
98592,33773
98756,33610
98848,33388
98848,33148
98756,32925
98586,32755
98364,32663
98124,32663
97902,32755
97832,32824
97810,32771
97740,32701
97648,32663
97356,32663
97294,32725
97294,33217
97301,33217
97301,33317
97294,33317
97294,33809
97356,33872
97648,33872
97740,33833
97810,33763
97832,33710
97895,33774
97895,34032
97346,34581
96884,34581
96792,34598
96706,34653
96649,34737
96629,34836
96629,35636
96647,35728
96701,35813
96785,35871
96884,35891
97484,35891
97577,35873
97662,35818
97719,35735
97739,35636
97739,35174
97929,34983
97929,35636
97947,35728
98001,35813
98085,35871
98184,35891
98784,35891
98877,35873
98962,35818
99019,35735
99039,35636
99039,35584
99289,35584
99289,50021
96115,53194
75144,53194
74757,52808
74757,46601
75134,46223
75156,46238
75183,46244
75165,46255
75038,46445
74994,46669
75038,46893
75165,47082
75295,47169
75165,47255
75038,47445
74994,47669
75038,47893
75165,48082
75295,48169
75165,48255
75038,48445
74994,48669
75038,48893
75165,49082
75295,49169
75165,49255
75038,49445
74994,49669
75038,49893
75165,50082
75295,50169
75165,50255
75038,50445
74994,50669
75038,50893
75165,51082
75355,51209
75579,51253
75602,51253
75825,51209
76015,51082
76142,50893
76186,50669
76142,50445
76015,50255
75885,50169
76015,50082
76142,49893
76186,49669
76142,49445
76015,49255
75885,49169
76015,49082
76142,48893
76186,48669
76142,48445
76015,48255
75885,48169
76015,48082
76142,47893
76186,47669
76142,47445
76015,47255
75885,47169
76015,47082
76142,46893
76186,46669
76142,46445
76015,46255
75999,46244
76017,46241
76102,46186
76160,46103
76180,46003
76180,45354
76595,45354
76595,45984
76612,46076
76667,46161
76751,46219
76816,46232
76816,46680
76757,46691
76672,46746
76615,46829
76595,46929
76595,47559
76612,47651
76667,47736
76751,47793
76816,47807
76816,48031
76816,48031
76833,48116
76843,48164
76916,48273
76918,48277
77737,49096
77737,49921
77754,50013
77809,50098
77892,50156
77992,50176
78700,50176
78793,50158
78878,50103
78935,50020
78955,49921
78955,48839
79120,48839
79120,49585
79166,49816
79297,50013
79375,50065
79375,50590
79375,50590
79393,50678
79402,50723
79478,50836
79674,51033
79674,51033
79787,51109
79810,51113
79921,51135
79921,51135
82507,51135
82518,51195
82573,51280
82656,51337
82722,51350
82722,51404
82663,51416
82578,51470
82521,51554
82501,51653
82501,52283
82518,52376
82573,52461
82656,52518
82755,52538
83385,52538
83478,52520
83563,52466
83620,52382
83640,52283
83640,51968
85494,51968
85537,52184
85660,52367
85843,52490
86059,52533
86081,52533
86298,52490
86481,52367
86515,52316
86590,52316
86590,52368
86607,52461
86662,52546
86746,52603
86845,52623
87445,52623
87537,52605
87623,52551
87680,52467
87700,52368
87700,51568
87890,51568
87890,52368
87907,52461
87962,52546
88046,52603
88145,52623
88745,52623
88837,52605
88923,52551
88980,52467
89000,52368
89000,51568
88982,51475
88974,51462
89094,51342
89186,51120
89187,50880
89095,50658
89025,50588
89078,50566
89148,50495
89187,50404
89187,50112
89124,50050
88632,50050
88632,50057
88532,50057
88532,50050
88040,50050
87978,50112
87978,50404
88016,50495
88086,50566
88139,50588
88070,50657
87978,50879
87978,51119
88064,51328
88052,51331
87967,51385
87910,51469
87890,51568
87700,51568
87682,51475
87627,51390
87544,51333
87445,51313
86845,51313
86752,51331
86667,51385
86610,51469
86590,51568
86590,51620
86515,51620
86481,51569
86298,51446
86081,51403
86059,51403
85843,51446
85660,51569
85537,51752
85494,51968
83640,51968
83640,51653
83623,51560
83568,51475
83484,51418
83419,51405
83419,51350
83478,51339
83563,51285
83620,51201
83640,51102
83640,50472
83630,50417
84258,50417
84350,50400
84436,50345
84493,50261
84503,50211
85545,50211
85697,50363
85660,50387
85537,50571
85494,50787
85537,51003
85660,51186
85843,51309
86059,51352
86081,51352
86298,51309
86481,51186
86603,51003
86646,50787
86603,50571
86481,50387
86419,50346
86419,50244
86419,50244
86392,50110
86392,50110
86317,49997
86317,49997
85935,49616
85905,49595
87978,49595
87978,49887
88040,49950
88532,49950
88532,49458
88632,49458
88632,49950
89124,49950
89187,49887
89187,49595
89148,49504
89078,49433
88986,49395
88695,49395
88632,49458
88532,49458
88470,49395
88178,49395
88086,49433
88016,49504
87978,49595
85905,49595
85890,49585
85822,49540
85800,49536
85689,49514
85689,49514
84504,49514
84495,49469
84440,49384
84357,49327
84258,49307
83605,49307
83796,49117
84258,49117
84350,49100
84436,49045
84493,48961
84513,48862
84513,48262
84495,48169
84440,48084
84357,48027
84258,48007
83458,48007
83365,48025
83280,48079
83223,48163
83203,48262
83203,48688
83010,48608
82770,48608
82547,48699
82478,48769
82456,48716
82385,48646
82293,48608
82002,48608
81939,48670
81939,49162
81947,49162
81947,49262
81939,49262
81939,49754
82002,49816
82293,49816
82385,49778
82456,49708
82477,49655
82546,49724
82769,49816
83009,49817
83203,49736
83203,50162
83213,50217
82755,50217
82663,50234
82578,50289
82521,50373
82507,50438
80072,50438
80072,50065
80151,50013
80282,49816
80328,49585
80328,49325
81285,49325
81285,49616
81323,49708
81393,49778
81485,49816
81777,49816
81839,49754
81839,49262
81347,49262
81285,49325
80328,49325
80328,48839
80322,48808
81285,48808
81285,49100
81347,49162
81839,49162
81839,48670
81777,48608
81485,48608
81393,48646
81323,48716
81285,48808
80322,48808
80282,48608
80151,48412
79955,48281
79724,48235
79493,48281
79297,48412
79166,48608
79120,48839
78955,48839
78955,48503
78938,48411
78883,48326
78799,48269
78700,48249
77992,48249
77899,48266
77895,48268
77513,47887
77513,47807
77572,47796
77658,47741
77715,47658
77735,47559
77735,46929
77717,46836
77663,46751
77579,46694
77513,46681
77513,46232
77572,46221
77658,46166
77715,46083
77735,45984
77735,45354
77717,45261
77663,45176
77579,45119
77480,45099
76850,45099
76757,45116
76672,45171
76615,45255
76595,45354
76180,45354
76180,45334
76162,45242
76107,45156
76024,45099
75925,45079
75255,45079
75163,45097
75078,45151
75021,45235
75001,45334
75001,45389
74950,45422
74950,45422
74163,46210
74087,46323
74087,46323
74061,46456
74061,46456
74061,52952
74061,52952
74083,53063
74087,53086
74160,53194
74163,53199
74621,53657
73507,53657
73507,36023
74061,36023
74061,36023
74061,44291
74061,44291
74075,44363
74087,44424
74122,44477
74163,44537
74556,44931
74556,44931
74632,44981
74669,45006
74803,45033
74803,45033
78005,45033
79791,46819
79754,46844
79632,47027
79589,47244
79632,47460
79754,47643
79938,47766
80154,47809
80176,47809
80392,47766
80575,47643
80698,47460
80741,47244
80698,47027
80575,46844
80513,46803
80513,46700
80487,46567
80411,46454
80411,46454
80189,46231
80392,46191
80575,46068
80698,45885
80741,45669
80698,45453
80659,45395
82466,45395
82558,45617
82728,45787
82950,45879
83182,45880
85580,48277
85580,48277
85693,48353
85715,48357
85826,48379
85826,48379
89225,48379
89517,48671
89517,48671
89941,49096
89941,49921
89959,50013
90014,50098
90097,50156
90196,50176
90905,50176
90998,50158
91083,50103
91140,50020
91160,49921
91160,48503
91142,48411
91088,48326
91004,48269
90905,48249
90196,48249
90104,48266
90100,48268
90010,48178
90010,48178
89616,47785
89595,47771
89503,47709
89481,47705
89370,47683
89370,47683
85971,47683
85258,46970
89159,46970
89251,47192
89421,47362
89643,47454
89875,47454
90304,47884
90304,47884
90417,47959
90551,47986
90551,47986
90800,47986
91391,48577
91370,48608
91324,48839
91324,49585
91370,49816
91501,50013
91697,50144
91929,50190
92160,50144
92356,50013
92487,49816
92533,49585
92533,48839
92487,48608
92356,48412
92160,48281
92061,48261
91191,47391
91148,47363
91078,47315
91056,47311
90944,47289
90944,47289
90695,47289
90368,46961
90368,46730
90276,46508
90106,46338
89884,46246
89644,46245
89421,46337
89251,46507
89159,46729
89159,46970
85258,46970
83675,45387
83675,45155
83583,44933
83413,44763
83191,44671
82951,44671
82728,44762
82558,44932
82466,45154
82466,45395
80659,45395
80575,45269
80392,45147
80176,45104
80154,45104
79938,45147
79754,45269
79632,45453
79595,45638
78395,44438
78375,44424
78282,44363
78260,44358
78149,44336
78149,44336
74947,44336
74757,44147
74757,37614
74994,37614
75038,37837
75165,38027
75295,38114
75165,38200
75038,38390
74994,38614
75038,38837
75165,39027
75295,39114
75165,39200
75038,39390
74994,39614
75038,39837
75165,40027
75295,40114
75165,40200
75038,40390
74994,40614
75038,40837
75165,41027
75295,41114
75165,41200
75038,41390
74994,41614
75038,41837
75165,42027
75295,42114
75165,42200
75038,42390
74994,42614
75038,42837
75165,43027
75295,43114
75165,43200
75038,43390
74994,43614
75038,43837
75165,44027
75355,44154
75579,44198
75602,44198
75825,44154
76015,44027
76142,43837
76186,43614
76142,43390
76015,43200
75885,43114
76015,43027
76142,42837
76186,42614
76142,42390
76015,42200
75885,42114
76015,42027
76142,41837
76186,41614
76142,41390
76015,41200
75885,41114
75986,41046
76561,41620
76560,41851
76652,42074
76822,42244
77044,42336
77285,42336
77507,42244
77671,42080
81351,42080
84041,44770
84041,45001
84133,45223
84302,45393
84524,45486
84765,45486
84987,45394
85157,45224
85249,45002
85250,44762
85224,44700
93498,44700
93542,44924
93669,45114
93799,45200
93669,45287
93542,45477
93498,45700
93542,45924
93669,46114
93799,46200
93669,46287
93542,46477
93498,46700
93542,46924
93669,47114
93799,47200
93669,47287
93542,47477
93498,47700
93542,47924
93669,48114
93799,48200
93669,48287
93542,48477
93498,48700
93542,48924
93669,49114
93799,49200
93669,49287
93542,49477
93498,49700
93542,49924
93669,50114
93799,50200
93669,50287
93542,50477
93498,50700
93542,50924
93669,51114
93859,51240
94083,51285
94105,51285
94329,51240
94519,51114
94646,50924
94690,50700
94646,50477
94519,50287
94389,50200
94519,50114
94646,49924
94690,49700
94646,49477
94519,49287
94389,49200
94519,49114
94646,48924
94690,48700
94646,48477
94519,48287
94389,48200
94519,48114
94646,47924
94690,47700
94646,47477
94519,47287
94389,47200
94519,47114
94646,46924
94690,46700
94646,46477
94519,46287
94389,46200
94519,46114
94646,45924
94690,45700
94646,45477
94519,45287
94389,45200
94519,45114
94646,44924
94690,44700
94646,44477
94519,44287
94502,44276
94521,44272
94606,44218
94663,44134
94684,44035
94684,43366
94666,43273
94611,43188
94528,43131
94429,43111
93759,43111
93667,43128
93582,43183
93525,43266
93504,43366
93504,44035
93522,44128
93577,44213
93660,44270
93687,44275
93669,44287
93542,44477
93498,44700
85224,44700
85158,44540
84988,44369
84766,44277
84533,44277
81742,41485
81721,41471
81629,41410
81607,41405
81496,41383
81496,41383
77671,41383
77508,41220
77286,41128
77053,41127
76293,40367
76274,40355
76180,40292
76158,40287
76060,40268
76015,40200
75885,40114
76015,40027
76142,39837
76186,39614
76142,39390
76015,39200
75885,39114
76015,39027
76142,38837
76186,38614
76142,38390
76015,38200
75885,38114
76015,38027
76142,37837
76186,37614
76142,37390
76015,37200
75999,37189
76017,37186
76102,37131
76110,37120
76954,37120
76954,37411
76992,37503
77063,37574
77154,37612
77446,37612
77509,37549
77509,37057
77017,37057
76954,37120
76110,37120
76160,37047
76180,36948
76180,36603
76954,36603
76954,36895
77017,36957
77509,36957
77509,36466
77446,36403
77154,36403
77063,36441
76992,36511
76954,36603
76180,36603
76180,36279
76162,36186
76107,36101
76024,36044
75925,36024
75255,36024
75163,36042
75078,36096
75021,36180
75001,36279
75001,36948
75018,37041
75073,37126
75156,37183
75183,37189
75165,37200
75038,37390
74994,37614
74757,37614
74757,36167
75341,35584
78989,35584
79179,35774
79179,35802
79127,35802
79034,35820
78949,35875
78892,35958
78872,36057
78872,36483
78679,36403
78439,36403
78217,36495
78147,36564
78125,36511
78054,36441
77963,36403
77671,36403
77609,36466
77609,36957
77616,36957
77616,37057
77609,37057
77609,37549
77671,37612
77963,37612
78054,37574
78125,37503
78147,37450
78210,37514
78210,37614
78210,37614
78223,37677
78237,37747
78311,37858
78312,37860
78356,37904
78356,37904
78469,37979
78491,37984
78602,38006
78602,38006
78881,38006
78890,38050
78944,38135
79028,38192
79127,38212
79927,38212
80020,38195
80105,38140
80162,38057
80182,37957
80182,37357
80165,37265
80110,37180
80026,37123
80013,37120
80498,37120
80498,37411
80536,37503
80606,37574
80698,37612
80989,37612
81052,37549
81052,37057
80560,37057
80498,37120
80013,37120
79927,37102
79163,37102
79163,36912
79927,36912
80020,36895
80105,36840
80162,36757
80182,36657
80182,36603
80498,36603
80498,36895
80560,36957
81052,36957
81052,36466
80989,36403
80698,36403
80606,36441
80536,36511
80498,36603
80182,36603
80182,36057
80165,35965
80110,35880
80026,35823
79927,35802
79875,35802
79875,35629
79875,35629
79849,35496
79819,35451
79773,35383
79773,35383
79380,34989
79301,34937
79267,34914
79245,34909
79133,34887
79133,34887
75196,34887
75196,34887
75063,34914
74950,34989
74950,34989
74163,35777
74087,35890
74087,35890
74061,36023
73507,36023
73507,33858
81519,33858
81562,34074
81685,34257
81868,34380
82084,34423
82387,34423
82603,34380
82787,34257
82909,34074
82952,33858
82909,33642
82787,33458
82603,33336
82387,33293
82084,33293
81868,33336
81685,33458
81562,33642
81519,33858
73507,33858
73507,32874
74826,32874
74869,33090
74992,33273
75175,33395
75391,33438
75694,33438
75911,33395
76094,33273
76216,33090
76259,32874
76216,32657
76094,32474
75911,32352
75694,32309
75391,32309
75175,32352
74992,32474
74869,32657
74826,32874
73507,32874
73507,27874
74826,27874
74869,28090
74992,28273
75142,28374
74992,28474
74869,28657
74826,28874
74869,29090
74992,29273
75175,29395
75194,29399
75194,30858
75194,30858
75213,30952
75221,30991
75252,31038
75296,31104
76131,31939
76131,31939
76244,32014
76266,32019
76377,32041
76377,32041
81496,32041
81496,32041
81496,32041
83070,32041
83070,32041
83182,32019
83204,32014
83254,31981
83253,32206
83345,32428
83442,32525
79128,32525
79094,32474
78911,32352
78694,32309
78391,32309
78175,32352
77992,32474
77869,32657
77826,32874
77869,33090
77992,33273
78175,33395
78391,33438
78694,33438
78911,33395
79094,33273
79128,33222
85236,33222
85236,33222
85347,33200
85369,33195
85478,33122
85308,33293
85084,33293
84868,33336
84685,33458
84562,33642
84519,33858
84562,34074
84685,34257
84868,34380
85084,34423
85387,34423
85603,34380
85787,34257
85872,34130
85872,35485
84989,36367
84914,36480
84914,36480
84887,36614
84887,36614
84887,37938
84360,37411
84247,37335
84225,37331
84114,37309
84114,37309
84110,37309
84102,37265
84047,37180
83963,37123
83864,37102
83212,37102
83402,36912
83864,36912
83957,36895
84042,36840
84099,36757
84119,36657
84119,36057
84102,35965
84047,35880
83963,35823
83864,35802
83064,35802
82971,35820
82886,35875
82829,35958
82809,36057
82809,36520
82670,36659
82608,36659
82445,36495
82223,36403
81982,36403
81760,36495
81690,36564
81668,36511
81598,36441
81506,36403
81214,36403
81152,36466
81152,36957
81160,36957
81160,37057
81152,37057
81152,37549
81214,37612
81506,37612
81598,37574
81668,37503
81690,37450
81759,37519
81981,37612
82222,37612
82444,37520
82608,37356
82809,37356
82809,37357
82809,37957
82827,38050
82881,38135
82965,38192
83064,38212
83864,38212
83957,38195
84042,38140
84067,38103
84297,38333
84297,40045
84133,40208
84041,40430
84041,40670
84133,40893
84302,41063
84524,41155
84765,41155
84987,41063
85157,40893
85249,40671
85250,40431
85205,40323
85312,40368
85552,40368
85774,40276
85939,40112
90800,40112
91611,40923
91611,40923
91670,40962
91724,40999
91858,41025
93626,41025
93669,41090
93799,41177
93669,41263
93542,41453
93498,41677
93542,41900
93669,42090
93859,42217
94083,42261
94105,42261
94329,42217
94519,42090
94562,42025
95330,42025
95330,42025
95441,42003
95464,41999
95577,41923
95915,41584
95915,41584
95991,41471
95995,41449
96017,41338
96017,41338
96017,33380
96639,33380
96639,33671
96677,33763
96748,33833
96840,33872
97131,33872
97194,33809
97194,33317
96702,33317
96639,33380
96017,33380
96017,32863
96639,32863
96639,33155
96702,33217
97194,33217
97194,32725
97131,32663
96840,32663
96748,32701
96677,32771
96639,32863
96017,32863
96017,32283
96017,32283
95991,32150
95962,32107
95915,32037
95915,32037
95526,31647
97028,31647
97028,31653
97045,31746
97100,31831
97184,31888
97283,31908
97992,31908
98084,31891
98169,31836
98226,31752
98231,31732
98280,31786
98494,31886
98587,31838
98587,31349
98579,31349
98579,31249
98587,31249
98587,30759
98494,30712
98280,30811
98231,30864
98229,30852
98174,30767
98091,30710
97992,30689
97283,30689
97190,30707
97105,30762
97048,30845
97028,30944
97028,30950
95419,30950
93852,29383
93852,27624
93931,27572
94062,27376
94108,27144
94108,26884
94277,26884
94277,27530
94315,27621
94385,27692
94477,27730
94769,27730
94831,27667
94831,26821
94931,26821
94931,27667
94994,27730
95285,27730
95377,27692
95448,27621
95486,27530
95486,26884
95423,26821
94931,26821
94831,26821
94340,26821
94277,26884
94108,26884
94108,26398
94062,26167
93959,26013
94277,26013
94277,26659
94340,26721
94831,26721
94831,25875
94931,25875
94931,26721
95423,26721
95486,26659
95486,26013
95448,25921
95377,25851
95285,25812
94994,25812
94931,25875
94831,25875
94769,25812
94477,25812
94385,25851
94315,25921
94277,26013
93959,26013
93931,25971
93735,25840
93503,25794
93272,25840
93076,25971
92945,26167
92899,26398
92899,27144
92945,27376
93076,27572
93155,27624
93155,29527
93155,29527
93169,29599
93182,29660
93254,29769
93257,29773
94631,31147
93307,31147
93307,31147
93173,31174
93060,31249
93060,31249
92474,31835
92474,27755
92474,27755
92452,27644
92447,27622
92372,27509
92372,27509
91191,26328
91078,26252
91056,26248
90944,26226
90944,26226
89782,26226
89782,25866
89765,25773
89710,25688
89626,25631
89527,25611
88818,25611
88726,25628
88641,25683
88584,25766
88564,25866
88564,27283
88581,27376
88636,27461
88719,27518
88818,27538
89323,27538
89251,27609
89159,27832
89159,28064
88721,28502
88692,28458
88509,28336
88293,28293
87990,28293
87773,28336
87590,28458
87468,28642
87425,28858
87468,29074
87590,29257
87741,29358
87590,29458
87468,29642
87425,29858
87468,30074
87590,30257
87773,30380
87793,30384
87793,31937
87793,31937
87793,31937
87793,31989
85974,33808
85950,33844
85915,33671
87057,32529
87057,32529
87132,32416
87145,32352
87159,32283
87159,32283
87159,28687
88041,27805
88041,27805
88117,27692
88130,27627
88143,27559
88143,27559
88143,27427
88222,27375
88353,27179
88399,26947
88399,26201
88353,25970
88222,25774
88026,25643
87795,25597
87564,25643
87367,25774
87236,25970
87190,26201
87190,26947
87236,27179
87367,27375
87438,27422
86765,28095
86765,27427
86844,27375
86975,27179
87021,26947
87021,26201
86975,25970
86844,25774
86648,25643
86417,25597
86186,25643
85989,25774
85858,25970
85812,26201
85812,26947
85858,27179
85989,27375
86068,27427
86068,31548
85485,32132
85558,32023
85570,31961
85584,31889
85584,31889
85584,30384
85603,30380
85787,30257
85909,30074
85952,29858
85909,29642
85787,29458
85636,29358
85787,29257
85909,29074
85952,28858
85909,28642
85787,28458
85603,28336
85387,28293
85084,28293
84868,28336
84685,28458
84562,28642
84519,28858
84562,29074
84685,29257
84835,29358
84685,29458
84562,29642
84519,29858
84562,30074
84685,30257
84868,30380
84887,30384
84887,31738
84364,31738
84201,31574
84011,31495
84200,31418
84370,31248
84462,31026
84462,30785
84370,30563
84201,30393
83979,30301
83738,30301
83516,30392
83346,30562
83254,30784
83253,31017
82926,31344
82337,31344
82482,31199
82482,31199
82558,31086
82584,30952
82584,30384
82603,30380
82787,30257
82909,30074
82952,29858
82909,29642
82787,29458
82636,29358
82787,29257
82909,29074
82952,28858
82909,28642
82787,28458
82603,28336
82387,28293
82084,28293
81868,28336
81685,28458
81651,28509
80774,28509
80072,27808
80072,27427
80151,27375
80282,27179
80328,26947
80328,26201
80282,25970
80213,25866
80493,25866
80493,27283
80510,27376
80565,27461
80648,27518
80748,27538
81456,27538
81549,27520
81634,27466
81691,27382
81711,27283
81711,26923
82367,26923
82531,27086
82753,27179
82993,27179
83215,27087
83386,26917
83478,26695
83478,26455
83386,26232
83216,26062
82994,25970
82754,25970
82532,26062
82367,26226
81711,26226
81711,25866
81694,25773
81639,25688
81555,25631
81456,25611
80748,25611
80655,25628
80570,25683
80513,25766
80493,25866
80213,25866
80151,25774
79955,25643
79724,25597
79493,25643
79297,25774
79166,25970
79120,26201
79120,26947
79166,27179
79297,27375
79375,27427
79375,27952
79375,27952
79385,28002
79402,28086
79475,28194
79478,28199
80383,29104
80383,29104
80495,29179
80496,29180
80629,29206
80629,29206
81651,29206
81685,29257
81835,29358
81685,29458
81562,29642
81519,29858
81562,30074
81685,30257
81868,30380
81887,30384
81887,30808
81351,31344
76522,31344
75891,30713
75891,30434
76364,30434
76455,30656
76625,30826
76847,30919
77088,30919
77310,30827
77480,30657
77572,30435
77572,30195
77481,29973
77445,29937
78062,29320
78175,29395
78391,29438
78694,29438
78911,29395
79094,29273
79216,29090
79259,28874
79216,28657
79094,28474
78943,28374
79094,28273
79216,28090
79259,27874
79216,27657
79094,27474
78911,27352
78803,27330
78904,27179
78950,26947
78950,26201
78904,25970
78773,25774
78577,25643
78346,25597
78115,25643
77919,25774
77788,25970
77742,26201
77742,26947
77788,27179
77919,27375
77998,27427
77998,27470
77992,27474
77869,27657
77826,27874
77869,28090
77992,28273
78142,28374
77992,28474
77949,28538
77882,28552
77769,28627
77769,28627
76722,29674
76646,29787
76645,29794
76626,29802
76456,29972
76364,30194
76364,30434
75891,30434
75891,29399
75911,29395
76094,29273
76216,29090
76259,28874
76216,28657
76094,28474
75943,28374
76094,28273
76216,28090
76259,27874
76216,27657
76094,27474
75911,27352
75694,27309
75391,27309
75175,27352
74992,27474
74869,27657
74826,27874
73507,27874
73507,26201
76364,26201
76364,26947
76410,27179
76541,27375
76737,27506
76968,27552
77199,27506
77395,27375
77526,27179
77572,26947
77572,26201
77526,25970
77427,25821
77703,25545
84501,25545
84683,25726
84612,25774
84481,25970
84435,26201
84435,26947
84481,27179
84612,27375
84808,27506
85039,27552
85270,27506
85466,27375
85597,27179
85643,26947
85643,26201
85597,25970
85466,25774
85387,25721
85387,25590
85387,25590
85361,25457
85325,25404
85285,25344
85285,25344
84892,24950
84779,24874
84756,24870
84645,24848
84645,24848
77559,24848
77425,24874
77312,24950
77312,24950
76722,25541
76646,25654
76646,25654
76635,25711
76541,25774
76410,25970
76364,26201
73507,26201
73507,24740
97680,24740
97751,25099
97955,25404
98260,25607
98619,25679
98656,25679
99015,25607
99320,25404
99523,25099
99595,24740
99523,24380
99320,24076
99015,23872
98656,23801
98619,23801
98260,23872
97955,24076
97751,24380
97680,24740
73507,24740
73507,23311
100901,23311
100901,53657
" /> 
<polyline style="fill-rule:evenodd;"
points="91777,27900
91777,28585
91692,28458
91509,28336
91293,28293
90990,28293
90773,28336
90590,28458
90468,28642
90425,28858
90468,29074
90590,29257
90741,29358
90590,29458
90556,29509
90417,29509
90417,29509
90306,29531
90283,29536
90170,29611
90170,29611
89911,29871
89835,29984
89835,29984
89809,30118
89809,30118
89809,34926
89645,35090
89553,35312
89553,35552
89644,35774
89814,35945
90036,36037
90277,36037
90499,35945
90669,35775
90761,35553
90761,35313
90670,35091
90505,34926
90505,34130
90590,34257
90773,34380
90990,34423
91293,34423
91509,34380
91692,34257
91815,34074
91858,33858
91821,33671
92171,33321
92171,36863
91587,37446
90574,37446
90574,37395
90557,37302
90502,37217
90419,37160
90320,37140
89720,37140
89627,37157
89542,37212
89485,37296
89465,37395
89465,38195
89482,38287
89537,38373
89620,38430
89720,38450
90320,38450
90412,38432
90497,38377
90554,38294
90574,38195
90574,38143
91732,38143
91732,38143
91843,38121
91865,38117
91978,38041
91978,38041
92766,37254
92766,37254
92841,37141
92845,37120
92868,37007
92868,37007
92868,32427
93451,31844
94737,31844
95320,32427
95320,41194
95186,41328
94562,41328
94519,41263
94389,41177
94519,41090
94646,40900
94690,40677
94646,40453
94519,40263
94389,40177
94519,40090
94646,39900
94690,39677
94646,39453
94519,39263
94389,39177
94519,39090
94646,38900
94690,38677
94646,38453
94519,38263
94389,38177
94519,38090
94646,37900
94690,37677
94646,37453
94519,37263
94389,37177
94519,37090
94646,36900
94690,36677
94646,36453
94519,36263
94389,36177
94519,36090
94646,35900
94690,35677
94646,35453
94519,35263
94389,35177
94519,35090
94646,34900
94690,34677
94646,34453
94519,34263
94389,34177
94519,34090
94646,33900
94690,33677
94646,33453
94519,33263
94502,33252
94521,33249
94606,33194
94663,33110
94684,33011
94684,32342
94666,32249
94611,32164
94528,32107
94429,32087
93759,32087
93667,32105
93582,32159
93525,32243
93504,32342
93504,33011
93522,33104
93577,33189
93660,33246
93687,33252
93669,33263
93542,33453
93498,33677
93542,33900
93669,34090
93799,34177
93669,34263
93542,34453
93498,34677
93542,34900
93669,35090
93799,35177
93669,35263
93542,35453
93498,35677
93542,35900
93669,36090
93799,36177
93669,36263
93542,36453
93498,36677
93542,36900
93669,37090
93799,37177
93669,37263
93542,37453
93498,37677
93542,37900
93669,38090
93799,38177
93669,38263
93542,38453
93498,38677
93542,38900
93669,39090
93799,39177
93669,39263
93626,39328
92939,39328
92862,39251
92640,39159
92400,39159
92177,39251
92007,39421
91915,39643
91915,39883
92007,40105
92176,40275
92304,40328
92002,40328
91191,39517
91078,39441
91056,39437
90944,39415
90944,39415
85939,39415
85775,39251
85553,39159
85313,39159
85091,39251
84994,39348
84994,38242
85399,38647
85399,38647
85482,38703
85512,38723
85645,38750
85645,38750
85859,38750
85928,38796
86091,38828
86349,38828
86512,38796
86651,38703
86743,38565
86776,38401
86746,38250
88175,38250
88182,38287
88237,38373
88320,38430
88420,38450
89020,38450
89112,38432
89197,38377
89254,38294
89274,38195
89274,37395
89257,37302
89202,37217
89119,37160
89020,37140
88420,37140
88327,37157
88242,37212
88185,37296
88165,37395
88165,37553
86765,37553
86765,37514
86703,37451
86270,37451
86270,37459
86170,37459
86170,37451
85737,37451
85675,37514
85675,37628
85711,37716
85697,37738
85664,37901
85670,37934
85584,37847
85584,37174
85675,37174
85675,37289
85737,37351
86170,37351
86170,37036
86270,37036
86270,37351
86703,37351
86765,37289
86765,37174
86727,37082
86657,37012
86565,36974
86332,36974
86270,37036
86170,37036
86107,36974
85875,36974
85783,37012
85713,37082
85675,37174
85584,37174
85584,36758
86466,35876
86466,35876
86542,35763
86559,35679
86568,35629
86568,35629
86568,34199
86910,33858
87425,33858
87468,34074
87590,34257
87773,34380
87990,34423
88293,34423
88509,34380
88692,34257
88815,34074
88858,33858
88815,33642
88692,33458
88509,33336
88293,33293
87990,33293
87773,33336
87590,33458
87468,33642
87425,33858
86910,33858
88388,32380
88388,32380
88463,32267
88473,32219
88490,32133
88490,32133
88490,32081
89061,31509
89292,31509
89515,31418
89685,31248
89777,31026
89777,30785
89685,30563
89516,30393
89293,30301
89053,30301
88831,30392
88661,30562
88569,30784
88568,31017
88490,31095
88490,30384
88509,30380
88692,30257
88815,30074
88858,29858
88815,29642
88692,29458
88542,29358
88692,29257
88726,29206
88858,29206
88858,29206
88969,29184
88991,29180
89104,29104
89104,29104
89652,28556
89883,28557
90105,28465
90275,28295
90368,28073
90368,27833
90276,27610
90106,27440
89884,27348
89769,27348
89782,27283
89782,26923
90800,26923
91777,27900
" /> 
</g>
<g style="fill:#FFFFFF; fill-opacity:1.0; 
stroke:#FFFFFF; stroke-width:100; stroke-opacity:1; 
stroke-linecap:round; stroke-linejoin:round;">
</g>
<g style="fill:#FFFFFF; fill-opacity:1.0; 
stroke:#FFFFFF; stroke-width:0; stroke-opacity:1; 
stroke-linecap:round; stroke-linejoin:round;">
<circle cx="83858.3" cy="32086.6" r="196.85" /> 
</g>
<g style="fill:#FFFFFF; fill-opacity:1.0; 
stroke:#FFFFFF; stroke-width:39.3701; stroke-opacity:1; 
stroke-linecap:round; stroke-linejoin:round;">
</g>
<g style="fill:#FFFFFF; fill-opacity:1.0; 
stroke:#FFFFFF; stroke-width:0; stroke-opacity:1; 
stroke-linecap:round; stroke-linejoin:round;">
<circle cx="76968.5" cy="30315" r="196.85" /> 
</g>
<g style="fill:#FFFFFF; fill-opacity:1.0; 
stroke:#FFFFFF; stroke-width:39.3701; stroke-opacity:1; 
stroke-linecap:round; stroke-linejoin:round;">
</g>
<g style="fill:#FFFFFF; fill-opacity:1.0; 
stroke:#FFFFFF; stroke-width:0; stroke-opacity:1; 
stroke-linecap:round; stroke-linejoin:round;">
<circle cx="90157.5" cy="35433.1" r="196.85" /> 
</g>
<g style="fill:#FFFFFF; fill-opacity:1.0; 
stroke:#FFFFFF; stroke-width:39.3701; stroke-opacity:1; 
stroke-linecap:round; stroke-linejoin:round;">
</g>
<g style="fill:#FFFFFF; fill-opacity:1.0; 
stroke:#FFFFFF; stroke-width:0; stroke-opacity:1; 
stroke-linecap:round; stroke-linejoin:round;">
<circle cx="84645.7" cy="44881.9" r="196.85" /> 
</g>
<g style="fill:#FFFFFF; fill-opacity:1.0; 
stroke:#FFFFFF; stroke-width:39.3701; stroke-opacity:1; 
stroke-linecap:round; stroke-linejoin:round;">
</g>
<g style="fill:#FFFFFF; fill-opacity:1.0; 
stroke:#FFFFFF; stroke-width:0; stroke-opacity:1; 
stroke-linecap:round; stroke-linejoin:round;">
<circle cx="77165.4" cy="41732.3" r="196.85" /> 
</g>
<g style="fill:#FFFFFF; fill-opacity:1.0; 
stroke:#FFFFFF; stroke-width:39.3701; stroke-opacity:1; 
stroke-linecap:round; stroke-linejoin:round;">
</g>
<g style="fill:#FFFFFF; fill-opacity:1.0; 
stroke:#FFFFFF; stroke-width:0; stroke-opacity:1; 
stroke-linecap:round; stroke-linejoin:round;">
<circle cx="82874" cy="26574.8" r="196.85" /> 
</g>
<g style="fill:#FFFFFF; fill-opacity:1.0; 
stroke:#FFFFFF; stroke-width:39.3701; stroke-opacity:1; 
stroke-linecap:round; stroke-linejoin:round;">
</g>
<g style="fill:#FFFFFF; fill-opacity:1.0; 
stroke:#FFFFFF; stroke-width:0; stroke-opacity:1; 
stroke-linecap:round; stroke-linejoin:round;">
<circle cx="89763.8" cy="27952.8" r="196.85" /> 
</g>
<g style="fill:#FFFFFF; fill-opacity:1.0; 
stroke:#FFFFFF; stroke-width:39.3701; stroke-opacity:1; 
stroke-linecap:round; stroke-linejoin:round;">
</g>
<g style="fill:#FFFFFF; fill-opacity:1.0; 
stroke:#FFFFFF; stroke-width:0; stroke-opacity:1; 
stroke-linecap:round; stroke-linejoin:round;">
<circle cx="89173.2" cy="30905.5" r="196.85" /> 
</g>
<g style="fill:#FFFFFF; fill-opacity:1.0; 
stroke:#FFFFFF; stroke-width:39.3701; stroke-opacity:1; 
stroke-linecap:round; stroke-linejoin:round;">
</g>
<g style="fill:#FFFFFF; fill-opacity:1.0; 
stroke:#FFFFFF; stroke-width:0; stroke-opacity:1; 
stroke-linecap:round; stroke-linejoin:round;">
<circle cx="83858.3" cy="30905.5" r="196.85" /> 
</g>
<g style="fill:#FFFFFF; fill-opacity:1.0; 
stroke:#FFFFFF; stroke-width:39.3701; stroke-opacity:1; 
stroke-linecap:round; stroke-linejoin:round;">
</g>
<g style="fill:#FFFFFF; fill-opacity:1.0; 
stroke:#FFFFFF; stroke-width:0; stroke-opacity:1; 
stroke-linecap:round; stroke-linejoin:round;">
<circle cx="83070.9" cy="45275.6" r="196.85" /> 
</g>
<g style="fill:#FFFFFF; fill-opacity:1.0; 
stroke:#FFFFFF; stroke-width:39.3701; stroke-opacity:1; 
stroke-linecap:round; stroke-linejoin:round;">
</g>
<g style="fill:#FFFFFF; fill-opacity:1.0; 
stroke:#FFFFFF; stroke-width:0; stroke-opacity:1; 
stroke-linecap:round; stroke-linejoin:round;">
<circle cx="89763.8" cy="46850.4" r="196.85" /> 
</g>
<g style="fill:#FFFFFF; fill-opacity:1.0; 
stroke:#FFFFFF; stroke-width:39.3701; stroke-opacity:1; 
stroke-linecap:round; stroke-linejoin:round;">
</g>
<g style="fill:#FFFFFF; fill-opacity:1.0; 
stroke:#FFFFFF; stroke-width:0; stroke-opacity:1; 
stroke-linecap:round; stroke-linejoin:round;">
<circle cx="84645.7" cy="40551.2" r="196.85" /> 
</g>
<g style="fill:#FFFFFF; fill-opacity:1.0; 
stroke:#FFFFFF; stroke-width:39.3701; stroke-opacity:1; 
stroke-linecap:round; stroke-linejoin:round;">
</g>
<g style="fill:#FFFFFF; fill-opacity:1.0; 
stroke:#FFFFFF; stroke-width:0; stroke-opacity:1; 
stroke-linecap:round; stroke-linejoin:round;">
<circle cx="92519.7" cy="39763.8" r="196.85" /> 
</g>
<g style="fill:#FFFFFF; fill-opacity:1.0; 
stroke:#FFFFFF; stroke-width:39.3701; stroke-opacity:1; 
stroke-linecap:round; stroke-linejoin:round;">
</g>
<g style="fill:#FFFFFF; fill-opacity:1.0; 
stroke:#FFFFFF; stroke-width:0; stroke-opacity:1; 
stroke-linecap:round; stroke-linejoin:round;">
<circle cx="85433.1" cy="39763.8" r="196.85" /> 
</g>
<g style="fill:#FFFFFF; fill-opacity:1.0; 
stroke:#FFFFFF; stroke-width:39.3701; stroke-opacity:1; 
stroke-linecap:round; stroke-linejoin:round;">
</g>
<g style="fill:#FFFFFF; fill-opacity:1.0; 
stroke:#FFFFFF; stroke-width:0; stroke-opacity:1; 
stroke-linecap:round; stroke-linejoin:round;">
<circle cx="98637.8" cy="24740.2" r="688.976" /> 
</g>
<g style="fill:#FFFFFF; fill-opacity:1.0; 
stroke:#FFFFFF; stroke-width:39.3701; stroke-opacity:1; 
stroke-linecap:round; stroke-linejoin:round;">
</g>
<g style="fill:#FFFFFF; fill-opacity:1.0; 
stroke:#FFFFFF; stroke-width:0; stroke-opacity:1; 
stroke-linecap:round; stroke-linejoin:round;">
<circle cx="97637.8" cy="31299.2" r="196.85" /> 
</g>
<g style="fill:#FFFFFF; fill-opacity:1.0; 
stroke:#FFFFFF; stroke-width:39.3701; stroke-opacity:1; 
stroke-linecap:round; stroke-linejoin:round;">
</g>
<g style="fill:#FFFFFF; fill-opacity:1.0; 
stroke:#FFFFFF; stroke-width:0; stroke-opacity:1; 
stroke-linecap:round; stroke-linejoin:round;">
<circle cx="98637.8" cy="31299.2" r="196.85" /> 
</g>
<g style="fill:#FFFFFF; fill-opacity:1.0; 
stroke:#FFFFFF; stroke-width:39.3701; stroke-opacity:1; 
stroke-linecap:round; stroke-linejoin:round;">
</g>
<g style="fill:#FFFFFF; fill-opacity:1.0; 
stroke:#FFFFFF; stroke-width:0; stroke-opacity:1; 
stroke-linecap:round; stroke-linejoin:round;">
<circle cx="99637.8" cy="31299.2" r="196.85" /> 
</g>
<g style="fill:#FFFFFF; fill-opacity:1.0; 
stroke:#FFFFFF; stroke-width:39.3701; stroke-opacity:1; 
stroke-linecap:round; stroke-linejoin:round;">
</g>
<g style="fill:#FFFFFF; fill-opacity:1.0; 
stroke:#FFFFFF; stroke-width:0; stroke-opacity:1; 
stroke-linecap:round; stroke-linejoin:round;">
<circle cx="77165.4" cy="45669.3" r="157.48" /> 
</g>
<g style="fill:#FFFFFF; fill-opacity:1.0; 
stroke:#FFFFFF; stroke-width:39.3701; stroke-opacity:1; 
stroke-linecap:round; stroke-linejoin:round;">
</g>
<g style="fill:#FFFFFF; fill-opacity:1.0; 
stroke:#FFFFFF; stroke-width:0; stroke-opacity:1; 
stroke-linecap:round; stroke-linejoin:round;">
<circle cx="80165.4" cy="45669.3" r="157.48" /> 
</g>
<g style="fill:#FFFFFF; fill-opacity:1.0; 
stroke:#FFFFFF; stroke-width:39.3701; stroke-opacity:1; 
stroke-linecap:round; stroke-linejoin:round;">
</g>
<g style="fill:#FFFFFF; fill-opacity:1.0; 
stroke:#FFFFFF; stroke-width:0; stroke-opacity:1; 
stroke-linecap:round; stroke-linejoin:round;">
<circle cx="88582.7" cy="50000" r="177.165" /> 
</g>
<g style="fill:#FFFFFF; fill-opacity:1.0; 
stroke:#FFFFFF; stroke-width:39.3701; stroke-opacity:1; 
stroke-linecap:round; stroke-linejoin:round;">
</g>
<g style="fill:#FFFFFF; fill-opacity:1.0; 
stroke:#FFFFFF; stroke-width:0; stroke-opacity:1; 
stroke-linecap:round; stroke-linejoin:round;">
<circle cx="88582.7" cy="51000" r="177.165" /> 
</g>
<g style="fill:#FFFFFF; fill-opacity:1.0; 
stroke:#FFFFFF; stroke-width:39.3701; stroke-opacity:1; 
stroke-linecap:round; stroke-linejoin:round;">
</g>
<g style="fill:#FFFFFF; fill-opacity:1.0; 
stroke:#FFFFFF; stroke-width:0; stroke-opacity:1; 
stroke-linecap:round; stroke-linejoin:round;">
<circle cx="81889.8" cy="49212.6" r="177.165" /> 
</g>
<g style="fill:#FFFFFF; fill-opacity:1.0; 
stroke:#FFFFFF; stroke-width:39.3701; stroke-opacity:1; 
stroke-linecap:round; stroke-linejoin:round;">
</g>
<g style="fill:#FFFFFF; fill-opacity:1.0; 
stroke:#FFFFFF; stroke-width:0; stroke-opacity:1; 
stroke-linecap:round; stroke-linejoin:round;">
<circle cx="82889.8" cy="49212.6" r="177.165" /> 
</g>
<g style="fill:#FFFFFF; fill-opacity:1.0; 
stroke:#FFFFFF; stroke-width:39.3701; stroke-opacity:1; 
stroke-linecap:round; stroke-linejoin:round;">
</g>
<g style="fill:#FFFFFF; fill-opacity:1.0; 
stroke:#FFFFFF; stroke-width:0; stroke-opacity:1; 
stroke-linecap:round; stroke-linejoin:round;">
<circle cx="77559.1" cy="37007.9" r="177.165" /> 
</g>
<g style="fill:#FFFFFF; fill-opacity:1.0; 
stroke:#FFFFFF; stroke-width:39.3701; stroke-opacity:1; 
stroke-linecap:round; stroke-linejoin:round;">
</g>
<g style="fill:#FFFFFF; fill-opacity:1.0; 
stroke:#FFFFFF; stroke-width:0; stroke-opacity:1; 
stroke-linecap:round; stroke-linejoin:round;">
<circle cx="78559.1" cy="37007.9" r="177.165" /> 
</g>
<g style="fill:#FFFFFF; fill-opacity:1.0; 
stroke:#FFFFFF; stroke-width:39.3701; stroke-opacity:1; 
stroke-linecap:round; stroke-linejoin:round;">
</g>
<g style="fill:#FFFFFF; fill-opacity:1.0; 
stroke:#FFFFFF; stroke-width:0; stroke-opacity:1; 
stroke-linecap:round; stroke-linejoin:round;">
<circle cx="81102.4" cy="37007.9" r="177.165" /> 
</g>
<g style="fill:#FFFFFF; fill-opacity:1.0; 
stroke:#FFFFFF; stroke-width:39.3701; stroke-opacity:1; 
stroke-linecap:round; stroke-linejoin:round;">
</g>
<g style="fill:#FFFFFF; fill-opacity:1.0; 
stroke:#FFFFFF; stroke-width:0; stroke-opacity:1; 
stroke-linecap:round; stroke-linejoin:round;">
<circle cx="82102.4" cy="37007.9" r="177.165" /> 
</g>
<g style="fill:#FFFFFF; fill-opacity:1.0; 
stroke:#FFFFFF; stroke-width:39.3701; stroke-opacity:1; 
stroke-linecap:round; stroke-linejoin:round;">
</g>
<g style="fill:#FFFFFF; fill-opacity:1.0; 
stroke:#FFFFFF; stroke-width:0; stroke-opacity:1; 
stroke-linecap:round; stroke-linejoin:round;">
<circle cx="97244.1" cy="33267.7" r="177.165" /> 
</g>
<g style="fill:#FFFFFF; fill-opacity:1.0; 
stroke:#FFFFFF; stroke-width:39.3701; stroke-opacity:1; 
stroke-linecap:round; stroke-linejoin:round;">
</g>
<g style="fill:#FFFFFF; fill-opacity:1.0; 
stroke:#FFFFFF; stroke-width:0; stroke-opacity:1; 
stroke-linecap:round; stroke-linejoin:round;">
<circle cx="98244.1" cy="33267.7" r="177.165" /> 
</g>
<g style="fill:#FFFFFF; fill-opacity:1.0; 
stroke:#FFFFFF; stroke-width:39.3701; stroke-opacity:1; 
stroke-linecap:round; stroke-linejoin:round;">
</g>
<g style="fill:#FFFFFF; fill-opacity:1.0; 
stroke:#FFFFFF; stroke-width:0; stroke-opacity:1; 
stroke-linecap:round; stroke-linejoin:round;">
<circle cx="83070.9" cy="51968.5" r="157.48" /> 
</g>
<g style="fill:#FFFFFF; fill-opacity:1.0; 
stroke:#FFFFFF; stroke-width:39.3701; stroke-opacity:1; 
stroke-linecap:round; stroke-linejoin:round;">
</g>
<g style="fill:#FFFFFF; fill-opacity:1.0; 
stroke:#FFFFFF; stroke-width:0; stroke-opacity:1; 
stroke-linecap:round; stroke-linejoin:round;">
<circle cx="86070.9" cy="51968.5" r="157.48" /> 
</g>
<g style="fill:#FFFFFF; fill-opacity:1.0; 
stroke:#FFFFFF; stroke-width:39.3701; stroke-opacity:1; 
stroke-linecap:round; stroke-linejoin:round;">
</g>
<g style="fill:#FFFFFF; fill-opacity:1.0; 
stroke:#FFFFFF; stroke-width:0; stroke-opacity:1; 
stroke-linecap:round; stroke-linejoin:round;">
<circle cx="83070.9" cy="50787.4" r="157.48" /> 
</g>
<g style="fill:#FFFFFF; fill-opacity:1.0; 
stroke:#FFFFFF; stroke-width:39.3701; stroke-opacity:1; 
stroke-linecap:round; stroke-linejoin:round;">
</g>
<g style="fill:#FFFFFF; fill-opacity:1.0; 
stroke:#FFFFFF; stroke-width:0; stroke-opacity:1; 
stroke-linecap:round; stroke-linejoin:round;">
<circle cx="86070.9" cy="50787.4" r="157.48" /> 
</g>
<g style="fill:#FFFFFF; fill-opacity:1.0; 
stroke:#FFFFFF; stroke-width:39.3701; stroke-opacity:1; 
stroke-linecap:round; stroke-linejoin:round;">
</g>
<g style="fill:#FFFFFF; fill-opacity:1.0; 
stroke:#FFFFFF; stroke-width:0; stroke-opacity:1; 
stroke-linecap:round; stroke-linejoin:round;">
<circle cx="77165.4" cy="47244.1" r="157.48" /> 
</g>
<g style="fill:#FFFFFF; fill-opacity:1.0; 
stroke:#FFFFFF; stroke-width:39.3701; stroke-opacity:1; 
stroke-linecap:round; stroke-linejoin:round;">
</g>
<g style="fill:#FFFFFF; fill-opacity:1.0; 
stroke:#FFFFFF; stroke-width:0; stroke-opacity:1; 
stroke-linecap:round; stroke-linejoin:round;">
<circle cx="80165.4" cy="47244.1" r="157.48" /> 
</g>
<g style="fill:#FFFFFF; fill-opacity:1.0; 
stroke:#FFFFFF; stroke-width:39.3701; stroke-opacity:1; 
stroke-linecap:round; stroke-linejoin:round;">
</g>
<g style="fill:#FFFFFF; fill-opacity:1.0; 
stroke:#FFFFFF; stroke-width:0; stroke-opacity:1; 
stroke-linecap:round; stroke-linejoin:round;">
<circle cx="89173.2" cy="26574.8" r="236.22" /> 
</g>
<g style="fill:#FFFFFF; fill-opacity:1.0; 
stroke:#FFFFFF; stroke-width:39.3701; stroke-opacity:1; 
stroke-linecap:round; stroke-linejoin:round;">
</g>
<g style="fill:#FFFFFF; fill-opacity:1.0; 
stroke:#FFFFFF; stroke-width:0; stroke-opacity:1; 
stroke-linecap:round; stroke-linejoin:round;">
<circle cx="87795.3" cy="26574.8" r="236.22" /> 
</g>
<g style="fill:#FFFFFF; fill-opacity:1.0; 
stroke:#FFFFFF; stroke-width:39.3701; stroke-opacity:1; 
stroke-linecap:round; stroke-linejoin:round;">
</g>
<g style="fill:#FFFFFF; fill-opacity:1.0; 
stroke:#FFFFFF; stroke-width:0; stroke-opacity:1; 
stroke-linecap:round; stroke-linejoin:round;">
<circle cx="86417.3" cy="26574.8" r="236.22" /> 
</g>
<g style="fill:#FFFFFF; fill-opacity:1.0; 
stroke:#FFFFFF; stroke-width:39.3701; stroke-opacity:1; 
stroke-linecap:round; stroke-linejoin:round;">
</g>
<g style="fill:#FFFFFF; fill-opacity:1.0; 
stroke:#FFFFFF; stroke-width:0; stroke-opacity:1; 
stroke-linecap:round; stroke-linejoin:round;">
<circle cx="85039.4" cy="26574.8" r="236.22" /> 
</g>
<g style="fill:#FFFFFF; fill-opacity:1.0; 
stroke:#FFFFFF; stroke-width:39.3701; stroke-opacity:1; 
stroke-linecap:round; stroke-linejoin:round;">
</g>
<g style="fill:#FFFFFF; fill-opacity:1.0; 
stroke:#FFFFFF; stroke-width:0; stroke-opacity:1; 
stroke-linecap:round; stroke-linejoin:round;">
<circle cx="75590.6" cy="36614.2" r="196.85" /> 
</g>
<g style="fill:#FFFFFF; fill-opacity:1.0; 
stroke:#FFFFFF; stroke-width:39.3701; stroke-opacity:1; 
stroke-linecap:round; stroke-linejoin:round;">
</g>
<g style="fill:#FFFFFF; fill-opacity:1.0; 
stroke:#FFFFFF; stroke-width:0; stroke-opacity:1; 
stroke-linecap:round; stroke-linejoin:round;">
<circle cx="75590.6" cy="37614.2" r="196.85" /> 
</g>
<g style="fill:#FFFFFF; fill-opacity:1.0; 
stroke:#FFFFFF; stroke-width:39.3701; stroke-opacity:1; 
stroke-linecap:round; stroke-linejoin:round;">
</g>
<g style="fill:#FFFFFF; fill-opacity:1.0; 
stroke:#FFFFFF; stroke-width:0; stroke-opacity:1; 
stroke-linecap:round; stroke-linejoin:round;">
<circle cx="75590.6" cy="38614.2" r="196.85" /> 
</g>
<g style="fill:#FFFFFF; fill-opacity:1.0; 
stroke:#FFFFFF; stroke-width:39.3701; stroke-opacity:1; 
stroke-linecap:round; stroke-linejoin:round;">
</g>
<g style="fill:#FFFFFF; fill-opacity:1.0; 
stroke:#FFFFFF; stroke-width:0; stroke-opacity:1; 
stroke-linecap:round; stroke-linejoin:round;">
<circle cx="75590.6" cy="39614.2" r="196.85" /> 
</g>
<g style="fill:#FFFFFF; fill-opacity:1.0; 
stroke:#FFFFFF; stroke-width:39.3701; stroke-opacity:1; 
stroke-linecap:round; stroke-linejoin:round;">
</g>
<g style="fill:#FFFFFF; fill-opacity:1.0; 
stroke:#FFFFFF; stroke-width:0; stroke-opacity:1; 
stroke-linecap:round; stroke-linejoin:round;">
<circle cx="75590.6" cy="40614.2" r="196.85" /> 
</g>
<g style="fill:#FFFFFF; fill-opacity:1.0; 
stroke:#FFFFFF; stroke-width:39.3701; stroke-opacity:1; 
stroke-linecap:round; stroke-linejoin:round;">
</g>
<g style="fill:#FFFFFF; fill-opacity:1.0; 
stroke:#FFFFFF; stroke-width:0; stroke-opacity:1; 
stroke-linecap:round; stroke-linejoin:round;">
<circle cx="75590.6" cy="41614.2" r="196.85" /> 
</g>
<g style="fill:#FFFFFF; fill-opacity:1.0; 
stroke:#FFFFFF; stroke-width:39.3701; stroke-opacity:1; 
stroke-linecap:round; stroke-linejoin:round;">
</g>
<g style="fill:#FFFFFF; fill-opacity:1.0; 
stroke:#FFFFFF; stroke-width:0; stroke-opacity:1; 
stroke-linecap:round; stroke-linejoin:round;">
<circle cx="75590.6" cy="42614.2" r="196.85" /> 
</g>
<g style="fill:#FFFFFF; fill-opacity:1.0; 
stroke:#FFFFFF; stroke-width:39.3701; stroke-opacity:1; 
stroke-linecap:round; stroke-linejoin:round;">
</g>
<g style="fill:#FFFFFF; fill-opacity:1.0; 
stroke:#FFFFFF; stroke-width:0; stroke-opacity:1; 
stroke-linecap:round; stroke-linejoin:round;">
<circle cx="75590.6" cy="43614.2" r="196.85" /> 
</g>
<g style="fill:#FFFFFF; fill-opacity:1.0; 
stroke:#FFFFFF; stroke-width:39.3701; stroke-opacity:1; 
stroke-linecap:round; stroke-linejoin:round;">
</g>
<g style="fill:#FFFFFF; fill-opacity:1.0; 
stroke:#FFFFFF; stroke-width:0; stroke-opacity:1; 
stroke-linecap:round; stroke-linejoin:round;">
<circle cx="75590.6" cy="45669.3" r="196.85" /> 
</g>
<g style="fill:#FFFFFF; fill-opacity:1.0; 
stroke:#FFFFFF; stroke-width:39.3701; stroke-opacity:1; 
stroke-linecap:round; stroke-linejoin:round;">
</g>
<g style="fill:#FFFFFF; fill-opacity:1.0; 
stroke:#FFFFFF; stroke-width:0; stroke-opacity:1; 
stroke-linecap:round; stroke-linejoin:round;">
<circle cx="75590.6" cy="46669.3" r="196.85" /> 
</g>
<g style="fill:#FFFFFF; fill-opacity:1.0; 
stroke:#FFFFFF; stroke-width:39.3701; stroke-opacity:1; 
stroke-linecap:round; stroke-linejoin:round;">
</g>
<g style="fill:#FFFFFF; fill-opacity:1.0; 
stroke:#FFFFFF; stroke-width:0; stroke-opacity:1; 
stroke-linecap:round; stroke-linejoin:round;">
<circle cx="75590.6" cy="47669.3" r="196.85" /> 
</g>
<g style="fill:#FFFFFF; fill-opacity:1.0; 
stroke:#FFFFFF; stroke-width:39.3701; stroke-opacity:1; 
stroke-linecap:round; stroke-linejoin:round;">
</g>
<g style="fill:#FFFFFF; fill-opacity:1.0; 
stroke:#FFFFFF; stroke-width:0; stroke-opacity:1; 
stroke-linecap:round; stroke-linejoin:round;">
<circle cx="75590.6" cy="48669.3" r="196.85" /> 
</g>
<g style="fill:#FFFFFF; fill-opacity:1.0; 
stroke:#FFFFFF; stroke-width:39.3701; stroke-opacity:1; 
stroke-linecap:round; stroke-linejoin:round;">
</g>
<g style="fill:#FFFFFF; fill-opacity:1.0; 
stroke:#FFFFFF; stroke-width:0; stroke-opacity:1; 
stroke-linecap:round; stroke-linejoin:round;">
<circle cx="75590.6" cy="49669.3" r="196.85" /> 
</g>
<g style="fill:#FFFFFF; fill-opacity:1.0; 
stroke:#FFFFFF; stroke-width:39.3701; stroke-opacity:1; 
stroke-linecap:round; stroke-linejoin:round;">
</g>
<g style="fill:#FFFFFF; fill-opacity:1.0; 
stroke:#FFFFFF; stroke-width:0; stroke-opacity:1; 
stroke-linecap:round; stroke-linejoin:round;">
<circle cx="75590.6" cy="50669.3" r="196.85" /> 
</g>
<g style="fill:#FFFFFF; fill-opacity:1.0; 
stroke:#FFFFFF; stroke-width:39.3701; stroke-opacity:1; 
stroke-linecap:round; stroke-linejoin:round;">
</g>
<g style="fill:#FFFFFF; fill-opacity:1.0; 
stroke:#FFFFFF; stroke-width:0; stroke-opacity:1; 
stroke-linecap:round; stroke-linejoin:round;">
<circle cx="94094.5" cy="43700.8" r="196.85" /> 
</g>
<g style="fill:#FFFFFF; fill-opacity:1.0; 
stroke:#FFFFFF; stroke-width:39.3701; stroke-opacity:1; 
stroke-linecap:round; stroke-linejoin:round;">
</g>
<g style="fill:#FFFFFF; fill-opacity:1.0; 
stroke:#FFFFFF; stroke-width:0; stroke-opacity:1; 
stroke-linecap:round; stroke-linejoin:round;">
<circle cx="94094.5" cy="44700.8" r="196.85" /> 
</g>
<g style="fill:#FFFFFF; fill-opacity:1.0; 
stroke:#FFFFFF; stroke-width:39.3701; stroke-opacity:1; 
stroke-linecap:round; stroke-linejoin:round;">
</g>
<g style="fill:#FFFFFF; fill-opacity:1.0; 
stroke:#FFFFFF; stroke-width:0; stroke-opacity:1; 
stroke-linecap:round; stroke-linejoin:round;">
<circle cx="94094.5" cy="45700.8" r="196.85" /> 
</g>
<g style="fill:#FFFFFF; fill-opacity:1.0; 
stroke:#FFFFFF; stroke-width:39.3701; stroke-opacity:1; 
stroke-linecap:round; stroke-linejoin:round;">
</g>
<g style="fill:#FFFFFF; fill-opacity:1.0; 
stroke:#FFFFFF; stroke-width:0; stroke-opacity:1; 
stroke-linecap:round; stroke-linejoin:round;">
<circle cx="94094.5" cy="46700.8" r="196.85" /> 
</g>
<g style="fill:#FFFFFF; fill-opacity:1.0; 
stroke:#FFFFFF; stroke-width:39.3701; stroke-opacity:1; 
stroke-linecap:round; stroke-linejoin:round;">
</g>
<g style="fill:#FFFFFF; fill-opacity:1.0; 
stroke:#FFFFFF; stroke-width:0; stroke-opacity:1; 
stroke-linecap:round; stroke-linejoin:round;">
<circle cx="94094.5" cy="47700.8" r="196.85" /> 
</g>
<g style="fill:#FFFFFF; fill-opacity:1.0; 
stroke:#FFFFFF; stroke-width:39.3701; stroke-opacity:1; 
stroke-linecap:round; stroke-linejoin:round;">
</g>
<g style="fill:#FFFFFF; fill-opacity:1.0; 
stroke:#FFFFFF; stroke-width:0; stroke-opacity:1; 
stroke-linecap:round; stroke-linejoin:round;">
<circle cx="94094.5" cy="48700.8" r="196.85" /> 
</g>
<g style="fill:#FFFFFF; fill-opacity:1.0; 
stroke:#FFFFFF; stroke-width:39.3701; stroke-opacity:1; 
stroke-linecap:round; stroke-linejoin:round;">
</g>
<g style="fill:#FFFFFF; fill-opacity:1.0; 
stroke:#FFFFFF; stroke-width:0; stroke-opacity:1; 
stroke-linecap:round; stroke-linejoin:round;">
<circle cx="94094.5" cy="49700.8" r="196.85" /> 
</g>
<g style="fill:#FFFFFF; fill-opacity:1.0; 
stroke:#FFFFFF; stroke-width:39.3701; stroke-opacity:1; 
stroke-linecap:round; stroke-linejoin:round;">
</g>
<g style="fill:#FFFFFF; fill-opacity:1.0; 
stroke:#FFFFFF; stroke-width:0; stroke-opacity:1; 
stroke-linecap:round; stroke-linejoin:round;">
<circle cx="94094.5" cy="50700.8" r="196.85" /> 
</g>
<g style="fill:#FFFFFF; fill-opacity:1.0; 
stroke:#FFFFFF; stroke-width:39.3701; stroke-opacity:1; 
stroke-linecap:round; stroke-linejoin:round;">
</g>
<g style="fill:#FFFFFF; fill-opacity:1.0; 
stroke:#FFFFFF; stroke-width:0; stroke-opacity:1; 
stroke-linecap:round; stroke-linejoin:round;">
<circle cx="78346.5" cy="49212.6" r="236.22" /> 
</g>
<g style="fill:#FFFFFF; fill-opacity:1.0; 
stroke:#FFFFFF; stroke-width:39.3701; stroke-opacity:1; 
stroke-linecap:round; stroke-linejoin:round;">
</g>
<g style="fill:#FFFFFF; fill-opacity:1.0; 
stroke:#FFFFFF; stroke-width:0; stroke-opacity:1; 
stroke-linecap:round; stroke-linejoin:round;">
<circle cx="79724.4" cy="49212.6" r="236.22" /> 
</g>
<g style="fill:#FFFFFF; fill-opacity:1.0; 
stroke:#FFFFFF; stroke-width:39.3701; stroke-opacity:1; 
stroke-linecap:round; stroke-linejoin:round;">
</g>
<g style="fill:#FFFFFF; fill-opacity:1.0; 
stroke:#FFFFFF; stroke-width:0; stroke-opacity:1; 
stroke-linecap:round; stroke-linejoin:round;">
<circle cx="81102.4" cy="26574.8" r="236.22" /> 
</g>
<g style="fill:#FFFFFF; fill-opacity:1.0; 
stroke:#FFFFFF; stroke-width:39.3701; stroke-opacity:1; 
stroke-linecap:round; stroke-linejoin:round;">
</g>
<g style="fill:#FFFFFF; fill-opacity:1.0; 
stroke:#FFFFFF; stroke-width:0; stroke-opacity:1; 
stroke-linecap:round; stroke-linejoin:round;">
<circle cx="79724.4" cy="26574.8" r="236.22" /> 
</g>
<g style="fill:#FFFFFF; fill-opacity:1.0; 
stroke:#FFFFFF; stroke-width:39.3701; stroke-opacity:1; 
stroke-linecap:round; stroke-linejoin:round;">
</g>
<g style="fill:#FFFFFF; fill-opacity:1.0; 
stroke:#FFFFFF; stroke-width:0; stroke-opacity:1; 
stroke-linecap:round; stroke-linejoin:round;">
<circle cx="78346.5" cy="26574.8" r="236.22" /> 
</g>
<g style="fill:#FFFFFF; fill-opacity:1.0; 
stroke:#FFFFFF; stroke-width:39.3701; stroke-opacity:1; 
stroke-linecap:round; stroke-linejoin:round;">
</g>
<g style="fill:#FFFFFF; fill-opacity:1.0; 
stroke:#FFFFFF; stroke-width:0; stroke-opacity:1; 
stroke-linecap:round; stroke-linejoin:round;">
<circle cx="76968.5" cy="26574.8" r="236.22" /> 
</g>
<g style="fill:#FFFFFF; fill-opacity:1.0; 
stroke:#FFFFFF; stroke-width:39.3701; stroke-opacity:1; 
stroke-linecap:round; stroke-linejoin:round;">
</g>
<g style="fill:#FFFFFF; fill-opacity:1.0; 
stroke:#FFFFFF; stroke-width:0; stroke-opacity:1; 
stroke-linecap:round; stroke-linejoin:round;">
<circle cx="94881.9" cy="26771.7" r="236.22" /> 
</g>
<g style="fill:#FFFFFF; fill-opacity:1.0; 
stroke:#FFFFFF; stroke-width:39.3701; stroke-opacity:1; 
stroke-linecap:round; stroke-linejoin:round;">
</g>
<g style="fill:#FFFFFF; fill-opacity:1.0; 
stroke:#FFFFFF; stroke-width:0; stroke-opacity:1; 
stroke-linecap:round; stroke-linejoin:round;">
<circle cx="93503.9" cy="26771.7" r="236.22" /> 
</g>
<g style="fill:#FFFFFF; fill-opacity:1.0; 
stroke:#FFFFFF; stroke-width:39.3701; stroke-opacity:1; 
stroke-linecap:round; stroke-linejoin:round;">
</g>
<g style="fill:#FFFFFF; fill-opacity:1.0; 
stroke:#FFFFFF; stroke-width:0; stroke-opacity:1; 
stroke-linecap:round; stroke-linejoin:round;">
<circle cx="90551.2" cy="49212.6" r="236.22" /> 
</g>
<g style="fill:#FFFFFF; fill-opacity:1.0; 
stroke:#FFFFFF; stroke-width:39.3701; stroke-opacity:1; 
stroke-linecap:round; stroke-linejoin:round;">
</g>
<g style="fill:#FFFFFF; fill-opacity:1.0; 
stroke:#FFFFFF; stroke-width:0; stroke-opacity:1; 
stroke-linecap:round; stroke-linejoin:round;">
<circle cx="91929.1" cy="49212.6" r="236.22" /> 
</g>
<g style="fill:#FFFFFF; fill-opacity:1.0; 
stroke:#FFFFFF; stroke-width:39.3701; stroke-opacity:1; 
stroke-linecap:round; stroke-linejoin:round;">
</g>
<g style="fill:#FFFFFF; fill-opacity:1.0; 
stroke:#FFFFFF; stroke-width:0; stroke-opacity:1; 
stroke-linecap:round; stroke-linejoin:round;">
<circle cx="94094.5" cy="32677.2" r="196.85" /> 
</g>
<g style="fill:#FFFFFF; fill-opacity:1.0; 
stroke:#FFFFFF; stroke-width:39.3701; stroke-opacity:1; 
stroke-linecap:round; stroke-linejoin:round;">
</g>
<g style="fill:#FFFFFF; fill-opacity:1.0; 
stroke:#FFFFFF; stroke-width:0; stroke-opacity:1; 
stroke-linecap:round; stroke-linejoin:round;">
<circle cx="94094.5" cy="33677.2" r="196.85" /> 
</g>
<g style="fill:#FFFFFF; fill-opacity:1.0; 
stroke:#FFFFFF; stroke-width:39.3701; stroke-opacity:1; 
stroke-linecap:round; stroke-linejoin:round;">
</g>
<g style="fill:#FFFFFF; fill-opacity:1.0; 
stroke:#FFFFFF; stroke-width:0; stroke-opacity:1; 
stroke-linecap:round; stroke-linejoin:round;">
<circle cx="94094.5" cy="34677.2" r="196.85" /> 
</g>
<g style="fill:#FFFFFF; fill-opacity:1.0; 
stroke:#FFFFFF; stroke-width:39.3701; stroke-opacity:1; 
stroke-linecap:round; stroke-linejoin:round;">
</g>
<g style="fill:#FFFFFF; fill-opacity:1.0; 
stroke:#FFFFFF; stroke-width:0; stroke-opacity:1; 
stroke-linecap:round; stroke-linejoin:round;">
<circle cx="94094.5" cy="35677.2" r="196.85" /> 
</g>
<g style="fill:#FFFFFF; fill-opacity:1.0; 
stroke:#FFFFFF; stroke-width:39.3701; stroke-opacity:1; 
stroke-linecap:round; stroke-linejoin:round;">
</g>
<g style="fill:#FFFFFF; fill-opacity:1.0; 
stroke:#FFFFFF; stroke-width:0; stroke-opacity:1; 
stroke-linecap:round; stroke-linejoin:round;">
<circle cx="94094.5" cy="36677.2" r="196.85" /> 
</g>
<g style="fill:#FFFFFF; fill-opacity:1.0; 
stroke:#FFFFFF; stroke-width:39.3701; stroke-opacity:1; 
stroke-linecap:round; stroke-linejoin:round;">
</g>
<g style="fill:#FFFFFF; fill-opacity:1.0; 
stroke:#FFFFFF; stroke-width:0; stroke-opacity:1; 
stroke-linecap:round; stroke-linejoin:round;">
<circle cx="94094.5" cy="37677.2" r="196.85" /> 
</g>
<g style="fill:#FFFFFF; fill-opacity:1.0; 
stroke:#FFFFFF; stroke-width:39.3701; stroke-opacity:1; 
stroke-linecap:round; stroke-linejoin:round;">
</g>
<g style="fill:#FFFFFF; fill-opacity:1.0; 
stroke:#FFFFFF; stroke-width:0; stroke-opacity:1; 
stroke-linecap:round; stroke-linejoin:round;">
<circle cx="94094.5" cy="38677.2" r="196.85" /> 
</g>
<g style="fill:#FFFFFF; fill-opacity:1.0; 
stroke:#FFFFFF; stroke-width:39.3701; stroke-opacity:1; 
stroke-linecap:round; stroke-linejoin:round;">
</g>
<g style="fill:#FFFFFF; fill-opacity:1.0; 
stroke:#FFFFFF; stroke-width:0; stroke-opacity:1; 
stroke-linecap:round; stroke-linejoin:round;">
<circle cx="94094.5" cy="39677.2" r="196.85" /> 
</g>
<g style="fill:#FFFFFF; fill-opacity:1.0; 
stroke:#FFFFFF; stroke-width:39.3701; stroke-opacity:1; 
stroke-linecap:round; stroke-linejoin:round;">
</g>
<g style="fill:#FFFFFF; fill-opacity:1.0; 
stroke:#FFFFFF; stroke-width:0; stroke-opacity:1; 
stroke-linecap:round; stroke-linejoin:round;">
<circle cx="94094.5" cy="40677.2" r="196.85" /> 
</g>
<g style="fill:#FFFFFF; fill-opacity:1.0; 
stroke:#FFFFFF; stroke-width:39.3701; stroke-opacity:1; 
stroke-linecap:round; stroke-linejoin:round;">
</g>
<g style="fill:#FFFFFF; fill-opacity:1.0; 
stroke:#FFFFFF; stroke-width:0; stroke-opacity:1; 
stroke-linecap:round; stroke-linejoin:round;">
<circle cx="94094.5" cy="41677.2" r="196.85" /> 
</g>
<g style="fill:#FFFFFF; fill-opacity:1.0; 
stroke:#FFFFFF; stroke-width:39.3701; stroke-opacity:1; 
stroke-linecap:round; stroke-linejoin:round;">
</g>
<g style="fill:#FFFFFF; fill-opacity:1.0; 
stroke:#FFFFFF; stroke-width:0; stroke-opacity:1; 
stroke-linecap:round; stroke-linejoin:round;">
<circle cx="86220.5" cy="37901.6" r="118.11" /> 
</g>
<g style="fill:#FFFFFF; fill-opacity:1.0; 
stroke:#FFFFFF; stroke-width:39.3701; stroke-opacity:1; 
stroke-linecap:round; stroke-linejoin:round;">
</g>
<g style="fill:#FFFFFF; fill-opacity:1.0; 
stroke:#FFFFFF; stroke-width:0; stroke-opacity:1; 
stroke-linecap:round; stroke-linejoin:round;">
<circle cx="86220.5" cy="38401.6" r="118.11" /> 
</g>
<g style="fill:#FFFFFF; fill-opacity:1.0; 
stroke:#FFFFFF; stroke-width:39.3701; stroke-opacity:1; 
stroke-linecap:round; stroke-linejoin:round;">
</g>
<g style="fill:#FFFFFF; fill-opacity:1.0; 
stroke:#FFFFFF; stroke-width:0; stroke-opacity:1; 
stroke-linecap:round; stroke-linejoin:round;">
<circle cx="86220.5" cy="37401.6" r="118.11" /> 
</g>
<g style="fill:#FFFFFF; fill-opacity:1.0; 
stroke:#FFFFFF; stroke-width:39.3701; stroke-opacity:1; 
stroke-linecap:round; stroke-linejoin:round;">
</g>
<g style="fill:#FFFFFF; fill-opacity:1.0; 
stroke:#FFFFFF; stroke-width:0; stroke-opacity:1; 
stroke-linecap:round; stroke-linejoin:round;">
<circle cx="88141.7" cy="33858.3" r="196.85" /> 
</g>
<g style="fill:#FFFFFF; fill-opacity:1.0; 
stroke:#FFFFFF; stroke-width:39.3701; stroke-opacity:1; 
stroke-linecap:round; stroke-linejoin:round;">
</g>
<g style="fill:#FFFFFF; fill-opacity:1.0; 
stroke:#FFFFFF; stroke-width:0; stroke-opacity:1; 
stroke-linecap:round; stroke-linejoin:round;">
<circle cx="88141.7" cy="29858.3" r="196.85" /> 
</g>
<g style="fill:#FFFFFF; fill-opacity:1.0; 
stroke:#FFFFFF; stroke-width:39.3701; stroke-opacity:1; 
stroke-linecap:round; stroke-linejoin:round;">
</g>
<g style="fill:#FFFFFF; fill-opacity:1.0; 
stroke:#FFFFFF; stroke-width:0; stroke-opacity:1; 
stroke-linecap:round; stroke-linejoin:round;">
<circle cx="91141.7" cy="33858.3" r="196.85" /> 
</g>
<g style="fill:#FFFFFF; fill-opacity:1.0; 
stroke:#FFFFFF; stroke-width:39.3701; stroke-opacity:1; 
stroke-linecap:round; stroke-linejoin:round;">
</g>
<g style="fill:#FFFFFF; fill-opacity:1.0; 
stroke:#FFFFFF; stroke-width:0; stroke-opacity:1; 
stroke-linecap:round; stroke-linejoin:round;">
<circle cx="91141.7" cy="29858.3" r="196.85" /> 
</g>
<g style="fill:#FFFFFF; fill-opacity:1.0; 
stroke:#FFFFFF; stroke-width:39.3701; stroke-opacity:1; 
stroke-linecap:round; stroke-linejoin:round;">
</g>
<g style="fill:#FFFFFF; fill-opacity:1.0; 
stroke:#FFFFFF; stroke-width:0; stroke-opacity:1; 
stroke-linecap:round; stroke-linejoin:round;">
<circle cx="88141.7" cy="28858.3" r="196.85" /> 
</g>
<g style="fill:#FFFFFF; fill-opacity:1.0; 
stroke:#FFFFFF; stroke-width:39.3701; stroke-opacity:1; 
stroke-linecap:round; stroke-linejoin:round;">
</g>
<g style="fill:#FFFFFF; fill-opacity:1.0; 
stroke:#FFFFFF; stroke-width:0; stroke-opacity:1; 
stroke-linecap:round; stroke-linejoin:round;">
<circle cx="91141.7" cy="28858.3" r="196.85" /> 
</g>
<g style="fill:#FFFFFF; fill-opacity:1.0; 
stroke:#FFFFFF; stroke-width:39.3701; stroke-opacity:1; 
stroke-linecap:round; stroke-linejoin:round;">
</g>
<g style="fill:#FFFFFF; fill-opacity:1.0; 
stroke:#FFFFFF; stroke-width:0; stroke-opacity:1; 
stroke-linecap:round; stroke-linejoin:round;">
<circle cx="82236.2" cy="33858.3" r="196.85" /> 
</g>
<g style="fill:#FFFFFF; fill-opacity:1.0; 
stroke:#FFFFFF; stroke-width:39.3701; stroke-opacity:1; 
stroke-linecap:round; stroke-linejoin:round;">
</g>
<g style="fill:#FFFFFF; fill-opacity:1.0; 
stroke:#FFFFFF; stroke-width:0; stroke-opacity:1; 
stroke-linecap:round; stroke-linejoin:round;">
<circle cx="82236.2" cy="29858.3" r="196.85" /> 
</g>
<g style="fill:#FFFFFF; fill-opacity:1.0; 
stroke:#FFFFFF; stroke-width:39.3701; stroke-opacity:1; 
stroke-linecap:round; stroke-linejoin:round;">
</g>
<g style="fill:#FFFFFF; fill-opacity:1.0; 
stroke:#FFFFFF; stroke-width:0; stroke-opacity:1; 
stroke-linecap:round; stroke-linejoin:round;">
<circle cx="85236.2" cy="33858.3" r="196.85" /> 
</g>
<g style="fill:#FFFFFF; fill-opacity:1.0; 
stroke:#FFFFFF; stroke-width:39.3701; stroke-opacity:1; 
stroke-linecap:round; stroke-linejoin:round;">
</g>
<g style="fill:#FFFFFF; fill-opacity:1.0; 
stroke:#FFFFFF; stroke-width:0; stroke-opacity:1; 
stroke-linecap:round; stroke-linejoin:round;">
<circle cx="85236.2" cy="29858.3" r="196.85" /> 
</g>
<g style="fill:#FFFFFF; fill-opacity:1.0; 
stroke:#FFFFFF; stroke-width:39.3701; stroke-opacity:1; 
stroke-linecap:round; stroke-linejoin:round;">
</g>
<g style="fill:#FFFFFF; fill-opacity:1.0; 
stroke:#FFFFFF; stroke-width:0; stroke-opacity:1; 
stroke-linecap:round; stroke-linejoin:round;">
<circle cx="82236.2" cy="28858.3" r="196.85" /> 
</g>
<g style="fill:#FFFFFF; fill-opacity:1.0; 
stroke:#FFFFFF; stroke-width:39.3701; stroke-opacity:1; 
stroke-linecap:round; stroke-linejoin:round;">
</g>
<g style="fill:#FFFFFF; fill-opacity:1.0; 
stroke:#FFFFFF; stroke-width:0; stroke-opacity:1; 
stroke-linecap:round; stroke-linejoin:round;">
<circle cx="85236.2" cy="28858.3" r="196.85" /> 
</g>
<g style="fill:#FFFFFF; fill-opacity:1.0; 
stroke:#FFFFFF; stroke-width:39.3701; stroke-opacity:1; 
stroke-linecap:round; stroke-linejoin:round;">
</g>
<g style="fill:#FFFFFF; fill-opacity:1.0; 
stroke:#FFFFFF; stroke-width:0; stroke-opacity:1; 
stroke-linecap:round; stroke-linejoin:round;">
<circle cx="75543.3" cy="32874" r="196.85" /> 
</g>
<g style="fill:#FFFFFF; fill-opacity:1.0; 
stroke:#FFFFFF; stroke-width:39.3701; stroke-opacity:1; 
stroke-linecap:round; stroke-linejoin:round;">
</g>
<g style="fill:#FFFFFF; fill-opacity:1.0; 
stroke:#FFFFFF; stroke-width:0; stroke-opacity:1; 
stroke-linecap:round; stroke-linejoin:round;">
<circle cx="75543.3" cy="28874" r="196.85" /> 
</g>
<g style="fill:#FFFFFF; fill-opacity:1.0; 
stroke:#FFFFFF; stroke-width:39.3701; stroke-opacity:1; 
stroke-linecap:round; stroke-linejoin:round;">
</g>
<g style="fill:#FFFFFF; fill-opacity:1.0; 
stroke:#FFFFFF; stroke-width:0; stroke-opacity:1; 
stroke-linecap:round; stroke-linejoin:round;">
<circle cx="78543.3" cy="32874" r="196.85" /> 
</g>
<g style="fill:#FFFFFF; fill-opacity:1.0; 
stroke:#FFFFFF; stroke-width:39.3701; stroke-opacity:1; 
stroke-linecap:round; stroke-linejoin:round;">
</g>
<g style="fill:#FFFFFF; fill-opacity:1.0; 
stroke:#FFFFFF; stroke-width:0; stroke-opacity:1; 
stroke-linecap:round; stroke-linejoin:round;">
<circle cx="78543.3" cy="28874" r="196.85" /> 
</g>
<g style="fill:#FFFFFF; fill-opacity:1.0; 
stroke:#FFFFFF; stroke-width:39.3701; stroke-opacity:1; 
stroke-linecap:round; stroke-linejoin:round;">
</g>
<g style="fill:#FFFFFF; fill-opacity:1.0; 
stroke:#FFFFFF; stroke-width:0; stroke-opacity:1; 
stroke-linecap:round; stroke-linejoin:round;">
<circle cx="75543.3" cy="27874" r="196.85" /> 
</g>
<g style="fill:#FFFFFF; fill-opacity:1.0; 
stroke:#FFFFFF; stroke-width:39.3701; stroke-opacity:1; 
stroke-linecap:round; stroke-linejoin:round;">
</g>
<g style="fill:#FFFFFF; fill-opacity:1.0; 
stroke:#FFFFFF; stroke-width:0; stroke-opacity:1; 
stroke-linecap:round; stroke-linejoin:round;">
<circle cx="78543.3" cy="27874" r="196.85" /> 
</g>
<g style="fill:#FFFFFF; fill-opacity:1.0; 
stroke:#FFFFFF; stroke-width:39.3701; stroke-opacity:1; 
stroke-linecap:round; stroke-linejoin:round;">
</g>
<g style="fill:#000000; fill-opacity:1.0; 
stroke:#000000; stroke-width:39.3701; stroke-opacity:1; 
stroke-linecap:round; stroke-linejoin:round;">
</g> 
</svg>
