<?xml version="1.0" standalone="no"?>
 <!DOCTYPE svg PUBLIC "-//W3C//DTD SVG 1.1//EN" 
 "http://www.w3.org/Graphics/SVG/1.1/DTD/svg11.dtd"> 
<svg xmlns="http://www.w3.org/2000/svg" version="1.1" 
    width="29.7002cm" height="21.0007cm" viewBox="0 0 116930 82680 ">
<title>SVG Picture created as mainButton-F.Cu.svg date 2018/10/18 13:37:45 </title>
  <desc>Picture generated by PCBNEW </desc>
<g style="fill:#000000; fill-opacity:1;stroke:#000000; stroke-opacity:1;
stroke-linecap:round; stroke-linejoin:round; "
 transform="translate(0 0) scale(1 1)">
</g>
<g style="fill:#000000; fill-opacity:0.0; 
stroke:#000000; stroke-width:-0.000393701; stroke-opacity:1; 
stroke-linecap:round; stroke-linejoin:round;">
</g>
<g style="fill:#000000; fill-opacity:0.0; 
stroke:#000000; stroke-width:0; stroke-opacity:1; 
stroke-linecap:round; stroke-linejoin:round;">
</g>
<g style="fill:#000000; fill-opacity:1.0; 
stroke:#000000; stroke-width:0; stroke-opacity:1; 
stroke-linecap:round; stroke-linejoin:round;">
<polyline style="fill-rule:evenodd;"
points="97283,31653
97283,30944
97992,30944
97992,31653
97283,31653
" /> 
</g>
<g style="fill:#000000; fill-opacity:1.0; 
stroke:#000000; stroke-width:708.661; stroke-opacity:1; 
stroke-linecap:round; stroke-linejoin:round;">
</g>
<g style="fill:#000000; fill-opacity:0.0; 
stroke:#000000; stroke-width:708.661; stroke-opacity:1; 
stroke-linecap:round; stroke-linejoin:round;">
<path d="M98637 31299
L98637 31299
" />
<path d="M99637 31299
L99637 31299
" />
</g>
<g style="fill:#000000; fill-opacity:0.0; 
stroke:#000000; stroke-width:0; stroke-opacity:1; 
stroke-linecap:round; stroke-linejoin:round;">
</g>
<g style="fill:#000000; fill-opacity:1.0; 
stroke:#000000; stroke-width:0; stroke-opacity:1; 
stroke-linecap:round; stroke-linejoin:round;">
<polyline style="fill-rule:evenodd;"
points="76850,45984
76850,45354
77480,45354
77480,45984
76850,45984
" /> 
</g>
<g style="fill:#000000; fill-opacity:1.0; 
stroke:#000000; stroke-width:629.921; stroke-opacity:1; 
stroke-linecap:round; stroke-linejoin:round;">
</g>
<g style="fill:#000000; fill-opacity:0.0; 
stroke:#000000; stroke-width:629.921; stroke-opacity:1; 
stroke-linecap:round; stroke-linejoin:round;">
<path d="M80165 45669
L80165 45669
" />
</g>
<g style="fill:#000000; fill-opacity:0.0; 
stroke:#000000; stroke-width:0; stroke-opacity:1; 
stroke-linecap:round; stroke-linejoin:round;">
</g>
<g style="fill:#000000; fill-opacity:1.0; 
stroke:#000000; stroke-width:0; stroke-opacity:1; 
stroke-linecap:round; stroke-linejoin:round;">
<polyline style="fill-rule:evenodd;"
points="88228,49645
88937,49645
88937,50354
88228,50354
88228,49645
" /> 
<circle cx="88582.7" cy="51000" r="354.331" /> 
</g>
<g style="fill:#000000; fill-opacity:1.0; 
stroke:#000000; stroke-width:39.3701; stroke-opacity:1; 
stroke-linecap:round; stroke-linejoin:round;">
</g>
<g style="fill:#000000; fill-opacity:1.0; 
stroke:#000000; stroke-width:0; stroke-opacity:1; 
stroke-linecap:round; stroke-linejoin:round;">
<polyline style="fill-rule:evenodd;"
points="81535,49566
81535,48858
82244,48858
82244,49566
81535,49566
" /> 
<circle cx="82889.8" cy="49212.6" r="354.331" /> 
</g>
<g style="fill:#000000; fill-opacity:1.0; 
stroke:#000000; stroke-width:39.3701; stroke-opacity:1; 
stroke-linecap:round; stroke-linejoin:round;">
</g>
<g style="fill:#000000; fill-opacity:1.0; 
stroke:#000000; stroke-width:0; stroke-opacity:1; 
stroke-linecap:round; stroke-linejoin:round;">
<polyline style="fill-rule:evenodd;"
points="77204,37362
77204,36653
77913,36653
77913,37362
77204,37362
" /> 
<circle cx="78559.1" cy="37007.9" r="354.331" /> 
</g>
<g style="fill:#000000; fill-opacity:1.0; 
stroke:#000000; stroke-width:39.3701; stroke-opacity:1; 
stroke-linecap:round; stroke-linejoin:round;">
</g>
<g style="fill:#000000; fill-opacity:1.0; 
stroke:#000000; stroke-width:0; stroke-opacity:1; 
stroke-linecap:round; stroke-linejoin:round;">
<polyline style="fill-rule:evenodd;"
points="80748,37362
80748,36653
81456,36653
81456,37362
80748,37362
" /> 
<circle cx="82102.4" cy="37007.9" r="354.331" /> 
</g>
<g style="fill:#000000; fill-opacity:1.0; 
stroke:#000000; stroke-width:39.3701; stroke-opacity:1; 
stroke-linecap:round; stroke-linejoin:round;">
</g>
<g style="fill:#000000; fill-opacity:1.0; 
stroke:#000000; stroke-width:0; stroke-opacity:1; 
stroke-linecap:round; stroke-linejoin:round;">
<polyline style="fill-rule:evenodd;"
points="96889,33622
96889,32913
97598,32913
97598,33622
96889,33622
" /> 
<circle cx="98244.1" cy="33267.7" r="354.331" /> 
</g>
<g style="fill:#000000; fill-opacity:1.0; 
stroke:#000000; stroke-width:39.3701; stroke-opacity:1; 
stroke-linecap:round; stroke-linejoin:round;">
</g>
<g style="fill:#000000; fill-opacity:1.0; 
stroke:#000000; stroke-width:0; stroke-opacity:1; 
stroke-linecap:round; stroke-linejoin:round;">
<polyline style="fill-rule:evenodd;"
points="82755,52283
82755,51653
83385,51653
83385,52283
82755,52283
" /> 
</g>
<g style="fill:#000000; fill-opacity:1.0; 
stroke:#000000; stroke-width:629.921; stroke-opacity:1; 
stroke-linecap:round; stroke-linejoin:round;">
</g>
<g style="fill:#000000; fill-opacity:0.0; 
stroke:#000000; stroke-width:629.921; stroke-opacity:1; 
stroke-linecap:round; stroke-linejoin:round;">
<path d="M86070 51968
L86070 51968
" />
</g>
<g style="fill:#000000; fill-opacity:0.0; 
stroke:#000000; stroke-width:0; stroke-opacity:1; 
stroke-linecap:round; stroke-linejoin:round;">
</g>
<g style="fill:#000000; fill-opacity:1.0; 
stroke:#000000; stroke-width:0; stroke-opacity:1; 
stroke-linecap:round; stroke-linejoin:round;">
<polyline style="fill-rule:evenodd;"
points="82755,51102
82755,50472
83385,50472
83385,51102
82755,51102
" /> 
</g>
<g style="fill:#000000; fill-opacity:1.0; 
stroke:#000000; stroke-width:629.921; stroke-opacity:1; 
stroke-linecap:round; stroke-linejoin:round;">
</g>
<g style="fill:#000000; fill-opacity:0.0; 
stroke:#000000; stroke-width:629.921; stroke-opacity:1; 
stroke-linecap:round; stroke-linejoin:round;">
<path d="M86070 50787
L86070 50787
" />
</g>
<g style="fill:#000000; fill-opacity:0.0; 
stroke:#000000; stroke-width:0; stroke-opacity:1; 
stroke-linecap:round; stroke-linejoin:round;">
</g>
<g style="fill:#000000; fill-opacity:1.0; 
stroke:#000000; stroke-width:0; stroke-opacity:1; 
stroke-linecap:round; stroke-linejoin:round;">
<polyline style="fill-rule:evenodd;"
points="76850,47559
76850,46929
77480,46929
77480,47559
76850,47559
" /> 
</g>
<g style="fill:#000000; fill-opacity:1.0; 
stroke:#000000; stroke-width:629.921; stroke-opacity:1; 
stroke-linecap:round; stroke-linejoin:round;">
</g>
<g style="fill:#000000; fill-opacity:0.0; 
stroke:#000000; stroke-width:629.921; stroke-opacity:1; 
stroke-linecap:round; stroke-linejoin:round;">
<path d="M80165 47244
L80165 47244
" />
</g>
<g style="fill:#000000; fill-opacity:0.0; 
stroke:#000000; stroke-width:0; stroke-opacity:1; 
stroke-linecap:round; stroke-linejoin:round;">
</g>
<g style="fill:#000000; fill-opacity:1.0; 
stroke:#000000; stroke-width:0; stroke-opacity:1; 
stroke-linecap:round; stroke-linejoin:round;">
<polyline style="fill-rule:evenodd;"
points="89527,25866
89527,27283
88818,27283
88818,25866
89527,25866
" /> 
</g>
<g style="fill:#000000; fill-opacity:1.0; 
stroke:#000000; stroke-width:708.661; stroke-opacity:1; 
stroke-linecap:round; stroke-linejoin:round;">
</g>
<g style="fill:#000000; fill-opacity:0.0; 
stroke:#000000; stroke-width:708.661; stroke-opacity:1; 
stroke-linecap:round; stroke-linejoin:round;">
<path d="M87795 26929
L87795 26220
" />
<path d="M86417 26929
L86417 26220
" />
<path d="M85039 26929
L85039 26220
" />
</g>
<g style="fill:#000000; fill-opacity:0.0; 
stroke:#000000; stroke-width:0; stroke-opacity:1; 
stroke-linecap:round; stroke-linejoin:round;">
</g>
<g style="fill:#000000; fill-opacity:1.0; 
stroke:#000000; stroke-width:0; stroke-opacity:1; 
stroke-linecap:round; stroke-linejoin:round;">
<polyline style="fill-rule:evenodd;"
points="75255,36948
75255,36279
75925,36279
75925,36948
75255,36948
" /> 
</g>
<g style="fill:#000000; fill-opacity:1.0; 
stroke:#000000; stroke-width:669.291; stroke-opacity:1; 
stroke-linecap:round; stroke-linejoin:round;">
</g>
<g style="fill:#000000; fill-opacity:0.0; 
stroke:#000000; stroke-width:669.291; stroke-opacity:1; 
stroke-linecap:round; stroke-linejoin:round;">
<path d="M75590 37614
L75590 37614
" />
<path d="M75590 38614
L75590 38614
" />
<path d="M75590 39614
L75590 39614
" />
<path d="M75590 40614
L75590 40614
" />
<path d="M75590 41614
L75590 41614
" />
<path d="M75590 42614
L75590 42614
" />
<path d="M75590 43614
L75590 43614
" />
</g>
<g style="fill:#000000; fill-opacity:0.0; 
stroke:#000000; stroke-width:0; stroke-opacity:1; 
stroke-linecap:round; stroke-linejoin:round;">
</g>
<g style="fill:#000000; fill-opacity:1.0; 
stroke:#000000; stroke-width:0; stroke-opacity:1; 
stroke-linecap:round; stroke-linejoin:round;">
<polyline style="fill-rule:evenodd;"
points="75255,46003
75255,45334
75925,45334
75925,46003
75255,46003
" /> 
</g>
<g style="fill:#000000; fill-opacity:1.0; 
stroke:#000000; stroke-width:669.291; stroke-opacity:1; 
stroke-linecap:round; stroke-linejoin:round;">
</g>
<g style="fill:#000000; fill-opacity:0.0; 
stroke:#000000; stroke-width:669.291; stroke-opacity:1; 
stroke-linecap:round; stroke-linejoin:round;">
<path d="M75590 46669
L75590 46669
" />
<path d="M75590 47669
L75590 47669
" />
<path d="M75590 48669
L75590 48669
" />
<path d="M75590 49669
L75590 49669
" />
<path d="M75590 50669
L75590 50669
" />
</g>
<g style="fill:#000000; fill-opacity:0.0; 
stroke:#000000; stroke-width:0; stroke-opacity:1; 
stroke-linecap:round; stroke-linejoin:round;">
</g>
<g style="fill:#000000; fill-opacity:1.0; 
stroke:#000000; stroke-width:0; stroke-opacity:1; 
stroke-linecap:round; stroke-linejoin:round;">
<polyline style="fill-rule:evenodd;"
points="93759,44035
93759,43366
94429,43366
94429,44035
93759,44035
" /> 
</g>
<g style="fill:#000000; fill-opacity:1.0; 
stroke:#000000; stroke-width:669.291; stroke-opacity:1; 
stroke-linecap:round; stroke-linejoin:round;">
</g>
<g style="fill:#000000; fill-opacity:0.0; 
stroke:#000000; stroke-width:669.291; stroke-opacity:1; 
stroke-linecap:round; stroke-linejoin:round;">
<path d="M94094 44700
L94094 44700
" />
<path d="M94094 45700
L94094 45700
" />
<path d="M94094 46700
L94094 46700
" />
<path d="M94094 47700
L94094 47700
" />
<path d="M94094 48700
L94094 48700
" />
<path d="M94094 49700
L94094 49700
" />
<path d="M94094 50700
L94094 50700
" />
</g>
<g style="fill:#000000; fill-opacity:0.0; 
stroke:#000000; stroke-width:0; stroke-opacity:1; 
stroke-linecap:round; stroke-linejoin:round;">
</g>
<g style="fill:#000000; fill-opacity:1.0; 
stroke:#000000; stroke-width:0; stroke-opacity:1; 
stroke-linecap:round; stroke-linejoin:round;">
<polyline style="fill-rule:evenodd;"
points="77992,49921
77992,48503
78700,48503
78700,49921
77992,49921
" /> 
</g>
<g style="fill:#000000; fill-opacity:1.0; 
stroke:#000000; stroke-width:708.661; stroke-opacity:1; 
stroke-linecap:round; stroke-linejoin:round;">
</g>
<g style="fill:#000000; fill-opacity:0.0; 
stroke:#000000; stroke-width:708.661; stroke-opacity:1; 
stroke-linecap:round; stroke-linejoin:round;">
<path d="M79724 48858
L79724 49566
" />
</g>
<g style="fill:#000000; fill-opacity:0.0; 
stroke:#000000; stroke-width:0; stroke-opacity:1; 
stroke-linecap:round; stroke-linejoin:round;">
</g>
<g style="fill:#000000; fill-opacity:1.0; 
stroke:#000000; stroke-width:0; stroke-opacity:1; 
stroke-linecap:round; stroke-linejoin:round;">
<polyline style="fill-rule:evenodd;"
points="81456,25866
81456,27283
80748,27283
80748,25866
81456,25866
" /> 
</g>
<g style="fill:#000000; fill-opacity:1.0; 
stroke:#000000; stroke-width:708.661; stroke-opacity:1; 
stroke-linecap:round; stroke-linejoin:round;">
</g>
<g style="fill:#000000; fill-opacity:0.0; 
stroke:#000000; stroke-width:708.661; stroke-opacity:1; 
stroke-linecap:round; stroke-linejoin:round;">
<path d="M79724 26929
L79724 26220
" />
<path d="M78346 26929
L78346 26220
" />
<path d="M76968 26929
L76968 26220
" />
</g>
<g style="fill:#000000; fill-opacity:0.0; 
stroke:#000000; stroke-width:0; stroke-opacity:1; 
stroke-linecap:round; stroke-linejoin:round;">
</g>
<g style="fill:#000000; fill-opacity:1.0; 
stroke:#000000; stroke-width:0; stroke-opacity:1; 
stroke-linecap:round; stroke-linejoin:round;">
<polyline style="fill-rule:evenodd;"
points="95236,26062
95236,27480
94527,27480
94527,26062
95236,26062
" /> 
</g>
<g style="fill:#000000; fill-opacity:1.0; 
stroke:#000000; stroke-width:708.661; stroke-opacity:1; 
stroke-linecap:round; stroke-linejoin:round;">
</g>
<g style="fill:#000000; fill-opacity:0.0; 
stroke:#000000; stroke-width:708.661; stroke-opacity:1; 
stroke-linecap:round; stroke-linejoin:round;">
<path d="M93503 27125
L93503 26417
" />
</g>
<g style="fill:#000000; fill-opacity:0.0; 
stroke:#000000; stroke-width:0; stroke-opacity:1; 
stroke-linecap:round; stroke-linejoin:round;">
</g>
<g style="fill:#000000; fill-opacity:1.0; 
stroke:#000000; stroke-width:0; stroke-opacity:1; 
stroke-linecap:round; stroke-linejoin:round;">
<polyline style="fill-rule:evenodd;"
points="90196,49921
90196,48503
90905,48503
90905,49921
90196,49921
" /> 
</g>
<g style="fill:#000000; fill-opacity:1.0; 
stroke:#000000; stroke-width:708.661; stroke-opacity:1; 
stroke-linecap:round; stroke-linejoin:round;">
</g>
<g style="fill:#000000; fill-opacity:0.0; 
stroke:#000000; stroke-width:708.661; stroke-opacity:1; 
stroke-linecap:round; stroke-linejoin:round;">
<path d="M91929 48858
L91929 49566
" />
</g>
<g style="fill:#000000; fill-opacity:0.0; 
stroke:#000000; stroke-width:0; stroke-opacity:1; 
stroke-linecap:round; stroke-linejoin:round;">
</g>
<g style="fill:#000000; fill-opacity:1.0; 
stroke:#000000; stroke-width:0; stroke-opacity:1; 
stroke-linecap:round; stroke-linejoin:round;">
<polyline style="fill-rule:evenodd;"
points="93759,33011
93759,32342
94429,32342
94429,33011
93759,33011
" /> 
</g>
<g style="fill:#000000; fill-opacity:1.0; 
stroke:#000000; stroke-width:669.291; stroke-opacity:1; 
stroke-linecap:round; stroke-linejoin:round;">
</g>
<g style="fill:#000000; fill-opacity:0.0; 
stroke:#000000; stroke-width:669.291; stroke-opacity:1; 
stroke-linecap:round; stroke-linejoin:round;">
<path d="M94094 33677
L94094 33677
" />
<path d="M94094 34677
L94094 34677
" />
<path d="M94094 35677
L94094 35677
" />
<path d="M94094 36677
L94094 36677
" />
<path d="M94094 37677
L94094 37677
" />
<path d="M94094 38677
L94094 38677
" />
<path d="M94094 39677
L94094 39677
" />
<path d="M94094 40677
L94094 40677
" />
<path d="M94094 41677
L94094 41677
" />
</g>
<g style="fill:#000000; fill-opacity:0.0; 
stroke:#000000; stroke-width:354.331; stroke-opacity:1; 
stroke-linecap:round; stroke-linejoin:round;">
<path d="M86102 37901
L86338 37901
" />
<path d="M86102 38401
L86338 38401
" />
</g>
<g style="fill:#000000; fill-opacity:0.0; 
stroke:#000000; stroke-width:0; stroke-opacity:1; 
stroke-linecap:round; stroke-linejoin:round;">
</g>
<g style="fill:#000000; fill-opacity:1.0; 
stroke:#000000; stroke-width:0; stroke-opacity:1; 
stroke-linecap:round; stroke-linejoin:round;">
<polyline style="fill-rule:evenodd;"
points="86515,37578
85925,37578
85925,37224
86515,37224
86515,37578
" /> 
<polyline style="fill-rule:evenodd;"
points="86823,45948
86223,45948
86223,44208
86823,44208
86823,45948
" /> 
<polyline style="fill-rule:evenodd;"
points="88823,45948
88223,45948
88223,44208
88823,44208
88823,45948
" /> 
<polyline style="fill-rule:evenodd;"
points="89823,45948
89223,45948
89223,44208
89823,44208
89823,45948
" /> 
<polyline style="fill-rule:evenodd;"
points="90823,45948
90223,45948
90223,44208
90823,44208
90823,45948
" /> 
<polyline style="fill-rule:evenodd;"
points="86823,42948
86223,42948
86223,41208
86823,41208
86823,42948
" /> 
<polyline style="fill-rule:evenodd;"
points="88823,42948
88223,42948
88223,41208
88823,41208
88823,42948
" /> 
<polyline style="fill-rule:evenodd;"
points="89823,42948
89223,42948
89223,41208
89823,41208
89823,42948
" /> 
<polyline style="fill-rule:evenodd;"
points="90823,42948
90223,42948
90223,41208
90823,41208
90823,42948
" /> 
<polyline style="fill-rule:evenodd;"
points="79933,44177
79333,44177
79333,42437
79933,42437
79933,44177
" /> 
<polyline style="fill-rule:evenodd;"
points="81933,44177
81333,44177
81333,42437
81933,42437
81933,44177
" /> 
<polyline style="fill-rule:evenodd;"
points="82933,44177
82333,44177
82333,42437
82933,42437
82933,44177
" /> 
<polyline style="fill-rule:evenodd;"
points="83933,44177
83333,44177
83333,42437
83933,42437
83933,44177
" /> 
<polyline style="fill-rule:evenodd;"
points="79933,41177
79333,41177
79333,39437
79933,39437
79933,41177
" /> 
<polyline style="fill-rule:evenodd;"
points="81933,41177
81333,41177
81333,39437
81933,39437
81933,41177
" /> 
<polyline style="fill-rule:evenodd;"
points="82933,41177
82333,41177
82333,39437
82933,39437
82933,41177
" /> 
<polyline style="fill-rule:evenodd;"
points="83933,41177
83333,41177
83333,39437
83933,39437
83933,41177
" /> 
</g>
<g style="fill:#000000; fill-opacity:1.0; 
stroke:#000000; stroke-width:629.921; stroke-opacity:1; 
stroke-linecap:round; stroke-linejoin:round;">
</g>
<g style="fill:#000000; fill-opacity:0.0; 
stroke:#000000; stroke-width:629.921; stroke-opacity:1; 
stroke-linecap:round; stroke-linejoin:round;">
<path d="M88279 33858
L88003 33858
" />
<path d="M88279 29858
L88003 29858
" />
<path d="M91279 33858
L91003 33858
" />
<path d="M91279 29858
L91003 29858
" />
<path d="M88279 28858
L88003 28858
" />
<path d="M91279 28858
L91003 28858
" />
<path d="M82374 33858
L82098 33858
" />
<path d="M82374 29858
L82098 29858
" />
<path d="M85374 33858
L85098 33858
" />
<path d="M85374 29858
L85098 29858
" />
<path d="M82374 28858
L82098 28858
" />
<path d="M85374 28858
L85098 28858
" />
<path d="M75681 32874
L75405 32874
" />
<path d="M75681 28874
L75405 28874
" />
<path d="M78681 32874
L78405 32874
" />
<path d="M78681 28874
L78405 28874
" />
<path d="M75681 27874
L75405 27874
" />
<path d="M78681 27874
L78405 27874
" />
</g>
<g style="fill:#000000; fill-opacity:1.0; 
stroke:#000000; stroke-width:0; stroke-opacity:1; 
stroke-linecap:round; stroke-linejoin:round;">
<circle cx="83858.3" cy="32086.6" r="354.331" /> 
</g>
<g style="fill:#000000; fill-opacity:1.0; 
stroke:#000000; stroke-width:39.3701; stroke-opacity:1; 
stroke-linecap:round; stroke-linejoin:round;">
</g>
<g style="fill:#000000; fill-opacity:1.0; 
stroke:#000000; stroke-width:0; stroke-opacity:1; 
stroke-linecap:round; stroke-linejoin:round;">
<circle cx="76968.5" cy="30315" r="354.331" /> 
</g>
<g style="fill:#000000; fill-opacity:1.0; 
stroke:#000000; stroke-width:39.3701; stroke-opacity:1; 
stroke-linecap:round; stroke-linejoin:round;">
</g>
<g style="fill:#000000; fill-opacity:1.0; 
stroke:#000000; stroke-width:0; stroke-opacity:1; 
stroke-linecap:round; stroke-linejoin:round;">
<circle cx="90157.5" cy="35433.1" r="354.331" /> 
</g>
<g style="fill:#000000; fill-opacity:1.0; 
stroke:#000000; stroke-width:39.3701; stroke-opacity:1; 
stroke-linecap:round; stroke-linejoin:round;">
</g>
<g style="fill:#000000; fill-opacity:1.0; 
stroke:#000000; stroke-width:0; stroke-opacity:1; 
stroke-linecap:round; stroke-linejoin:round;">
<circle cx="84645.7" cy="44881.9" r="354.331" /> 
</g>
<g style="fill:#000000; fill-opacity:1.0; 
stroke:#000000; stroke-width:39.3701; stroke-opacity:1; 
stroke-linecap:round; stroke-linejoin:round;">
</g>
<g style="fill:#000000; fill-opacity:1.0; 
stroke:#000000; stroke-width:0; stroke-opacity:1; 
stroke-linecap:round; stroke-linejoin:round;">
<circle cx="77165.4" cy="41732.3" r="354.331" /> 
</g>
<g style="fill:#000000; fill-opacity:1.0; 
stroke:#000000; stroke-width:39.3701; stroke-opacity:1; 
stroke-linecap:round; stroke-linejoin:round;">
</g>
<g style="fill:#000000; fill-opacity:1.0; 
stroke:#000000; stroke-width:0; stroke-opacity:1; 
stroke-linecap:round; stroke-linejoin:round;">
<circle cx="82874" cy="26574.8" r="354.331" /> 
</g>
<g style="fill:#000000; fill-opacity:1.0; 
stroke:#000000; stroke-width:39.3701; stroke-opacity:1; 
stroke-linecap:round; stroke-linejoin:round;">
</g>
<g style="fill:#000000; fill-opacity:1.0; 
stroke:#000000; stroke-width:0; stroke-opacity:1; 
stroke-linecap:round; stroke-linejoin:round;">
<circle cx="89763.8" cy="27952.8" r="354.331" /> 
</g>
<g style="fill:#000000; fill-opacity:1.0; 
stroke:#000000; stroke-width:39.3701; stroke-opacity:1; 
stroke-linecap:round; stroke-linejoin:round;">
</g>
<g style="fill:#000000; fill-opacity:1.0; 
stroke:#000000; stroke-width:0; stroke-opacity:1; 
stroke-linecap:round; stroke-linejoin:round;">
<circle cx="89173.2" cy="30905.5" r="354.331" /> 
</g>
<g style="fill:#000000; fill-opacity:1.0; 
stroke:#000000; stroke-width:39.3701; stroke-opacity:1; 
stroke-linecap:round; stroke-linejoin:round;">
</g>
<g style="fill:#000000; fill-opacity:1.0; 
stroke:#000000; stroke-width:0; stroke-opacity:1; 
stroke-linecap:round; stroke-linejoin:round;">
<circle cx="83858.3" cy="30905.5" r="354.331" /> 
</g>
<g style="fill:#000000; fill-opacity:1.0; 
stroke:#000000; stroke-width:39.3701; stroke-opacity:1; 
stroke-linecap:round; stroke-linejoin:round;">
</g>
<g style="fill:#000000; fill-opacity:1.0; 
stroke:#000000; stroke-width:0; stroke-opacity:1; 
stroke-linecap:round; stroke-linejoin:round;">
<circle cx="83070.9" cy="45275.6" r="354.331" /> 
</g>
<g style="fill:#000000; fill-opacity:1.0; 
stroke:#000000; stroke-width:39.3701; stroke-opacity:1; 
stroke-linecap:round; stroke-linejoin:round;">
</g>
<g style="fill:#000000; fill-opacity:1.0; 
stroke:#000000; stroke-width:0; stroke-opacity:1; 
stroke-linecap:round; stroke-linejoin:round;">
<circle cx="89763.8" cy="46850.4" r="354.331" /> 
</g>
<g style="fill:#000000; fill-opacity:1.0; 
stroke:#000000; stroke-width:39.3701; stroke-opacity:1; 
stroke-linecap:round; stroke-linejoin:round;">
</g>
<g style="fill:#000000; fill-opacity:1.0; 
stroke:#000000; stroke-width:0; stroke-opacity:1; 
stroke-linecap:round; stroke-linejoin:round;">
<circle cx="84645.7" cy="40551.2" r="354.331" /> 
</g>
<g style="fill:#000000; fill-opacity:1.0; 
stroke:#000000; stroke-width:39.3701; stroke-opacity:1; 
stroke-linecap:round; stroke-linejoin:round;">
</g>
<g style="fill:#000000; fill-opacity:1.0; 
stroke:#000000; stroke-width:0; stroke-opacity:1; 
stroke-linecap:round; stroke-linejoin:round;">
<circle cx="92519.7" cy="39763.8" r="354.331" /> 
</g>
<g style="fill:#000000; fill-opacity:1.0; 
stroke:#000000; stroke-width:39.3701; stroke-opacity:1; 
stroke-linecap:round; stroke-linejoin:round;">
</g>
<g style="fill:#000000; fill-opacity:1.0; 
stroke:#000000; stroke-width:0; stroke-opacity:1; 
stroke-linecap:round; stroke-linejoin:round;">
<circle cx="85433.1" cy="39763.8" r="354.331" /> 
</g>
<g style="fill:#000000; fill-opacity:1.0; 
stroke:#000000; stroke-width:39.3701; stroke-opacity:1; 
stroke-linecap:round; stroke-linejoin:round;">
</g>
<g style="fill:#000000; fill-opacity:1.0; 
stroke:#000000; stroke-width:196.85; stroke-opacity:1; 
stroke-linecap:round; stroke-linejoin:round;">
</g>
<g style="fill:#000000; fill-opacity:0.0; 
stroke:#000000; stroke-width:196.85; stroke-opacity:1; 
stroke-linecap:round; stroke-linejoin:round;">
<path d="M83858 32086
L83858 35433
" />
<path d="M76968 30314
L76968 34645
" />
<path d="M73622 38645
L75590 40614
" />
<path d="M73622 36220
L73622 38645
" />
<path d="M75196 34645
L73622 36220
" />
<path d="M80708 34645
L76968 34645
" />
<path d="M83858 35433
L81496 35433
" />
<path d="M81496 35433
L80708 34645
" />
<path d="M76968 34645
L75196 34645
" />
<path d="M90157 35433
L83858 35433
" />
<path d="M75590 40614
L75456 40614
" />
<path d="M86523 45078
L84842 45078
" />
<path d="M84842 45078
L84645 44881
" />
<path d="M79633 43307
L78740 43307
" />
<path d="M78740 43307
L77165 41732
" />
<path d="M82874 27559
L82874 26574
" />
<path d="M83267 27952
L82874 27559
" />
<path d="M89763 27952
L83267 27952
" />
<path d="M83858 30905
L89173 30905
" />
<path d="M79633 40307
L79633 39263
" />
<path d="M80496 38401
L86220 38401
" />
<path d="M79633 39263
L80496 38401
" />
<path d="M86523 42078
L86523 38704
" />
<path d="M86523 38704
L86220 38401
" />
<path d="M79633 40307
L79633 39657
" />
<path d="M82633 43307
L82633 44838
" />
<path d="M82633 44838
L83070 45275
" />
<path d="M89523 45078
L89523 46610
" />
<path d="M89523 46610
L89763 46850
" />
<path d="M89523 45078
L89523 45822
" />
<path d="M86070 51968
L86070 51724
" />
<path d="M86070 51724
L87401 50393
" />
<path d="M88523 46515
L88523 45078
" />
<path d="M87401 47637
L88523 46515
" />
<path d="M87401 50393
L87401 47637
" />
<path d="M86070 50787
L86070 47787
" />
<path d="M89763 43700
L90523 42940
" />
<path d="M87795 43700
L89763 43700
" />
<path d="M87401 44094
L87795 43700
" />
<path d="M87401 46456
L87401 44094
" />
<path d="M86070 47787
L87401 46456
" />
<path d="M90523 42940
L90523 42078
" />
<path d="M90523 42940
L90523 42078
" />
<path d="M90523 42940
L90523 42078
" />
<path d="M80165 47244
L80708 47244
" />
<path d="M81633 46318
L81633 43307
" />
<path d="M80708 47244
L81633 46318
" />
<path d="M83633 40307
L83633 41169
" />
<path d="M83633 41169
L83070 41732
" />
<path d="M80708 45125
L80165 45669
" />
<path d="M80708 42125
L80708 45125
" />
<path d="M81102 41732
L80708 42125
" />
<path d="M83070 41732
L81102 41732
" />
<path d="M84401 40307
L83633 40307
" />
<path d="M84645 40551
L84401 40307
" />
<path d="M83633 41169
L83633 40307
" />
<path d="M89523 40003
L89523 42078
" />
<path d="M89763 39763
L89523 40003
" />
<path d="M92519 39763
L89763 39763
" />
<path d="M89763 41838
L89523 42078
" />
<path d="M82633 40307
L82633 39413
" />
<path d="M84645 38976
L85433 39763
" />
<path d="M83070 38976
L84645 38976
" />
<path d="M82633 39413
L83070 38976
" />
<path d="M82633 39502
L82633 40307
" />
</g>
<g style="fill:#000000; fill-opacity:1.0; 
stroke:#000000; stroke-width:100; stroke-opacity:1; 
stroke-linecap:round; stroke-linejoin:round;">
<polyline style="fill-rule:evenodd;"
points="100901,53657
73507,53657
73507,51653
82501,51653
82501,52283
82518,52376
82573,52461
82656,52518
82755,52538
83385,52538
83478,52520
83563,52466
83620,52382
83640,52283
83640,51653
83623,51560
83568,51475
83484,51418
83385,51398
82755,51398
82663,51416
82578,51470
82521,51554
82501,51653
73507,51653
73507,46669
74994,46669
75038,46893
75165,47082
75295,47169
75165,47255
75038,47445
74994,47669
75038,47893
75165,48082
75295,48169
75165,48255
75038,48445
74994,48669
75038,48893
75165,49082
75295,49169
75165,49255
75038,49445
74994,49669
75038,49893
75165,50082
75295,50169
75165,50255
75038,50445
74994,50669
75038,50893
75165,51082
75355,51209
75579,51253
75602,51253
75825,51209
76015,51082
76142,50893
76186,50669
76147,50472
82501,50472
82501,51102
82518,51195
82573,51280
82656,51337
82755,51357
83385,51357
83478,51339
83563,51285
83620,51201
83640,51102
83640,50472
83623,50379
83568,50294
83484,50237
83385,50217
82755,50217
82663,50234
82578,50289
82521,50373
82501,50472
76147,50472
76142,50445
76015,50255
75885,50169
76015,50082
76142,49893
76186,49669
76142,49445
76015,49255
75885,49169
76015,49082
76142,48893
76186,48669
76153,48503
77737,48503
77737,49921
77754,50013
77809,50098
77892,50156
77992,50176
78700,50176
78793,50158
78878,50103
78935,50020
78955,49921
78955,48839
79120,48839
79120,49585
79166,49816
79297,50013
79493,50144
79724,50190
79955,50144
80151,50013
80282,49816
80328,49585
80328,49325
81285,49325
81285,49616
81323,49708
81393,49778
81485,49816
81777,49816
81839,49754
81839,49262
81347,49262
81285,49325
80328,49325
80328,48839
80322,48808
81285,48808
81285,49100
81347,49162
81839,49162
81839,48670
81939,48670
81939,49162
81947,49162
81947,49262
81939,49262
81939,49754
82002,49816
82293,49816
82385,49778
82456,49708
82477,49655
82546,49724
82769,49816
83009,49817
83231,49725
83401,49555
83493,49333
83494,49092
83402,48870
83232,48700
83010,48608
82770,48608
82547,48699
82478,48769
82456,48716
82385,48646
82293,48608
82002,48608
81939,48670
81839,48670
81777,48608
81485,48608
81393,48646
81323,48716
81285,48808
80322,48808
80282,48608
80151,48412
79955,48281
79724,48235
79493,48281
79297,48412
79166,48608
79120,48839
78955,48839
78955,48503
78938,48411
78883,48326
78799,48269
78700,48249
77992,48249
77899,48266
77814,48321
77757,48404
77737,48503
76153,48503
76142,48445
76015,48255
75885,48169
76015,48082
76142,47893
76186,47669
76142,47445
76015,47255
75885,47169
76015,47082
76118,46929
76595,46929
76595,47559
76612,47651
76667,47736
76751,47793
76850,47813
77480,47813
77572,47796
77658,47741
77715,47658
77735,47559
77735,47244
79589,47244
79632,47460
79754,47643
79938,47766
80154,47809
80176,47809
80392,47766
80575,47643
80610,47592
80708,47592
80708,47592
80819,47570
80841,47565
80955,47490
81880,46565
81880,46565
81955,46452
81960,46430
81982,46318
81982,46318
81982,44422
82026,44414
82111,44359
82133,44327
82151,44354
82234,44411
82285,44422
82285,44838
82285,44838
82294,44881
82311,44971
82340,45015
82387,45084
82466,45164
82466,45395
82558,45617
82728,45787
82950,45879
83190,45880
83412,45788
83582,45618
83675,45396
83675,45155
83611,45001
84041,45001
84133,45223
84302,45393
84524,45486
84765,45486
84908,45427
85968,45427
85968,45948
85986,46041
86040,46126
86124,46183
86223,46203
86823,46203
86916,46186
87001,46131
87053,46055
87053,46312
85824,47541
85748,47654
85745,47669
85722,47787
85722,47787
85722,50346
85660,50387
85537,50571
85494,50787
85537,51003
85660,51186
85843,51309
85968,51334
85859,51443
85843,51446
85660,51569
85537,51752
85494,51968
85537,52184
85660,52367
85843,52490
86059,52533
86081,52533
86298,52490
86481,52367
86603,52184
86646,51968
86603,51752
86576,51711
87168,51119
87978,51119
88070,51341
88239,51512
88461,51604
88702,51604
88924,51512
89094,51342
89186,51120
89187,50880
89095,50658
89025,50588
89078,50566
89148,50495
89187,50404
89187,50112
89124,50050
88632,50050
88632,50057
88532,50057
88532,50050
88040,50050
87978,50112
87978,50404
88016,50495
88086,50566
88139,50588
88070,50657
87978,50879
87978,51119
87168,51119
87647,50640
87647,50640
87723,50527
87729,50495
87750,50393
87750,50393
87750,49595
87978,49595
87978,49887
88040,49950
88532,49950
88532,49458
88632,49458
88632,49950
89124,49950
89187,49887
89187,49595
89148,49504
89078,49433
88986,49395
88695,49395
88632,49458
88532,49458
88470,49395
88178,49395
88086,49433
88016,49504
87978,49595
87750,49595
87750,48503
89941,48503
89941,49921
89959,50013
90014,50098
90097,50156
90196,50176
90905,50176
90998,50158
91083,50103
91140,50020
91160,49921
91160,48839
91324,48839
91324,49585
91370,49816
91501,50013
91697,50144
91929,50190
92160,50144
92356,50013
92487,49816
92533,49585
92533,48839
92487,48608
92356,48412
92160,48281
91929,48235
91697,48281
91501,48412
91370,48608
91324,48839
91160,48839
91160,48503
91142,48411
91088,48326
91004,48269
90905,48249
90196,48249
90104,48266
90019,48321
89962,48404
89941,48503
87750,48503
87750,47782
88769,46762
88769,46762
88845,46649
88857,46590
88872,46515
88872,46515
88872,46194
88916,46186
89001,46131
89023,46099
89040,46126
89124,46183
89175,46193
89175,46610
89175,46610
89186,46665
89159,46729
89159,46970
89251,47192
89421,47362
89643,47454
89883,47454
90105,47363
90275,47193
90368,46971
90368,46730
90276,46508
90106,46338
89884,46246
89872,46246
89872,46194
89916,46186
90001,46131
90023,46099
90040,46126
90124,46183
90223,46203
90823,46203
90916,46186
91001,46131
91058,46047
91078,45948
91078,44700
93498,44700
93542,44924
93669,45114
93799,45200
93669,45287
93542,45477
93498,45700
93542,45924
93669,46114
93799,46200
93669,46287
93542,46477
93498,46700
93542,46924
93669,47114
93799,47200
93669,47287
93542,47477
93498,47700
93542,47924
93669,48114
93799,48200
93669,48287
93542,48477
93498,48700
93542,48924
93669,49114
93799,49200
93669,49287
93542,49477
93498,49700
93542,49924
93669,50114
93799,50200
93669,50287
93542,50477
93498,50700
93542,50924
93669,51114
93859,51240
94083,51285
94105,51285
94329,51240
94519,51114
94646,50924
94690,50700
94646,50477
94519,50287
94389,50200
94519,50114
94646,49924
94690,49700
94646,49477
94519,49287
94389,49200
94519,49114
94646,48924
94690,48700
94646,48477
94519,48287
94389,48200
94519,48114
94646,47924
94690,47700
94646,47477
94519,47287
94389,47200
94519,47114
94646,46924
94690,46700
94646,46477
94519,46287
94389,46200
94519,46114
94646,45924
94690,45700
94646,45477
94519,45287
94389,45200
94519,45114
94646,44924
94690,44700
94646,44477
94519,44287
94502,44276
94521,44272
94606,44218
94663,44134
94684,44035
94684,43366
94666,43273
94611,43188
94528,43131
94429,43111
93759,43111
93667,43128
93582,43183
93525,43266
93504,43366
93504,44035
93522,44128
93577,44213
93660,44270
93687,44275
93669,44287
93542,44477
93498,44700
91078,44700
91078,44208
91061,44116
91006,44030
90922,43973
90823,43953
90223,43953
90130,43971
90045,44025
90023,44058
90006,44030
89946,43989
90010,43947
90010,43947
90753,43203
90823,43203
90916,43186
91001,43131
91058,43047
91078,42948
91078,41208
91061,41116
91006,41030
90922,40973
90823,40953
90223,40953
90130,40971
90045,41025
90023,41058
90006,41030
89922,40973
89872,40963
89872,40148
89908,40112
92013,40112
92176,40275
92398,40368
92639,40368
92861,40276
93031,40106
93123,39884
93124,39644
93032,39421
92862,39251
92640,39159
92400,39159
92177,39251
92013,39415
89763,39415
89763,39415
89630,39441
89517,39517
89517,39517
89277,39757
89201,39870
89201,39870
89175,40003
89175,40003
89175,40962
89130,40971
89045,41025
89023,41058
89006,41030
88922,40973
88823,40953
88223,40953
88130,40971
88045,41025
87988,41109
87968,41208
87968,42948
87986,43041
88040,43126
88124,43183
88223,43203
88823,43203
88916,43186
89001,43131
89023,43099
89040,43126
89124,43183
89223,43203
89768,43203
89619,43352
87795,43352
87795,43352
87661,43378
87661,43378
87661,43378
87548,43454
87548,43454
87155,43848
87079,43961
87079,43961
87053,44094
87053,44094
87053,44103
87006,44030
86922,43973
86823,43953
86223,43953
86130,43971
86045,44025
85988,44109
85968,44208
85968,44730
85236,44730
85158,44540
84988,44369
84766,44277
84525,44277
84303,44369
84133,44539
84041,44761
84041,45001
83611,45001
83583,44933
83413,44763
83191,44671
82982,44671
82982,44422
83026,44414
83111,44359
83133,44327
83151,44354
83234,44411
83333,44432
83933,44432
84026,44414
84111,44359
84168,44276
84188,44177
84188,42437
84171,42344
84116,42259
84033,42202
83933,42182
83333,42182
83241,42199
83156,42254
83134,42286
83116,42259
83033,42202
82933,42182
82333,42182
82241,42199
82156,42254
82134,42286
82116,42259
82033,42202
81933,42182
81333,42182
81241,42199
81156,42254
81099,42337
81078,42437
81078,44177
81096,44269
81151,44354
81234,44411
81285,44422
81285,46174
80591,46868
80575,46844
80392,46722
80176,46679
80154,46679
79938,46722
79754,46844
79632,47027
79589,47244
77735,47244
77735,46929
77717,46836
77663,46751
77579,46694
77480,46674
76850,46674
76757,46691
76672,46746
76615,46829
76595,46929
76118,46929
76142,46893
76186,46669
76142,46445
76015,46255
75999,46244
76017,46241
76102,46186
76160,46103
76180,46003
76180,45354
76595,45354
76595,45984
76612,46076
76667,46161
76751,46219
76850,46239
77480,46239
77572,46221
77658,46166
77715,46083
77735,45984
77735,45354
77717,45261
77663,45176
77579,45119
77480,45099
76850,45099
76757,45116
76672,45171
76615,45255
76595,45354
76180,45354
76180,45334
76162,45242
76107,45156
76024,45099
75925,45079
75255,45079
75163,45097
75078,45151
75021,45235
75001,45334
75001,46003
75018,46096
75073,46181
75156,46238
75183,46244
75165,46255
75038,46445
74994,46669
73507,46669
73507,39024
75011,40527
74994,40614
75038,40837
75165,41027
75295,41114
75165,41200
75038,41390
74994,41614
75038,41837
75165,42027
75295,42114
75165,42200
75038,42390
74994,42614
75038,42837
75165,43027
75295,43114
75165,43200
75038,43390
74994,43614
75038,43837
75165,44027
75355,44154
75579,44198
75602,44198
75825,44154
76015,44027
76142,43837
76186,43614
76142,43390
76015,43200
75885,43114
76015,43027
76142,42837
76186,42614
76142,42390
76015,42200
75885,42114
76015,42027
76132,41851
76560,41851
76652,42074
76822,42244
77044,42336
77277,42336
78493,43553
78493,43553
78584,43614
78606,43628
78740,43655
78740,43655
79078,43655
79078,44177
79096,44269
79151,44354
79234,44411
79333,44432
79933,44432
80026,44414
80111,44359
80168,44276
80188,44177
80188,42437
80171,42344
80116,42259
80033,42202
79933,42182
79333,42182
79241,42199
79156,42254
79099,42337
79078,42437
79078,42958
78884,42958
77769,41843
77769,41612
77677,41390
77508,41220
77286,41128
77045,41127
76823,41219
76653,41389
76561,41611
76560,41851
76132,41851
76142,41837
76186,41614
76142,41390
76015,41200
75885,41114
76015,41027
76142,40837
76186,40614
76142,40390
76015,40200
75885,40114
76015,40027
76142,39837
76186,39614
76151,39437
79078,39437
79078,41177
79096,41269
79151,41354
79234,41411
79333,41432
79933,41432
80026,41414
80111,41359
80168,41276
80188,41177
80188,39437
80171,39344
80122,39268
80640,38750
82804,38750
82387,39167
82377,39182
82333,39182
82241,39199
82156,39254
82134,39286
82116,39259
82033,39202
81933,39182
81333,39182
81241,39199
81156,39254
81099,39337
81078,39437
81078,41177
81096,41269
81151,41354
81193,41383
81102,41383
81102,41383
80969,41410
80962,41414
80855,41485
80855,41485
80462,41879
80386,41992
80386,41992
80360,42125
80360,42125
80360,44981
80227,45114
80176,45104
80154,45104
79938,45147
79754,45269
79632,45453
79589,45669
79632,45885
79754,46068
79938,46191
80154,46234
80176,46234
80392,46191
80575,46068
80698,45885
80741,45669
80727,45599
80955,45372
80955,45372
81030,45259
81039,45212
81057,45125
81057,45125
81057,42270
81246,42080
83070,42080
83070,42080
83182,42058
83204,42054
83317,41978
83317,41978
83863,41432
83933,41432
84026,41414
84111,41359
84168,41276
84188,41177
84188,40948
84302,41063
84524,41155
84765,41155
84987,41063
85157,40893
85249,40671
85250,40431
85205,40323
85312,40368
85552,40368
85774,40276
85945,40106
86037,39884
86037,39644
85945,39421
85775,39251
85553,39159
85321,39159
84912,38750
85859,38750
85928,38796
86091,38828
86154,38828
86175,38849
86175,40962
86130,40971
86045,41025
85988,41109
85968,41208
85968,42948
85986,43041
86040,43126
86124,43183
86223,43203
86823,43203
86916,43186
87001,43131
87058,43047
87078,42948
87078,41208
87061,41116
87006,41030
86922,40973
86872,40963
86872,38704
86845,38571
86769,38458
86769,38458
86765,38454
86776,38401
86743,38238
86686,38151
86743,38065
86776,37901
86743,37738
86729,37716
86765,37628
86765,37514
86703,37451
86270,37451
86270,37459
86170,37459
86170,37451
85737,37451
85675,37514
85675,37628
85711,37716
85697,37738
85664,37901
85694,38053
80496,38053
80496,38053
80391,38074
80362,38079
80249,38155
80249,38155
79387,39017
79311,39130
79307,39152
79300,39188
79241,39199
79156,39254
79099,39337
79078,39437
76151,39437
76142,39390
76015,39200
75885,39114
76015,39027
76142,38837
76186,38614
76142,38390
76015,38200
75885,38114
76015,38027
76142,37837
76186,37614
76142,37390
76015,37200
75999,37189
76017,37186
76102,37131
76110,37120
76954,37120
76954,37411
76992,37503
77063,37574
77154,37612
77446,37612
77509,37549
77509,37057
77017,37057
76954,37120
76110,37120
76160,37047
76180,36948
76180,36603
76954,36603
76954,36895
77017,36957
77509,36957
77509,36466
77609,36466
77609,36957
77616,36957
77616,37057
77609,37057
77609,37549
77671,37612
77963,37612
78054,37574
78125,37503
78147,37450
78216,37519
78438,37612
78678,37612
78900,37520
79071,37350
79163,37128
79163,37120
80498,37120
80498,37411
80536,37503
80606,37574
80698,37612
80989,37612
81052,37549
81052,37057
80560,37057
80498,37120
79163,37120
79163,36888
79071,36665
79009,36603
80498,36603
80498,36895
80560,36957
81052,36957
81052,36466
81152,36466
81152,36957
81160,36957
81160,37057
81152,37057
81152,37549
81214,37612
81506,37612
81598,37574
81668,37503
81690,37450
81759,37519
81981,37612
82222,37612
82444,37520
82614,37350
82687,37174
85675,37174
85675,37289
85737,37351
86170,37351
86170,37036
86270,37036
86270,37351
86703,37351
86765,37289
86765,37174
86727,37082
86657,37012
86565,36974
86332,36974
86270,37036
86170,37036
86107,36974
85875,36974
85783,37012
85713,37082
85675,37174
82687,37174
82706,37128
82706,36888
82614,36665
82445,36495
82223,36403
81982,36403
81760,36495
81690,36564
81668,36511
81598,36441
81506,36403
81214,36403
81152,36466
81052,36466
80989,36403
80698,36403
80606,36441
80536,36511
80498,36603
79009,36603
78901,36495
78679,36403
78439,36403
78217,36495
78147,36564
78125,36511
78054,36441
77963,36403
77671,36403
77609,36466
77509,36466
77446,36403
77154,36403
77063,36441
76992,36511
76954,36603
76180,36603
76180,36279
76162,36186
76107,36101
76024,36044
75925,36024
75255,36024
75163,36042
75078,36096
75021,36180
75001,36279
75001,36948
75018,37041
75073,37126
75156,37183
75183,37189
75165,37200
75038,37390
74994,37614
75038,37837
75165,38027
75295,38114
75165,38200
75038,38390
74994,38614
75038,38837
75165,39027
75295,39114
75165,39200
75038,39390
75009,39540
73970,38501
73970,36364
75341,34994
80564,34994
81249,35679
81249,35679
81362,35754
81496,35781
81496,35781
89651,35781
89814,35945
90036,36037
90277,36037
90499,35945
90669,35775
90761,35553
90761,35313
90670,35091
90500,34921
90278,34828
90037,34828
89815,34920
89651,35084
84206,35084
84206,33858
84519,33858
84562,34074
84685,34257
84868,34380
85084,34423
85387,34423
85603,34380
85787,34257
85909,34074
85952,33858
87425,33858
87468,34074
87590,34257
87773,34380
87990,34423
88293,34423
88509,34380
88692,34257
88815,34074
88858,33858
90425,33858
90468,34074
90590,34257
90773,34380
90990,34423
91293,34423
91509,34380
91692,34257
91815,34074
91858,33858
91822,33677
93498,33677
93542,33900
93669,34090
93799,34177
93669,34263
93542,34453
93498,34677
93542,34900
93669,35090
93799,35177
93669,35263
93542,35453
93498,35677
93542,35900
93669,36090
93799,36177
93669,36263
93542,36453
93498,36677
93542,36900
93669,37090
93799,37177
93669,37263
93542,37453
93498,37677
93542,37900
93669,38090
93799,38177
93669,38263
93542,38453
93498,38677
93542,38900
93669,39090
93799,39177
93669,39263
93542,39453
93498,39677
93542,39900
93669,40090
93799,40177
93669,40263
93542,40453
93498,40677
93542,40900
93669,41090
93799,41177
93669,41263
93542,41453
93498,41677
93542,41900
93669,42090
93859,42217
94083,42261
94105,42261
94329,42217
94519,42090
94646,41900
94690,41677
94646,41453
94519,41263
94389,41177
94519,41090
94646,40900
94690,40677
94646,40453
94519,40263
94389,40177
94519,40090
94646,39900
94690,39677
94646,39453
94519,39263
94389,39177
94519,39090
94646,38900
94690,38677
94646,38453
94519,38263
94389,38177
94519,38090
94646,37900
94690,37677
94646,37453
94519,37263
94389,37177
94519,37090
94646,36900
94690,36677
94646,36453
94519,36263
94389,36177
94519,36090
94646,35900
94690,35677
94646,35453
94519,35263
94389,35177
94519,35090
94646,34900
94690,34677
94646,34453
94519,34263
94389,34177
94519,34090
94646,33900
94690,33677
94646,33453
94597,33380
96639,33380
96639,33671
96677,33763
96748,33833
96840,33872
97131,33872
97194,33809
97194,33317
96702,33317
96639,33380
94597,33380
94519,33263
94502,33252
94521,33249
94606,33194
94663,33110
94684,33011
94684,32863
96639,32863
96639,33155
96702,33217
97194,33217
97194,32725
97294,32725
97294,33217
97301,33217
97301,33317
97294,33317
97294,33809
97356,33872
97648,33872
97740,33833
97810,33763
97832,33710
97901,33779
98123,33871
98363,33872
98585,33780
98756,33610
98848,33388
98848,33148
98756,32925
98586,32755
98364,32663
98124,32663
97902,32755
97832,32824
97810,32771
97740,32701
97648,32663
97356,32663
97294,32725
97194,32725
97131,32663
96840,32663
96748,32701
96677,32771
96639,32863
94684,32863
94684,32342
94666,32249
94611,32164
94528,32107
94429,32087
93759,32087
93667,32105
93582,32159
93525,32243
93504,32342
93504,33011
93522,33104
93577,33189
93660,33246
93687,33252
93669,33263
93542,33453
93498,33677
91822,33677
91815,33642
91692,33458
91509,33336
91293,33293
90990,33293
90773,33336
90590,33458
90468,33642
90425,33858
88858,33858
88815,33642
88692,33458
88509,33336
88293,33293
87990,33293
87773,33336
87590,33458
87468,33642
87425,33858
85952,33858
85909,33642
85787,33458
85603,33336
85387,33293
85084,33293
84868,33336
84685,33458
84562,33642
84519,33858
84206,33858
84206,32592
84370,32429
84462,32207
84462,31966
84370,31744
84201,31574
84011,31495
84200,31418
84364,31253
88667,31253
88830,31417
89052,31509
89292,31509
89515,31418
89685,31248
89777,31026
89777,30944
97028,30944
97028,31653
97045,31746
97100,31831
97184,31888
97283,31908
97992,31908
98084,31891
98169,31836
98226,31752
98231,31732
98280,31786
98494,31886
98587,31838
98587,31349
98579,31349
98579,31249
98587,31249
98587,30759
98687,30759
98687,31249
98695,31249
98695,31349
98687,31349
98687,31838
98781,31886
98995,31786
99136,31632
99198,31726
99394,31857
99625,31903
99649,31903
99880,31857
100076,31726
100207,31530
100253,31299
100207,31067
100076,30871
99880,30740
99649,30694
99625,30694
99394,30740
99198,30871
99136,30965
98995,30811
98781,30712
98687,30759
98587,30759
98494,30712
98280,30811
98231,30864
98229,30852
98174,30767
98091,30710
97992,30689
97283,30689
97190,30707
97105,30762
97048,30845
97028,30944
89777,30944
89777,30785
89685,30563
89516,30393
89293,30301
89053,30301
88831,30392
88666,30557
84364,30557
84201,30393
83979,30301
83738,30301
83516,30392
83346,30562
83254,30784
83253,31025
83345,31247
83515,31417
83704,31496
83516,31573
83346,31743
83254,31965
83253,32206
83345,32428
83509,32592
83509,35084
81640,35084
80955,34399
80841,34323
80819,34319
80708,34297
80708,34297
77316,34297
77316,33858
81519,33858
81562,34074
81685,34257
81868,34380
82084,34423
82387,34423
82603,34380
82787,34257
82909,34074
82952,33858
82909,33642
82787,33458
82603,33336
82387,33293
82084,33293
81868,33336
81685,33458
81562,33642
81519,33858
77316,33858
77316,32874
77826,32874
77869,33090
77992,33273
78175,33395
78391,33438
78694,33438
78911,33395
79094,33273
79216,33090
79259,32874
79216,32657
79094,32474
78911,32352
78694,32309
78391,32309
78175,32352
77992,32474
77869,32657
77826,32874
77316,32874
77316,30821
77480,30657
77572,30435
77572,30195
77481,29973
77311,29802
77089,29710
76848,29710
76626,29802
76456,29972
76364,30194
76364,30434
76455,30656
76620,30821
76620,34297
75196,34297
75196,34297
75063,34323
74950,34399
74950,34399
73507,35841
73507,32874
74826,32874
74869,33090
74992,33273
75175,33395
75391,33438
75694,33438
75911,33395
76094,33273
76216,33090
76259,32874
76216,32657
76094,32474
75911,32352
75694,32309
75391,32309
75175,32352
74992,32474
74869,32657
74826,32874
73507,32874
73507,27874
74826,27874
74869,28090
74992,28273
75142,28374
74992,28474
74869,28657
74826,28874
74869,29090
74992,29273
75175,29395
75391,29438
75694,29438
75911,29395
76094,29273
76216,29090
76259,28874
76216,28657
76094,28474
75943,28374
76094,28273
76216,28090
76259,27874
76216,27657
76094,27474
75911,27352
75694,27309
75391,27309
75175,27352
74992,27474
74869,27657
74826,27874
73507,27874
73507,26201
76364,26201
76364,26947
76410,27179
76541,27375
76737,27506
76968,27552
77199,27506
77395,27375
77526,27179
77572,26947
77572,26201
77742,26201
77742,26947
77788,27179
77919,27375
78029,27449
77992,27474
77869,27657
77826,27874
77869,28090
77992,28273
78142,28374
77992,28474
77869,28657
77826,28874
77869,29090
77992,29273
78175,29395
78391,29438
78694,29438
78911,29395
79094,29273
79216,29090
79259,28874
79256,28858
81519,28858
81562,29074
81685,29257
81835,29358
81685,29458
81562,29642
81519,29858
81562,30074
81685,30257
81868,30380
82084,30423
82387,30423
82603,30380
82787,30257
82909,30074
82952,29858
82909,29642
82787,29458
82636,29358
82787,29257
82909,29074
82952,28858
82909,28642
82787,28458
82603,28336
82387,28293
82084,28293
81868,28336
81685,28458
81562,28642
81519,28858
79256,28858
79216,28657
79094,28474
78943,28374
79094,28273
79216,28090
79259,27874
79216,27657
79094,27474
78911,27352
78803,27330
78904,27179
78950,26947
78950,26201
79120,26201
79120,26947
79166,27179
79297,27375
79493,27506
79724,27552
79955,27506
80151,27375
80282,27179
80328,26947
80328,26201
80282,25970
80213,25866
80493,25866
80493,27283
80510,27376
80565,27461
80648,27518
80748,27538
81456,27538
81549,27520
81634,27466
81691,27382
81711,27283
81711,26694
82269,26694
82361,26916
82525,27081
82525,27559
82525,27559
82538,27621
82552,27692
82577,27730
82627,27805
83021,28199
83021,28199
83096,28249
83134,28274
83267,28301
83267,28301
85045,28301
84868,28336
84685,28458
84562,28642
84519,28858
84562,29074
84685,29257
84835,29358
84685,29458
84562,29642
84519,29858
84562,30074
84685,30257
84868,30380
85084,30423
85387,30423
85603,30380
85787,30257
85909,30074
85952,29858
85909,29642
85787,29458
85636,29358
85787,29257
85909,29074
85952,28858
85909,28642
85787,28458
85603,28336
85427,28301
87950,28301
87773,28336
87590,28458
87468,28642
87425,28858
87468,29074
87590,29257
87741,29358
87590,29458
87468,29642
87425,29858
87468,30074
87590,30257
87773,30380
87990,30423
88293,30423
88509,30380
88692,30257
88815,30074
88858,29858
88815,29642
88692,29458
88542,29358
88692,29257
88815,29074
88858,28858
90425,28858
90468,29074
90590,29257
90741,29358
90590,29458
90468,29642
90425,29858
90468,30074
90590,30257
90773,30380
90990,30423
91293,30423
91509,30380
91692,30257
91815,30074
91858,29858
91815,29642
91692,29458
91542,29358
91692,29257
91815,29074
91858,28858
91815,28642
91692,28458
91509,28336
91293,28293
90990,28293
90773,28336
90590,28458
90468,28642
90425,28858
88858,28858
88815,28642
88692,28458
88509,28336
88332,28301
89257,28301
89421,28464
89643,28556
89883,28557
90105,28465
90275,28295
90368,28073
90368,27833
90276,27610
90106,27440
89884,27348
89769,27348
89782,27283
89782,26398
92899,26398
92899,27144
92945,27376
93076,27572
93272,27703
93503,27749
93735,27703
93931,27572
94062,27376
94108,27144
94108,26884
94277,26884
94277,27530
94315,27621
94385,27692
94477,27730
94769,27730
94831,27667
94831,26821
94931,26821
94931,27667
94994,27730
95285,27730
95377,27692
95448,27621
95486,27530
95486,26884
95423,26821
94931,26821
94831,26821
94340,26821
94277,26884
94108,26884
94108,26398
94062,26167
93959,26013
94277,26013
94277,26659
94340,26721
94831,26721
94831,25875
94931,25875
94931,26721
95423,26721
95486,26659
95486,26013
95448,25921
95377,25851
95285,25812
94994,25812
94931,25875
94831,25875
94769,25812
94477,25812
94385,25851
94315,25921
94277,26013
93959,26013
93931,25971
93735,25840
93503,25794
93272,25840
93076,25971
92945,26167
92899,26398
89782,26398
89782,25866
89765,25773
89710,25688
89626,25631
89527,25611
88818,25611
88726,25628
88641,25683
88584,25766
88564,25866
88564,27283
88581,27376
88636,27461
88719,27518
88818,27538
89323,27538
89257,27604
83412,27604
83222,27414
83222,27080
83386,26917
83478,26695
83478,26455
83386,26232
83355,26201
84435,26201
84435,26947
84481,27179
84612,27375
84808,27506
85039,27552
85270,27506
85466,27375
85597,27179
85643,26947
85643,26201
85812,26201
85812,26947
85858,27179
85989,27375
86186,27506
86417,27552
86648,27506
86844,27375
86975,27179
87021,26947
87021,26201
87190,26201
87190,26947
87236,27179
87367,27375
87564,27506
87795,27552
88026,27506
88222,27375
88353,27179
88399,26947
88399,26201
88353,25970
88222,25774
88026,25643
87795,25597
87564,25643
87367,25774
87236,25970
87190,26201
87021,26201
86975,25970
86844,25774
86648,25643
86417,25597
86186,25643
85989,25774
85858,25970
85812,26201
85643,26201
85597,25970
85466,25774
85270,25643
85039,25597
84808,25643
84612,25774
84481,25970
84435,26201
83355,26201
83216,26062
82994,25970
82754,25970
82532,26062
82361,26232
82269,26454
82269,26694
81711,26694
81711,25866
81694,25773
81639,25688
81555,25631
81456,25611
80748,25611
80655,25628
80570,25683
80513,25766
80493,25866
80213,25866
80151,25774
79955,25643
79724,25597
79493,25643
79297,25774
79166,25970
79120,26201
78950,26201
78904,25970
78773,25774
78577,25643
78346,25597
78115,25643
77919,25774
77788,25970
77742,26201
77572,26201
77526,25970
77395,25774
77199,25643
76968,25597
76737,25643
76541,25774
76410,25970
76364,26201
73507,26201
73507,24740
97680,24740
97751,25099
97955,25404
98260,25607
98619,25679
98656,25679
99015,25607
99320,25404
99523,25099
99595,24740
99523,24380
99320,24076
99015,23872
98656,23801
98619,23801
98260,23872
97955,24076
97751,24380
97680,24740
73507,24740
73507,23311
100901,23311
100901,53657
" /> 
</g>
<g style="fill:#FFFFFF; fill-opacity:1.0; 
stroke:#FFFFFF; stroke-width:100; stroke-opacity:1; 
stroke-linecap:round; stroke-linejoin:round;">
</g>
<g style="fill:#FFFFFF; fill-opacity:1.0; 
stroke:#FFFFFF; stroke-width:0; stroke-opacity:1; 
stroke-linecap:round; stroke-linejoin:round;">
<circle cx="83858.3" cy="32086.6" r="196.85" /> 
</g>
<g style="fill:#FFFFFF; fill-opacity:1.0; 
stroke:#FFFFFF; stroke-width:39.3701; stroke-opacity:1; 
stroke-linecap:round; stroke-linejoin:round;">
</g>
<g style="fill:#FFFFFF; fill-opacity:1.0; 
stroke:#FFFFFF; stroke-width:0; stroke-opacity:1; 
stroke-linecap:round; stroke-linejoin:round;">
<circle cx="76968.5" cy="30315" r="196.85" /> 
</g>
<g style="fill:#FFFFFF; fill-opacity:1.0; 
stroke:#FFFFFF; stroke-width:39.3701; stroke-opacity:1; 
stroke-linecap:round; stroke-linejoin:round;">
</g>
<g style="fill:#FFFFFF; fill-opacity:1.0; 
stroke:#FFFFFF; stroke-width:0; stroke-opacity:1; 
stroke-linecap:round; stroke-linejoin:round;">
<circle cx="90157.5" cy="35433.1" r="196.85" /> 
</g>
<g style="fill:#FFFFFF; fill-opacity:1.0; 
stroke:#FFFFFF; stroke-width:39.3701; stroke-opacity:1; 
stroke-linecap:round; stroke-linejoin:round;">
</g>
<g style="fill:#FFFFFF; fill-opacity:1.0; 
stroke:#FFFFFF; stroke-width:0; stroke-opacity:1; 
stroke-linecap:round; stroke-linejoin:round;">
<circle cx="84645.7" cy="44881.9" r="196.85" /> 
</g>
<g style="fill:#FFFFFF; fill-opacity:1.0; 
stroke:#FFFFFF; stroke-width:39.3701; stroke-opacity:1; 
stroke-linecap:round; stroke-linejoin:round;">
</g>
<g style="fill:#FFFFFF; fill-opacity:1.0; 
stroke:#FFFFFF; stroke-width:0; stroke-opacity:1; 
stroke-linecap:round; stroke-linejoin:round;">
<circle cx="77165.4" cy="41732.3" r="196.85" /> 
</g>
<g style="fill:#FFFFFF; fill-opacity:1.0; 
stroke:#FFFFFF; stroke-width:39.3701; stroke-opacity:1; 
stroke-linecap:round; stroke-linejoin:round;">
</g>
<g style="fill:#FFFFFF; fill-opacity:1.0; 
stroke:#FFFFFF; stroke-width:0; stroke-opacity:1; 
stroke-linecap:round; stroke-linejoin:round;">
<circle cx="82874" cy="26574.8" r="196.85" /> 
</g>
<g style="fill:#FFFFFF; fill-opacity:1.0; 
stroke:#FFFFFF; stroke-width:39.3701; stroke-opacity:1; 
stroke-linecap:round; stroke-linejoin:round;">
</g>
<g style="fill:#FFFFFF; fill-opacity:1.0; 
stroke:#FFFFFF; stroke-width:0; stroke-opacity:1; 
stroke-linecap:round; stroke-linejoin:round;">
<circle cx="89763.8" cy="27952.8" r="196.85" /> 
</g>
<g style="fill:#FFFFFF; fill-opacity:1.0; 
stroke:#FFFFFF; stroke-width:39.3701; stroke-opacity:1; 
stroke-linecap:round; stroke-linejoin:round;">
</g>
<g style="fill:#FFFFFF; fill-opacity:1.0; 
stroke:#FFFFFF; stroke-width:0; stroke-opacity:1; 
stroke-linecap:round; stroke-linejoin:round;">
<circle cx="89173.2" cy="30905.5" r="196.85" /> 
</g>
<g style="fill:#FFFFFF; fill-opacity:1.0; 
stroke:#FFFFFF; stroke-width:39.3701; stroke-opacity:1; 
stroke-linecap:round; stroke-linejoin:round;">
</g>
<g style="fill:#FFFFFF; fill-opacity:1.0; 
stroke:#FFFFFF; stroke-width:0; stroke-opacity:1; 
stroke-linecap:round; stroke-linejoin:round;">
<circle cx="83858.3" cy="30905.5" r="196.85" /> 
</g>
<g style="fill:#FFFFFF; fill-opacity:1.0; 
stroke:#FFFFFF; stroke-width:39.3701; stroke-opacity:1; 
stroke-linecap:round; stroke-linejoin:round;">
</g>
<g style="fill:#FFFFFF; fill-opacity:1.0; 
stroke:#FFFFFF; stroke-width:0; stroke-opacity:1; 
stroke-linecap:round; stroke-linejoin:round;">
<circle cx="83070.9" cy="45275.6" r="196.85" /> 
</g>
<g style="fill:#FFFFFF; fill-opacity:1.0; 
stroke:#FFFFFF; stroke-width:39.3701; stroke-opacity:1; 
stroke-linecap:round; stroke-linejoin:round;">
</g>
<g style="fill:#FFFFFF; fill-opacity:1.0; 
stroke:#FFFFFF; stroke-width:0; stroke-opacity:1; 
stroke-linecap:round; stroke-linejoin:round;">
<circle cx="89763.8" cy="46850.4" r="196.85" /> 
</g>
<g style="fill:#FFFFFF; fill-opacity:1.0; 
stroke:#FFFFFF; stroke-width:39.3701; stroke-opacity:1; 
stroke-linecap:round; stroke-linejoin:round;">
</g>
<g style="fill:#FFFFFF; fill-opacity:1.0; 
stroke:#FFFFFF; stroke-width:0; stroke-opacity:1; 
stroke-linecap:round; stroke-linejoin:round;">
<circle cx="84645.7" cy="40551.2" r="196.85" /> 
</g>
<g style="fill:#FFFFFF; fill-opacity:1.0; 
stroke:#FFFFFF; stroke-width:39.3701; stroke-opacity:1; 
stroke-linecap:round; stroke-linejoin:round;">
</g>
<g style="fill:#FFFFFF; fill-opacity:1.0; 
stroke:#FFFFFF; stroke-width:0; stroke-opacity:1; 
stroke-linecap:round; stroke-linejoin:round;">
<circle cx="92519.7" cy="39763.8" r="196.85" /> 
</g>
<g style="fill:#FFFFFF; fill-opacity:1.0; 
stroke:#FFFFFF; stroke-width:39.3701; stroke-opacity:1; 
stroke-linecap:round; stroke-linejoin:round;">
</g>
<g style="fill:#FFFFFF; fill-opacity:1.0; 
stroke:#FFFFFF; stroke-width:0; stroke-opacity:1; 
stroke-linecap:round; stroke-linejoin:round;">
<circle cx="85433.1" cy="39763.8" r="196.85" /> 
</g>
<g style="fill:#FFFFFF; fill-opacity:1.0; 
stroke:#FFFFFF; stroke-width:39.3701; stroke-opacity:1; 
stroke-linecap:round; stroke-linejoin:round;">
</g>
<g style="fill:#FFFFFF; fill-opacity:1.0; 
stroke:#FFFFFF; stroke-width:0; stroke-opacity:1; 
stroke-linecap:round; stroke-linejoin:round;">
<circle cx="98637.8" cy="24740.2" r="688.976" /> 
</g>
<g style="fill:#FFFFFF; fill-opacity:1.0; 
stroke:#FFFFFF; stroke-width:39.3701; stroke-opacity:1; 
stroke-linecap:round; stroke-linejoin:round;">
</g>
<g style="fill:#FFFFFF; fill-opacity:1.0; 
stroke:#FFFFFF; stroke-width:0; stroke-opacity:1; 
stroke-linecap:round; stroke-linejoin:round;">
<circle cx="97637.8" cy="31299.2" r="196.85" /> 
</g>
<g style="fill:#FFFFFF; fill-opacity:1.0; 
stroke:#FFFFFF; stroke-width:39.3701; stroke-opacity:1; 
stroke-linecap:round; stroke-linejoin:round;">
</g>
<g style="fill:#FFFFFF; fill-opacity:1.0; 
stroke:#FFFFFF; stroke-width:0; stroke-opacity:1; 
stroke-linecap:round; stroke-linejoin:round;">
<circle cx="98637.8" cy="31299.2" r="196.85" /> 
</g>
<g style="fill:#FFFFFF; fill-opacity:1.0; 
stroke:#FFFFFF; stroke-width:39.3701; stroke-opacity:1; 
stroke-linecap:round; stroke-linejoin:round;">
</g>
<g style="fill:#FFFFFF; fill-opacity:1.0; 
stroke:#FFFFFF; stroke-width:0; stroke-opacity:1; 
stroke-linecap:round; stroke-linejoin:round;">
<circle cx="99637.8" cy="31299.2" r="196.85" /> 
</g>
<g style="fill:#FFFFFF; fill-opacity:1.0; 
stroke:#FFFFFF; stroke-width:39.3701; stroke-opacity:1; 
stroke-linecap:round; stroke-linejoin:round;">
</g>
<g style="fill:#FFFFFF; fill-opacity:1.0; 
stroke:#FFFFFF; stroke-width:0; stroke-opacity:1; 
stroke-linecap:round; stroke-linejoin:round;">
<circle cx="77165.4" cy="45669.3" r="157.48" /> 
</g>
<g style="fill:#FFFFFF; fill-opacity:1.0; 
stroke:#FFFFFF; stroke-width:39.3701; stroke-opacity:1; 
stroke-linecap:round; stroke-linejoin:round;">
</g>
<g style="fill:#FFFFFF; fill-opacity:1.0; 
stroke:#FFFFFF; stroke-width:0; stroke-opacity:1; 
stroke-linecap:round; stroke-linejoin:round;">
<circle cx="80165.4" cy="45669.3" r="157.48" /> 
</g>
<g style="fill:#FFFFFF; fill-opacity:1.0; 
stroke:#FFFFFF; stroke-width:39.3701; stroke-opacity:1; 
stroke-linecap:round; stroke-linejoin:round;">
</g>
<g style="fill:#FFFFFF; fill-opacity:1.0; 
stroke:#FFFFFF; stroke-width:0; stroke-opacity:1; 
stroke-linecap:round; stroke-linejoin:round;">
<circle cx="88582.7" cy="50000" r="177.165" /> 
</g>
<g style="fill:#FFFFFF; fill-opacity:1.0; 
stroke:#FFFFFF; stroke-width:39.3701; stroke-opacity:1; 
stroke-linecap:round; stroke-linejoin:round;">
</g>
<g style="fill:#FFFFFF; fill-opacity:1.0; 
stroke:#FFFFFF; stroke-width:0; stroke-opacity:1; 
stroke-linecap:round; stroke-linejoin:round;">
<circle cx="88582.7" cy="51000" r="177.165" /> 
</g>
<g style="fill:#FFFFFF; fill-opacity:1.0; 
stroke:#FFFFFF; stroke-width:39.3701; stroke-opacity:1; 
stroke-linecap:round; stroke-linejoin:round;">
</g>
<g style="fill:#FFFFFF; fill-opacity:1.0; 
stroke:#FFFFFF; stroke-width:0; stroke-opacity:1; 
stroke-linecap:round; stroke-linejoin:round;">
<circle cx="81889.8" cy="49212.6" r="177.165" /> 
</g>
<g style="fill:#FFFFFF; fill-opacity:1.0; 
stroke:#FFFFFF; stroke-width:39.3701; stroke-opacity:1; 
stroke-linecap:round; stroke-linejoin:round;">
</g>
<g style="fill:#FFFFFF; fill-opacity:1.0; 
stroke:#FFFFFF; stroke-width:0; stroke-opacity:1; 
stroke-linecap:round; stroke-linejoin:round;">
<circle cx="82889.8" cy="49212.6" r="177.165" /> 
</g>
<g style="fill:#FFFFFF; fill-opacity:1.0; 
stroke:#FFFFFF; stroke-width:39.3701; stroke-opacity:1; 
stroke-linecap:round; stroke-linejoin:round;">
</g>
<g style="fill:#FFFFFF; fill-opacity:1.0; 
stroke:#FFFFFF; stroke-width:0; stroke-opacity:1; 
stroke-linecap:round; stroke-linejoin:round;">
<circle cx="77559.1" cy="37007.9" r="177.165" /> 
</g>
<g style="fill:#FFFFFF; fill-opacity:1.0; 
stroke:#FFFFFF; stroke-width:39.3701; stroke-opacity:1; 
stroke-linecap:round; stroke-linejoin:round;">
</g>
<g style="fill:#FFFFFF; fill-opacity:1.0; 
stroke:#FFFFFF; stroke-width:0; stroke-opacity:1; 
stroke-linecap:round; stroke-linejoin:round;">
<circle cx="78559.1" cy="37007.9" r="177.165" /> 
</g>
<g style="fill:#FFFFFF; fill-opacity:1.0; 
stroke:#FFFFFF; stroke-width:39.3701; stroke-opacity:1; 
stroke-linecap:round; stroke-linejoin:round;">
</g>
<g style="fill:#FFFFFF; fill-opacity:1.0; 
stroke:#FFFFFF; stroke-width:0; stroke-opacity:1; 
stroke-linecap:round; stroke-linejoin:round;">
<circle cx="81102.4" cy="37007.9" r="177.165" /> 
</g>
<g style="fill:#FFFFFF; fill-opacity:1.0; 
stroke:#FFFFFF; stroke-width:39.3701; stroke-opacity:1; 
stroke-linecap:round; stroke-linejoin:round;">
</g>
<g style="fill:#FFFFFF; fill-opacity:1.0; 
stroke:#FFFFFF; stroke-width:0; stroke-opacity:1; 
stroke-linecap:round; stroke-linejoin:round;">
<circle cx="82102.4" cy="37007.9" r="177.165" /> 
</g>
<g style="fill:#FFFFFF; fill-opacity:1.0; 
stroke:#FFFFFF; stroke-width:39.3701; stroke-opacity:1; 
stroke-linecap:round; stroke-linejoin:round;">
</g>
<g style="fill:#FFFFFF; fill-opacity:1.0; 
stroke:#FFFFFF; stroke-width:0; stroke-opacity:1; 
stroke-linecap:round; stroke-linejoin:round;">
<circle cx="97244.1" cy="33267.7" r="177.165" /> 
</g>
<g style="fill:#FFFFFF; fill-opacity:1.0; 
stroke:#FFFFFF; stroke-width:39.3701; stroke-opacity:1; 
stroke-linecap:round; stroke-linejoin:round;">
</g>
<g style="fill:#FFFFFF; fill-opacity:1.0; 
stroke:#FFFFFF; stroke-width:0; stroke-opacity:1; 
stroke-linecap:round; stroke-linejoin:round;">
<circle cx="98244.1" cy="33267.7" r="177.165" /> 
</g>
<g style="fill:#FFFFFF; fill-opacity:1.0; 
stroke:#FFFFFF; stroke-width:39.3701; stroke-opacity:1; 
stroke-linecap:round; stroke-linejoin:round;">
</g>
<g style="fill:#FFFFFF; fill-opacity:1.0; 
stroke:#FFFFFF; stroke-width:0; stroke-opacity:1; 
stroke-linecap:round; stroke-linejoin:round;">
<circle cx="83070.9" cy="51968.5" r="157.48" /> 
</g>
<g style="fill:#FFFFFF; fill-opacity:1.0; 
stroke:#FFFFFF; stroke-width:39.3701; stroke-opacity:1; 
stroke-linecap:round; stroke-linejoin:round;">
</g>
<g style="fill:#FFFFFF; fill-opacity:1.0; 
stroke:#FFFFFF; stroke-width:0; stroke-opacity:1; 
stroke-linecap:round; stroke-linejoin:round;">
<circle cx="86070.9" cy="51968.5" r="157.48" /> 
</g>
<g style="fill:#FFFFFF; fill-opacity:1.0; 
stroke:#FFFFFF; stroke-width:39.3701; stroke-opacity:1; 
stroke-linecap:round; stroke-linejoin:round;">
</g>
<g style="fill:#FFFFFF; fill-opacity:1.0; 
stroke:#FFFFFF; stroke-width:0; stroke-opacity:1; 
stroke-linecap:round; stroke-linejoin:round;">
<circle cx="83070.9" cy="50787.4" r="157.48" /> 
</g>
<g style="fill:#FFFFFF; fill-opacity:1.0; 
stroke:#FFFFFF; stroke-width:39.3701; stroke-opacity:1; 
stroke-linecap:round; stroke-linejoin:round;">
</g>
<g style="fill:#FFFFFF; fill-opacity:1.0; 
stroke:#FFFFFF; stroke-width:0; stroke-opacity:1; 
stroke-linecap:round; stroke-linejoin:round;">
<circle cx="86070.9" cy="50787.4" r="157.48" /> 
</g>
<g style="fill:#FFFFFF; fill-opacity:1.0; 
stroke:#FFFFFF; stroke-width:39.3701; stroke-opacity:1; 
stroke-linecap:round; stroke-linejoin:round;">
</g>
<g style="fill:#FFFFFF; fill-opacity:1.0; 
stroke:#FFFFFF; stroke-width:0; stroke-opacity:1; 
stroke-linecap:round; stroke-linejoin:round;">
<circle cx="77165.4" cy="47244.1" r="157.48" /> 
</g>
<g style="fill:#FFFFFF; fill-opacity:1.0; 
stroke:#FFFFFF; stroke-width:39.3701; stroke-opacity:1; 
stroke-linecap:round; stroke-linejoin:round;">
</g>
<g style="fill:#FFFFFF; fill-opacity:1.0; 
stroke:#FFFFFF; stroke-width:0; stroke-opacity:1; 
stroke-linecap:round; stroke-linejoin:round;">
<circle cx="80165.4" cy="47244.1" r="157.48" /> 
</g>
<g style="fill:#FFFFFF; fill-opacity:1.0; 
stroke:#FFFFFF; stroke-width:39.3701; stroke-opacity:1; 
stroke-linecap:round; stroke-linejoin:round;">
</g>
<g style="fill:#FFFFFF; fill-opacity:1.0; 
stroke:#FFFFFF; stroke-width:0; stroke-opacity:1; 
stroke-linecap:round; stroke-linejoin:round;">
<circle cx="89173.2" cy="26574.8" r="236.22" /> 
</g>
<g style="fill:#FFFFFF; fill-opacity:1.0; 
stroke:#FFFFFF; stroke-width:39.3701; stroke-opacity:1; 
stroke-linecap:round; stroke-linejoin:round;">
</g>
<g style="fill:#FFFFFF; fill-opacity:1.0; 
stroke:#FFFFFF; stroke-width:0; stroke-opacity:1; 
stroke-linecap:round; stroke-linejoin:round;">
<circle cx="87795.3" cy="26574.8" r="236.22" /> 
</g>
<g style="fill:#FFFFFF; fill-opacity:1.0; 
stroke:#FFFFFF; stroke-width:39.3701; stroke-opacity:1; 
stroke-linecap:round; stroke-linejoin:round;">
</g>
<g style="fill:#FFFFFF; fill-opacity:1.0; 
stroke:#FFFFFF; stroke-width:0; stroke-opacity:1; 
stroke-linecap:round; stroke-linejoin:round;">
<circle cx="86417.3" cy="26574.8" r="236.22" /> 
</g>
<g style="fill:#FFFFFF; fill-opacity:1.0; 
stroke:#FFFFFF; stroke-width:39.3701; stroke-opacity:1; 
stroke-linecap:round; stroke-linejoin:round;">
</g>
<g style="fill:#FFFFFF; fill-opacity:1.0; 
stroke:#FFFFFF; stroke-width:0; stroke-opacity:1; 
stroke-linecap:round; stroke-linejoin:round;">
<circle cx="85039.4" cy="26574.8" r="236.22" /> 
</g>
<g style="fill:#FFFFFF; fill-opacity:1.0; 
stroke:#FFFFFF; stroke-width:39.3701; stroke-opacity:1; 
stroke-linecap:round; stroke-linejoin:round;">
</g>
<g style="fill:#FFFFFF; fill-opacity:1.0; 
stroke:#FFFFFF; stroke-width:0; stroke-opacity:1; 
stroke-linecap:round; stroke-linejoin:round;">
<circle cx="75590.6" cy="36614.2" r="196.85" /> 
</g>
<g style="fill:#FFFFFF; fill-opacity:1.0; 
stroke:#FFFFFF; stroke-width:39.3701; stroke-opacity:1; 
stroke-linecap:round; stroke-linejoin:round;">
</g>
<g style="fill:#FFFFFF; fill-opacity:1.0; 
stroke:#FFFFFF; stroke-width:0; stroke-opacity:1; 
stroke-linecap:round; stroke-linejoin:round;">
<circle cx="75590.6" cy="37614.2" r="196.85" /> 
</g>
<g style="fill:#FFFFFF; fill-opacity:1.0; 
stroke:#FFFFFF; stroke-width:39.3701; stroke-opacity:1; 
stroke-linecap:round; stroke-linejoin:round;">
</g>
<g style="fill:#FFFFFF; fill-opacity:1.0; 
stroke:#FFFFFF; stroke-width:0; stroke-opacity:1; 
stroke-linecap:round; stroke-linejoin:round;">
<circle cx="75590.6" cy="38614.2" r="196.85" /> 
</g>
<g style="fill:#FFFFFF; fill-opacity:1.0; 
stroke:#FFFFFF; stroke-width:39.3701; stroke-opacity:1; 
stroke-linecap:round; stroke-linejoin:round;">
</g>
<g style="fill:#FFFFFF; fill-opacity:1.0; 
stroke:#FFFFFF; stroke-width:0; stroke-opacity:1; 
stroke-linecap:round; stroke-linejoin:round;">
<circle cx="75590.6" cy="39614.2" r="196.85" /> 
</g>
<g style="fill:#FFFFFF; fill-opacity:1.0; 
stroke:#FFFFFF; stroke-width:39.3701; stroke-opacity:1; 
stroke-linecap:round; stroke-linejoin:round;">
</g>
<g style="fill:#FFFFFF; fill-opacity:1.0; 
stroke:#FFFFFF; stroke-width:0; stroke-opacity:1; 
stroke-linecap:round; stroke-linejoin:round;">
<circle cx="75590.6" cy="40614.2" r="196.85" /> 
</g>
<g style="fill:#FFFFFF; fill-opacity:1.0; 
stroke:#FFFFFF; stroke-width:39.3701; stroke-opacity:1; 
stroke-linecap:round; stroke-linejoin:round;">
</g>
<g style="fill:#FFFFFF; fill-opacity:1.0; 
stroke:#FFFFFF; stroke-width:0; stroke-opacity:1; 
stroke-linecap:round; stroke-linejoin:round;">
<circle cx="75590.6" cy="41614.2" r="196.85" /> 
</g>
<g style="fill:#FFFFFF; fill-opacity:1.0; 
stroke:#FFFFFF; stroke-width:39.3701; stroke-opacity:1; 
stroke-linecap:round; stroke-linejoin:round;">
</g>
<g style="fill:#FFFFFF; fill-opacity:1.0; 
stroke:#FFFFFF; stroke-width:0; stroke-opacity:1; 
stroke-linecap:round; stroke-linejoin:round;">
<circle cx="75590.6" cy="42614.2" r="196.85" /> 
</g>
<g style="fill:#FFFFFF; fill-opacity:1.0; 
stroke:#FFFFFF; stroke-width:39.3701; stroke-opacity:1; 
stroke-linecap:round; stroke-linejoin:round;">
</g>
<g style="fill:#FFFFFF; fill-opacity:1.0; 
stroke:#FFFFFF; stroke-width:0; stroke-opacity:1; 
stroke-linecap:round; stroke-linejoin:round;">
<circle cx="75590.6" cy="43614.2" r="196.85" /> 
</g>
<g style="fill:#FFFFFF; fill-opacity:1.0; 
stroke:#FFFFFF; stroke-width:39.3701; stroke-opacity:1; 
stroke-linecap:round; stroke-linejoin:round;">
</g>
<g style="fill:#FFFFFF; fill-opacity:1.0; 
stroke:#FFFFFF; stroke-width:0; stroke-opacity:1; 
stroke-linecap:round; stroke-linejoin:round;">
<circle cx="75590.6" cy="45669.3" r="196.85" /> 
</g>
<g style="fill:#FFFFFF; fill-opacity:1.0; 
stroke:#FFFFFF; stroke-width:39.3701; stroke-opacity:1; 
stroke-linecap:round; stroke-linejoin:round;">
</g>
<g style="fill:#FFFFFF; fill-opacity:1.0; 
stroke:#FFFFFF; stroke-width:0; stroke-opacity:1; 
stroke-linecap:round; stroke-linejoin:round;">
<circle cx="75590.6" cy="46669.3" r="196.85" /> 
</g>
<g style="fill:#FFFFFF; fill-opacity:1.0; 
stroke:#FFFFFF; stroke-width:39.3701; stroke-opacity:1; 
stroke-linecap:round; stroke-linejoin:round;">
</g>
<g style="fill:#FFFFFF; fill-opacity:1.0; 
stroke:#FFFFFF; stroke-width:0; stroke-opacity:1; 
stroke-linecap:round; stroke-linejoin:round;">
<circle cx="75590.6" cy="47669.3" r="196.85" /> 
</g>
<g style="fill:#FFFFFF; fill-opacity:1.0; 
stroke:#FFFFFF; stroke-width:39.3701; stroke-opacity:1; 
stroke-linecap:round; stroke-linejoin:round;">
</g>
<g style="fill:#FFFFFF; fill-opacity:1.0; 
stroke:#FFFFFF; stroke-width:0; stroke-opacity:1; 
stroke-linecap:round; stroke-linejoin:round;">
<circle cx="75590.6" cy="48669.3" r="196.85" /> 
</g>
<g style="fill:#FFFFFF; fill-opacity:1.0; 
stroke:#FFFFFF; stroke-width:39.3701; stroke-opacity:1; 
stroke-linecap:round; stroke-linejoin:round;">
</g>
<g style="fill:#FFFFFF; fill-opacity:1.0; 
stroke:#FFFFFF; stroke-width:0; stroke-opacity:1; 
stroke-linecap:round; stroke-linejoin:round;">
<circle cx="75590.6" cy="49669.3" r="196.85" /> 
</g>
<g style="fill:#FFFFFF; fill-opacity:1.0; 
stroke:#FFFFFF; stroke-width:39.3701; stroke-opacity:1; 
stroke-linecap:round; stroke-linejoin:round;">
</g>
<g style="fill:#FFFFFF; fill-opacity:1.0; 
stroke:#FFFFFF; stroke-width:0; stroke-opacity:1; 
stroke-linecap:round; stroke-linejoin:round;">
<circle cx="75590.6" cy="50669.3" r="196.85" /> 
</g>
<g style="fill:#FFFFFF; fill-opacity:1.0; 
stroke:#FFFFFF; stroke-width:39.3701; stroke-opacity:1; 
stroke-linecap:round; stroke-linejoin:round;">
</g>
<g style="fill:#FFFFFF; fill-opacity:1.0; 
stroke:#FFFFFF; stroke-width:0; stroke-opacity:1; 
stroke-linecap:round; stroke-linejoin:round;">
<circle cx="94094.5" cy="43700.8" r="196.85" /> 
</g>
<g style="fill:#FFFFFF; fill-opacity:1.0; 
stroke:#FFFFFF; stroke-width:39.3701; stroke-opacity:1; 
stroke-linecap:round; stroke-linejoin:round;">
</g>
<g style="fill:#FFFFFF; fill-opacity:1.0; 
stroke:#FFFFFF; stroke-width:0; stroke-opacity:1; 
stroke-linecap:round; stroke-linejoin:round;">
<circle cx="94094.5" cy="44700.8" r="196.85" /> 
</g>
<g style="fill:#FFFFFF; fill-opacity:1.0; 
stroke:#FFFFFF; stroke-width:39.3701; stroke-opacity:1; 
stroke-linecap:round; stroke-linejoin:round;">
</g>
<g style="fill:#FFFFFF; fill-opacity:1.0; 
stroke:#FFFFFF; stroke-width:0; stroke-opacity:1; 
stroke-linecap:round; stroke-linejoin:round;">
<circle cx="94094.5" cy="45700.8" r="196.85" /> 
</g>
<g style="fill:#FFFFFF; fill-opacity:1.0; 
stroke:#FFFFFF; stroke-width:39.3701; stroke-opacity:1; 
stroke-linecap:round; stroke-linejoin:round;">
</g>
<g style="fill:#FFFFFF; fill-opacity:1.0; 
stroke:#FFFFFF; stroke-width:0; stroke-opacity:1; 
stroke-linecap:round; stroke-linejoin:round;">
<circle cx="94094.5" cy="46700.8" r="196.85" /> 
</g>
<g style="fill:#FFFFFF; fill-opacity:1.0; 
stroke:#FFFFFF; stroke-width:39.3701; stroke-opacity:1; 
stroke-linecap:round; stroke-linejoin:round;">
</g>
<g style="fill:#FFFFFF; fill-opacity:1.0; 
stroke:#FFFFFF; stroke-width:0; stroke-opacity:1; 
stroke-linecap:round; stroke-linejoin:round;">
<circle cx="94094.5" cy="47700.8" r="196.85" /> 
</g>
<g style="fill:#FFFFFF; fill-opacity:1.0; 
stroke:#FFFFFF; stroke-width:39.3701; stroke-opacity:1; 
stroke-linecap:round; stroke-linejoin:round;">
</g>
<g style="fill:#FFFFFF; fill-opacity:1.0; 
stroke:#FFFFFF; stroke-width:0; stroke-opacity:1; 
stroke-linecap:round; stroke-linejoin:round;">
<circle cx="94094.5" cy="48700.8" r="196.85" /> 
</g>
<g style="fill:#FFFFFF; fill-opacity:1.0; 
stroke:#FFFFFF; stroke-width:39.3701; stroke-opacity:1; 
stroke-linecap:round; stroke-linejoin:round;">
</g>
<g style="fill:#FFFFFF; fill-opacity:1.0; 
stroke:#FFFFFF; stroke-width:0; stroke-opacity:1; 
stroke-linecap:round; stroke-linejoin:round;">
<circle cx="94094.5" cy="49700.8" r="196.85" /> 
</g>
<g style="fill:#FFFFFF; fill-opacity:1.0; 
stroke:#FFFFFF; stroke-width:39.3701; stroke-opacity:1; 
stroke-linecap:round; stroke-linejoin:round;">
</g>
<g style="fill:#FFFFFF; fill-opacity:1.0; 
stroke:#FFFFFF; stroke-width:0; stroke-opacity:1; 
stroke-linecap:round; stroke-linejoin:round;">
<circle cx="94094.5" cy="50700.8" r="196.85" /> 
</g>
<g style="fill:#FFFFFF; fill-opacity:1.0; 
stroke:#FFFFFF; stroke-width:39.3701; stroke-opacity:1; 
stroke-linecap:round; stroke-linejoin:round;">
</g>
<g style="fill:#FFFFFF; fill-opacity:1.0; 
stroke:#FFFFFF; stroke-width:0; stroke-opacity:1; 
stroke-linecap:round; stroke-linejoin:round;">
<circle cx="78346.5" cy="49212.6" r="236.22" /> 
</g>
<g style="fill:#FFFFFF; fill-opacity:1.0; 
stroke:#FFFFFF; stroke-width:39.3701; stroke-opacity:1; 
stroke-linecap:round; stroke-linejoin:round;">
</g>
<g style="fill:#FFFFFF; fill-opacity:1.0; 
stroke:#FFFFFF; stroke-width:0; stroke-opacity:1; 
stroke-linecap:round; stroke-linejoin:round;">
<circle cx="79724.4" cy="49212.6" r="236.22" /> 
</g>
<g style="fill:#FFFFFF; fill-opacity:1.0; 
stroke:#FFFFFF; stroke-width:39.3701; stroke-opacity:1; 
stroke-linecap:round; stroke-linejoin:round;">
</g>
<g style="fill:#FFFFFF; fill-opacity:1.0; 
stroke:#FFFFFF; stroke-width:0; stroke-opacity:1; 
stroke-linecap:round; stroke-linejoin:round;">
<circle cx="81102.4" cy="26574.8" r="236.22" /> 
</g>
<g style="fill:#FFFFFF; fill-opacity:1.0; 
stroke:#FFFFFF; stroke-width:39.3701; stroke-opacity:1; 
stroke-linecap:round; stroke-linejoin:round;">
</g>
<g style="fill:#FFFFFF; fill-opacity:1.0; 
stroke:#FFFFFF; stroke-width:0; stroke-opacity:1; 
stroke-linecap:round; stroke-linejoin:round;">
<circle cx="79724.4" cy="26574.8" r="236.22" /> 
</g>
<g style="fill:#FFFFFF; fill-opacity:1.0; 
stroke:#FFFFFF; stroke-width:39.3701; stroke-opacity:1; 
stroke-linecap:round; stroke-linejoin:round;">
</g>
<g style="fill:#FFFFFF; fill-opacity:1.0; 
stroke:#FFFFFF; stroke-width:0; stroke-opacity:1; 
stroke-linecap:round; stroke-linejoin:round;">
<circle cx="78346.5" cy="26574.8" r="236.22" /> 
</g>
<g style="fill:#FFFFFF; fill-opacity:1.0; 
stroke:#FFFFFF; stroke-width:39.3701; stroke-opacity:1; 
stroke-linecap:round; stroke-linejoin:round;">
</g>
<g style="fill:#FFFFFF; fill-opacity:1.0; 
stroke:#FFFFFF; stroke-width:0; stroke-opacity:1; 
stroke-linecap:round; stroke-linejoin:round;">
<circle cx="76968.5" cy="26574.8" r="236.22" /> 
</g>
<g style="fill:#FFFFFF; fill-opacity:1.0; 
stroke:#FFFFFF; stroke-width:39.3701; stroke-opacity:1; 
stroke-linecap:round; stroke-linejoin:round;">
</g>
<g style="fill:#FFFFFF; fill-opacity:1.0; 
stroke:#FFFFFF; stroke-width:0; stroke-opacity:1; 
stroke-linecap:round; stroke-linejoin:round;">
<circle cx="94881.9" cy="26771.7" r="236.22" /> 
</g>
<g style="fill:#FFFFFF; fill-opacity:1.0; 
stroke:#FFFFFF; stroke-width:39.3701; stroke-opacity:1; 
stroke-linecap:round; stroke-linejoin:round;">
</g>
<g style="fill:#FFFFFF; fill-opacity:1.0; 
stroke:#FFFFFF; stroke-width:0; stroke-opacity:1; 
stroke-linecap:round; stroke-linejoin:round;">
<circle cx="93503.9" cy="26771.7" r="236.22" /> 
</g>
<g style="fill:#FFFFFF; fill-opacity:1.0; 
stroke:#FFFFFF; stroke-width:39.3701; stroke-opacity:1; 
stroke-linecap:round; stroke-linejoin:round;">
</g>
<g style="fill:#FFFFFF; fill-opacity:1.0; 
stroke:#FFFFFF; stroke-width:0; stroke-opacity:1; 
stroke-linecap:round; stroke-linejoin:round;">
<circle cx="90551.2" cy="49212.6" r="236.22" /> 
</g>
<g style="fill:#FFFFFF; fill-opacity:1.0; 
stroke:#FFFFFF; stroke-width:39.3701; stroke-opacity:1; 
stroke-linecap:round; stroke-linejoin:round;">
</g>
<g style="fill:#FFFFFF; fill-opacity:1.0; 
stroke:#FFFFFF; stroke-width:0; stroke-opacity:1; 
stroke-linecap:round; stroke-linejoin:round;">
<circle cx="91929.1" cy="49212.6" r="236.22" /> 
</g>
<g style="fill:#FFFFFF; fill-opacity:1.0; 
stroke:#FFFFFF; stroke-width:39.3701; stroke-opacity:1; 
stroke-linecap:round; stroke-linejoin:round;">
</g>
<g style="fill:#FFFFFF; fill-opacity:1.0; 
stroke:#FFFFFF; stroke-width:0; stroke-opacity:1; 
stroke-linecap:round; stroke-linejoin:round;">
<circle cx="94094.5" cy="32677.2" r="196.85" /> 
</g>
<g style="fill:#FFFFFF; fill-opacity:1.0; 
stroke:#FFFFFF; stroke-width:39.3701; stroke-opacity:1; 
stroke-linecap:round; stroke-linejoin:round;">
</g>
<g style="fill:#FFFFFF; fill-opacity:1.0; 
stroke:#FFFFFF; stroke-width:0; stroke-opacity:1; 
stroke-linecap:round; stroke-linejoin:round;">
<circle cx="94094.5" cy="33677.2" r="196.85" /> 
</g>
<g style="fill:#FFFFFF; fill-opacity:1.0; 
stroke:#FFFFFF; stroke-width:39.3701; stroke-opacity:1; 
stroke-linecap:round; stroke-linejoin:round;">
</g>
<g style="fill:#FFFFFF; fill-opacity:1.0; 
stroke:#FFFFFF; stroke-width:0; stroke-opacity:1; 
stroke-linecap:round; stroke-linejoin:round;">
<circle cx="94094.5" cy="34677.2" r="196.85" /> 
</g>
<g style="fill:#FFFFFF; fill-opacity:1.0; 
stroke:#FFFFFF; stroke-width:39.3701; stroke-opacity:1; 
stroke-linecap:round; stroke-linejoin:round;">
</g>
<g style="fill:#FFFFFF; fill-opacity:1.0; 
stroke:#FFFFFF; stroke-width:0; stroke-opacity:1; 
stroke-linecap:round; stroke-linejoin:round;">
<circle cx="94094.5" cy="35677.2" r="196.85" /> 
</g>
<g style="fill:#FFFFFF; fill-opacity:1.0; 
stroke:#FFFFFF; stroke-width:39.3701; stroke-opacity:1; 
stroke-linecap:round; stroke-linejoin:round;">
</g>
<g style="fill:#FFFFFF; fill-opacity:1.0; 
stroke:#FFFFFF; stroke-width:0; stroke-opacity:1; 
stroke-linecap:round; stroke-linejoin:round;">
<circle cx="94094.5" cy="36677.2" r="196.85" /> 
</g>
<g style="fill:#FFFFFF; fill-opacity:1.0; 
stroke:#FFFFFF; stroke-width:39.3701; stroke-opacity:1; 
stroke-linecap:round; stroke-linejoin:round;">
</g>
<g style="fill:#FFFFFF; fill-opacity:1.0; 
stroke:#FFFFFF; stroke-width:0; stroke-opacity:1; 
stroke-linecap:round; stroke-linejoin:round;">
<circle cx="94094.5" cy="37677.2" r="196.85" /> 
</g>
<g style="fill:#FFFFFF; fill-opacity:1.0; 
stroke:#FFFFFF; stroke-width:39.3701; stroke-opacity:1; 
stroke-linecap:round; stroke-linejoin:round;">
</g>
<g style="fill:#FFFFFF; fill-opacity:1.0; 
stroke:#FFFFFF; stroke-width:0; stroke-opacity:1; 
stroke-linecap:round; stroke-linejoin:round;">
<circle cx="94094.5" cy="38677.2" r="196.85" /> 
</g>
<g style="fill:#FFFFFF; fill-opacity:1.0; 
stroke:#FFFFFF; stroke-width:39.3701; stroke-opacity:1; 
stroke-linecap:round; stroke-linejoin:round;">
</g>
<g style="fill:#FFFFFF; fill-opacity:1.0; 
stroke:#FFFFFF; stroke-width:0; stroke-opacity:1; 
stroke-linecap:round; stroke-linejoin:round;">
<circle cx="94094.5" cy="39677.2" r="196.85" /> 
</g>
<g style="fill:#FFFFFF; fill-opacity:1.0; 
stroke:#FFFFFF; stroke-width:39.3701; stroke-opacity:1; 
stroke-linecap:round; stroke-linejoin:round;">
</g>
<g style="fill:#FFFFFF; fill-opacity:1.0; 
stroke:#FFFFFF; stroke-width:0; stroke-opacity:1; 
stroke-linecap:round; stroke-linejoin:round;">
<circle cx="94094.5" cy="40677.2" r="196.85" /> 
</g>
<g style="fill:#FFFFFF; fill-opacity:1.0; 
stroke:#FFFFFF; stroke-width:39.3701; stroke-opacity:1; 
stroke-linecap:round; stroke-linejoin:round;">
</g>
<g style="fill:#FFFFFF; fill-opacity:1.0; 
stroke:#FFFFFF; stroke-width:0; stroke-opacity:1; 
stroke-linecap:round; stroke-linejoin:round;">
<circle cx="94094.5" cy="41677.2" r="196.85" /> 
</g>
<g style="fill:#FFFFFF; fill-opacity:1.0; 
stroke:#FFFFFF; stroke-width:39.3701; stroke-opacity:1; 
stroke-linecap:round; stroke-linejoin:round;">
</g>
<g style="fill:#FFFFFF; fill-opacity:1.0; 
stroke:#FFFFFF; stroke-width:0; stroke-opacity:1; 
stroke-linecap:round; stroke-linejoin:round;">
<circle cx="86220.5" cy="37901.6" r="118.11" /> 
</g>
<g style="fill:#FFFFFF; fill-opacity:1.0; 
stroke:#FFFFFF; stroke-width:39.3701; stroke-opacity:1; 
stroke-linecap:round; stroke-linejoin:round;">
</g>
<g style="fill:#FFFFFF; fill-opacity:1.0; 
stroke:#FFFFFF; stroke-width:0; stroke-opacity:1; 
stroke-linecap:round; stroke-linejoin:round;">
<circle cx="86220.5" cy="38401.6" r="118.11" /> 
</g>
<g style="fill:#FFFFFF; fill-opacity:1.0; 
stroke:#FFFFFF; stroke-width:39.3701; stroke-opacity:1; 
stroke-linecap:round; stroke-linejoin:round;">
</g>
<g style="fill:#FFFFFF; fill-opacity:1.0; 
stroke:#FFFFFF; stroke-width:0; stroke-opacity:1; 
stroke-linecap:round; stroke-linejoin:round;">
<circle cx="86220.5" cy="37401.6" r="118.11" /> 
</g>
<g style="fill:#FFFFFF; fill-opacity:1.0; 
stroke:#FFFFFF; stroke-width:39.3701; stroke-opacity:1; 
stroke-linecap:round; stroke-linejoin:round;">
</g>
<g style="fill:#FFFFFF; fill-opacity:1.0; 
stroke:#FFFFFF; stroke-width:0; stroke-opacity:1; 
stroke-linecap:round; stroke-linejoin:round;">
<circle cx="88141.7" cy="33858.3" r="196.85" /> 
</g>
<g style="fill:#FFFFFF; fill-opacity:1.0; 
stroke:#FFFFFF; stroke-width:39.3701; stroke-opacity:1; 
stroke-linecap:round; stroke-linejoin:round;">
</g>
<g style="fill:#FFFFFF; fill-opacity:1.0; 
stroke:#FFFFFF; stroke-width:0; stroke-opacity:1; 
stroke-linecap:round; stroke-linejoin:round;">
<circle cx="88141.7" cy="29858.3" r="196.85" /> 
</g>
<g style="fill:#FFFFFF; fill-opacity:1.0; 
stroke:#FFFFFF; stroke-width:39.3701; stroke-opacity:1; 
stroke-linecap:round; stroke-linejoin:round;">
</g>
<g style="fill:#FFFFFF; fill-opacity:1.0; 
stroke:#FFFFFF; stroke-width:0; stroke-opacity:1; 
stroke-linecap:round; stroke-linejoin:round;">
<circle cx="91141.7" cy="33858.3" r="196.85" /> 
</g>
<g style="fill:#FFFFFF; fill-opacity:1.0; 
stroke:#FFFFFF; stroke-width:39.3701; stroke-opacity:1; 
stroke-linecap:round; stroke-linejoin:round;">
</g>
<g style="fill:#FFFFFF; fill-opacity:1.0; 
stroke:#FFFFFF; stroke-width:0; stroke-opacity:1; 
stroke-linecap:round; stroke-linejoin:round;">
<circle cx="91141.7" cy="29858.3" r="196.85" /> 
</g>
<g style="fill:#FFFFFF; fill-opacity:1.0; 
stroke:#FFFFFF; stroke-width:39.3701; stroke-opacity:1; 
stroke-linecap:round; stroke-linejoin:round;">
</g>
<g style="fill:#FFFFFF; fill-opacity:1.0; 
stroke:#FFFFFF; stroke-width:0; stroke-opacity:1; 
stroke-linecap:round; stroke-linejoin:round;">
<circle cx="88141.7" cy="28858.3" r="196.85" /> 
</g>
<g style="fill:#FFFFFF; fill-opacity:1.0; 
stroke:#FFFFFF; stroke-width:39.3701; stroke-opacity:1; 
stroke-linecap:round; stroke-linejoin:round;">
</g>
<g style="fill:#FFFFFF; fill-opacity:1.0; 
stroke:#FFFFFF; stroke-width:0; stroke-opacity:1; 
stroke-linecap:round; stroke-linejoin:round;">
<circle cx="91141.7" cy="28858.3" r="196.85" /> 
</g>
<g style="fill:#FFFFFF; fill-opacity:1.0; 
stroke:#FFFFFF; stroke-width:39.3701; stroke-opacity:1; 
stroke-linecap:round; stroke-linejoin:round;">
</g>
<g style="fill:#FFFFFF; fill-opacity:1.0; 
stroke:#FFFFFF; stroke-width:0; stroke-opacity:1; 
stroke-linecap:round; stroke-linejoin:round;">
<circle cx="82236.2" cy="33858.3" r="196.85" /> 
</g>
<g style="fill:#FFFFFF; fill-opacity:1.0; 
stroke:#FFFFFF; stroke-width:39.3701; stroke-opacity:1; 
stroke-linecap:round; stroke-linejoin:round;">
</g>
<g style="fill:#FFFFFF; fill-opacity:1.0; 
stroke:#FFFFFF; stroke-width:0; stroke-opacity:1; 
stroke-linecap:round; stroke-linejoin:round;">
<circle cx="82236.2" cy="29858.3" r="196.85" /> 
</g>
<g style="fill:#FFFFFF; fill-opacity:1.0; 
stroke:#FFFFFF; stroke-width:39.3701; stroke-opacity:1; 
stroke-linecap:round; stroke-linejoin:round;">
</g>
<g style="fill:#FFFFFF; fill-opacity:1.0; 
stroke:#FFFFFF; stroke-width:0; stroke-opacity:1; 
stroke-linecap:round; stroke-linejoin:round;">
<circle cx="85236.2" cy="33858.3" r="196.85" /> 
</g>
<g style="fill:#FFFFFF; fill-opacity:1.0; 
stroke:#FFFFFF; stroke-width:39.3701; stroke-opacity:1; 
stroke-linecap:round; stroke-linejoin:round;">
</g>
<g style="fill:#FFFFFF; fill-opacity:1.0; 
stroke:#FFFFFF; stroke-width:0; stroke-opacity:1; 
stroke-linecap:round; stroke-linejoin:round;">
<circle cx="85236.2" cy="29858.3" r="196.85" /> 
</g>
<g style="fill:#FFFFFF; fill-opacity:1.0; 
stroke:#FFFFFF; stroke-width:39.3701; stroke-opacity:1; 
stroke-linecap:round; stroke-linejoin:round;">
</g>
<g style="fill:#FFFFFF; fill-opacity:1.0; 
stroke:#FFFFFF; stroke-width:0; stroke-opacity:1; 
stroke-linecap:round; stroke-linejoin:round;">
<circle cx="82236.2" cy="28858.3" r="196.85" /> 
</g>
<g style="fill:#FFFFFF; fill-opacity:1.0; 
stroke:#FFFFFF; stroke-width:39.3701; stroke-opacity:1; 
stroke-linecap:round; stroke-linejoin:round;">
</g>
<g style="fill:#FFFFFF; fill-opacity:1.0; 
stroke:#FFFFFF; stroke-width:0; stroke-opacity:1; 
stroke-linecap:round; stroke-linejoin:round;">
<circle cx="85236.2" cy="28858.3" r="196.85" /> 
</g>
<g style="fill:#FFFFFF; fill-opacity:1.0; 
stroke:#FFFFFF; stroke-width:39.3701; stroke-opacity:1; 
stroke-linecap:round; stroke-linejoin:round;">
</g>
<g style="fill:#FFFFFF; fill-opacity:1.0; 
stroke:#FFFFFF; stroke-width:0; stroke-opacity:1; 
stroke-linecap:round; stroke-linejoin:round;">
<circle cx="75543.3" cy="32874" r="196.85" /> 
</g>
<g style="fill:#FFFFFF; fill-opacity:1.0; 
stroke:#FFFFFF; stroke-width:39.3701; stroke-opacity:1; 
stroke-linecap:round; stroke-linejoin:round;">
</g>
<g style="fill:#FFFFFF; fill-opacity:1.0; 
stroke:#FFFFFF; stroke-width:0; stroke-opacity:1; 
stroke-linecap:round; stroke-linejoin:round;">
<circle cx="75543.3" cy="28874" r="196.85" /> 
</g>
<g style="fill:#FFFFFF; fill-opacity:1.0; 
stroke:#FFFFFF; stroke-width:39.3701; stroke-opacity:1; 
stroke-linecap:round; stroke-linejoin:round;">
</g>
<g style="fill:#FFFFFF; fill-opacity:1.0; 
stroke:#FFFFFF; stroke-width:0; stroke-opacity:1; 
stroke-linecap:round; stroke-linejoin:round;">
<circle cx="78543.3" cy="32874" r="196.85" /> 
</g>
<g style="fill:#FFFFFF; fill-opacity:1.0; 
stroke:#FFFFFF; stroke-width:39.3701; stroke-opacity:1; 
stroke-linecap:round; stroke-linejoin:round;">
</g>
<g style="fill:#FFFFFF; fill-opacity:1.0; 
stroke:#FFFFFF; stroke-width:0; stroke-opacity:1; 
stroke-linecap:round; stroke-linejoin:round;">
<circle cx="78543.3" cy="28874" r="196.85" /> 
</g>
<g style="fill:#FFFFFF; fill-opacity:1.0; 
stroke:#FFFFFF; stroke-width:39.3701; stroke-opacity:1; 
stroke-linecap:round; stroke-linejoin:round;">
</g>
<g style="fill:#FFFFFF; fill-opacity:1.0; 
stroke:#FFFFFF; stroke-width:0; stroke-opacity:1; 
stroke-linecap:round; stroke-linejoin:round;">
<circle cx="75543.3" cy="27874" r="196.85" /> 
</g>
<g style="fill:#FFFFFF; fill-opacity:1.0; 
stroke:#FFFFFF; stroke-width:39.3701; stroke-opacity:1; 
stroke-linecap:round; stroke-linejoin:round;">
</g>
<g style="fill:#FFFFFF; fill-opacity:1.0; 
stroke:#FFFFFF; stroke-width:0; stroke-opacity:1; 
stroke-linecap:round; stroke-linejoin:round;">
<circle cx="78543.3" cy="27874" r="196.85" /> 
</g>
<g style="fill:#FFFFFF; fill-opacity:1.0; 
stroke:#FFFFFF; stroke-width:39.3701; stroke-opacity:1; 
stroke-linecap:round; stroke-linejoin:round;">
</g>
<g style="fill:#000000; fill-opacity:1.0; 
stroke:#000000; stroke-width:39.3701; stroke-opacity:1; 
stroke-linecap:round; stroke-linejoin:round;">
</g> 
</svg>
